<svg width="79" height="96" viewBox="0 0 79 96" xmlns="http://www.w3.org/2000/svg"><title>AdvocateIcon Copy</title><desc>Created with Sketch.</desc><g fill="#2A1B41"><path d="M79 61.628c0-4.6-3.739-8.315-8.369-8.315-.594 0-1.246.059-1.84.177-1.128-3.243-4.273-5.544-7.835-5.544-.653 0-1.246.059-1.84.236-1.009-2.772-3.383-4.836-6.351-5.367v-20.7c1.484.472 3.086.708 4.63.708 2.968 0 5.935-.767 8.666-2.359 4.926-2.949 8.013-8.02 8.072-13.21 0-.59-.297-1.12-.831-1.415-1.781-.944-3.917-1.533-6.054-1.651-.831-.059-1.603.59-1.662 1.474-.059.885.653 1.592 1.484 1.651 1.365.059 2.671.354 3.858.885-.415 3.774-2.79 7.372-6.47 9.554-3.027 1.769-6.47 2.359-9.556 1.71l8.903-5.249c.712-.472.95-1.415.534-2.123-.475-.767-1.425-1.003-2.196-.59l-8.844 5.249c.89-3.008 3.027-5.72 6.054-7.49.831-.472 1.662-.885 2.552-1.18.831-.295 1.246-1.179 1.009-2.005-.297-.826-1.187-1.239-2.018-1.003-1.068.413-2.137.885-3.146 1.474-1.959 1.179-3.68 2.654-4.986 4.364v-9.318c0-.885-.653-1.592-1.543-1.592-.89 0-1.603.708-1.603 1.592v23.944c-1.306-1.71-2.968-3.185-4.926-4.364-4.986-2.89-10.921-3.185-15.551-.708-.534.236-.831.826-.831 1.356 0 4.777 2.552 9.377 6.766 12.385.712.531 1.721.354 2.196-.354.534-.708.356-1.651-.356-2.182-3.086-2.182-5.045-5.485-5.401-8.846 3.502-1.533 7.835-1.12 11.574 1.061 2.968 1.769 5.164 4.482 6.054 7.49l-8.903-5.249c-.712-.413-1.721-.177-2.137.531-.475.767-.178 1.71.534 2.182l8.903 5.19c-2.018.413-4.155.354-6.232-.236-.178-.059-.356-.118-.593-.118-.831 0-1.484.649-1.543 1.474v.118c0 .708.475 1.297 1.128 1.474 1.543.472 3.146.708 4.689.708 1.603 0 3.146-.236 4.63-.708v6.074c-2.908.531-5.282 2.595-6.291 5.367-.593-.177-1.187-.236-1.84-.236-3.621 0-6.707 2.3-7.894 5.544-.593-.118-1.187-.177-1.781-.177-4.689 0-8.606 4.069-8.428 8.669-.475.354-.95.708-1.365 1.061l-.059.059c-4.808 4.364-9.259 8.905-13.592 13.269-2.493 2.595-5.104 5.19-7.716 7.785-.653.59-.653 1.592 0 2.241.593.59 1.602.59 2.196 0 2.671-2.595 5.283-5.249 7.775-7.844 4.274-4.305 8.725-8.846 13.414-13.151.594-.531 1.187-.767 1.84-1.121 2.552-1.474 5.52-2.241 8.428-2.241l12.108-.059c.831 0 1.781.177 2.493.59.89.472 1.365 1.474 1.365 2.418 0 1.769-1.365 2.831-2.968 3.008h-10.742999999999999c-.653 0-1.306.531-1.484 1.18-.178.708.119 1.415.712 1.769l3.799 2.241c2.968 1.71 5.935 3.538 8.903 5.19l.178.118c1.187.649 2.493 1.061 3.858 1.061h.119c1.662 0 3.205-.472 4.57-1.415 1.603-1.121 3.205-2.241 4.808-3.303l7.657-5.308c1.128-.826 2.849-.649 3.799.413.534.531.772 1.297.712 2.064-.059 1.356-1.187 2.241-2.255 2.949l-14.838 10.674c-1.899 1.356-3.383 2.477-5.52 2.831-2.196.354-4.57-.118-6.529-1.238l-2.433-1.415c-.712-.413-1.662-.177-2.137.59-.415.708-.178 1.71.594 2.123.772.472 1.543.944 2.374 1.415 2.552 1.474 5.698 2.064 8.606 1.592 2.908-.472 4.867-1.887 6.885-3.361l14.838-10.674c.534-.354 1.068-.708 1.543-1.121 1.187-1.061 1.899-2.536 2.018-4.128.119-1.533-.356-3.067-1.306-4.246 1.84-1.533 2.968-3.833 2.968-6.369zm-5.757 4.482c-.178 0-.297-.059-.475-.118h-.059c-.415-.118-.89-.177-1.365-.177-1.84 0-3.264.944-4.689 1.946-.178.118-10.506 7.254-10.506 7.254-1.425.944-2.552 1.474-3.917 1.415-.772-.118-1.484-.354-2.137-.767l-7.716-4.541h.95c1.425 0 2.79.059 4.214 0 1.899-.059 3.739-1.062 4.867-2.595 1.187-1.592 1.306-3.951.593-5.721-1.068-2.772-3.739-3.951-6.529-3.951-6.291 0-12.464-.59-18.578 1.12-.119 0-.178 0-.297.059h-.059l-.831.295c.594-2.241 2.612-3.892 5.045-3.892.831 0 1.603.177 2.315.472.416.236 1.009.236 1.425 0 .475-.236.772-.708.831-1.239.297-2.595 2.493-4.6 5.164-4.6.831 0 1.543.177 2.255.531.475.236 1.009.236 1.484-.059.415-.236.712-.649.772-1.179.297-2.595 2.552-4.6 5.223-4.6s4.867 2.005 5.164 4.6c.059.531.356.944.831 1.179.415.295 1.009.295 1.424.059.712-.354 1.484-.531 2.256-.531 2.671 0 4.926 2.005 5.223 4.6.059.531.356 1.003.831 1.239 1.009.531 2.552-.472 3.68-.472 2.908 0 5.223 2.3 5.223 5.19 0 1.887-1.009 3.597-2.612 4.482z"/><path d="M36.882 82.195c-1.059-.456-1.941-1.027-2.882-1.654-1-.627-1.941-1.426-3.177-1.483-.529-.057-1.235-.057-1.706.057-1.294.342-2.118 1.141-2.823 1.826l-.059.057c-2.412 2.567-4.941 4.963-7.353 7.302-1.765 1.654-3.53 3.366-5.294 5.134-.588.57-.588 1.54.059 2.111.294.285.706.456 1.059.456.412 0 .824-.171 1.177-.513 1.647-1.711 3.471-3.423 5.176-5.077 2.471-2.339 5-4.735 7.471-7.359.412-.399.824-.799 1.177-.97h.588c.059 0 .294-.057.412 0 .529.342 1.059.628 1.529.97 1 .685 2.059 1.369 3.353 1.94.765.342 1.706 0 2.059-.742.353-.799 0-1.654-.765-2.054z"/></g></svg>