<svg width="94" height="96" viewBox="0 0 94 96" xmlns="http://www.w3.org/2000/svg"><title>ResultsIcon Copy</title><desc>Created with Sketch.</desc><g fill="#2A1B41"><path d="M93.484 17.641l-16.7-17.114c-.344-.352-.804-.527-1.32-.527h-49.41c-.976 0-1.836.821-1.836 1.875v12.073c-6.6.938-12.338 4.864-16.183 8.264-2.525 2.169-4.419 4.337-5.624 5.744-2.41 2.93-2.41 3.399-2.41 3.868 0 .527 0 .938 2.41 3.868 1.205 1.407 3.156 3.575 5.624 5.802 4.361 3.868 11.248 8.498 19.053 8.498 7.805 0 14.691-4.63 19.053-8.498 2.525-2.169 4.419-4.337 5.624-5.744 2.41-2.93 2.41-3.399 2.41-3.927 0-.469 0-.879-2.41-3.81-1.205-1.406-3.156-3.575-5.624-5.802-4.247-3.692-10.789-8.146-18.249-8.439v-10.022h45.738v15.18c0 1.055.861 1.875 1.836 1.875h14.863v54.447h-2.984v-24.205c0-.996-.804-1.875-1.836-1.875-1.033 0-1.836.879-1.836 1.875v24.205h-5.509v-28.19c0-.117 0-.293-.057-.41l5.567-5.685v2.286c0 .996.804 1.875 1.836 1.875 1.033 0 1.836-.879 1.836-1.875v-6.798c0-1.055-.804-1.875-1.836-1.875h-6.6c-1.033 0-1.836.82-1.836 1.875 0 1.055.804 1.875 1.836 1.875h2.181l-14.289 14.593-6.14-6.271c-.344-.352-.861-.527-1.32-.527-.459 0-.976.176-1.32.527l-13.773 14.066c-.689.762-.689 1.934 0 2.637.402.41.861.586 1.32.586.459 0 .918-.176 1.32-.586l.057 11.897h-1.32c-1.033 0-1.836.821-1.836 1.875 0 .996.804 1.875 1.836 1.875h44.705v13.245h-62.437v-5.626c0-.996-.804-1.876-1.836-1.876-.976 0-1.836.879-1.836 1.876v7.502c0 1.055.861 1.875 1.836 1.875h66.11c1.033 0 1.836-.821 1.836-1.875v-75.194c0-.469-.172-.938-.516-1.289zm-50.214 7.033c3.329 2.813 5.739 5.744 6.829 7.209-1.09 1.406-3.501 4.337-6.886 7.209-3.788 3.282-9.641 7.15-16.126 7.15-6.485 0-12.396-3.927-16.183-7.209-3.328-2.813-5.739-5.744-6.829-7.209 1.09-1.407 3.501-4.337 6.886-7.209 3.787-3.282 9.641-7.15 16.126-7.15 6.485 0 12.396 3.927 16.183 7.209zm34.031-7.619v-10.667l10.444 10.667h-10.444zm-21.176 58.198h-5.509v-15.707l5.509-5.626v21.333zm9.182 0h-5.509v-24.147l5.509 5.626v18.52zm9.182 0h-5.509v-19.282l5.509-5.626v24.908z"/><path d="M27 22c-6.044 0-11 4.942-11 10.97 0 6.088 4.956 11.03 11 11.03 6.104 0 11-4.942 11-11.03 0-6.027-4.896-10.97-11-10.97zm0 18.142c-3.929 0-7.132-3.195-7.132-7.173 0-3.918 3.203-7.112 7.132-7.112s7.132 3.195 7.132 7.112c0 3.978-3.203 7.173-7.132 7.173z"/><path d="M28.438 31.625c-.375-.375-.938-.625-1.438-.625s-1.062.25-1.437.625-.563.875-.563 1.375c0 .563.188 1.063.563 1.438.375.375.937.562 1.437.562s1.063-.187 1.438-.562c.375-.375.562-.875.562-1.438 0-.5-.187-1-.562-1.375z"/><path d="M23.113 67h-21.226c-1.002 0-1.887.875-1.887 2 0 1.063.884 2 1.887 2h21.226c1.061 0 1.887-.937 1.887-2 0-1.125-.826-2-1.887-2z"/><path d="M33.913 67h-4.826c-1.109 0-2.087.875-2.087 2 0 1.063.978 2 2.087 2h4.826c1.174 0 2.087-.937 2.087-2 0-1.125-.913-2-2.087-2z"/><path d="M29.051 60h-27.102c-1.035 0-1.949.875-1.949 2s.914 2 1.949 2h27.102c1.035 0 1.949-.875 1.949-2s-.914-2-1.949-2z"/><path d="M34.438 60.563c-.375-.375-.875-.563-1.438-.563-.5 0-1.062.188-1.437.563-.313.375-.563.937-.563 1.437s.25 1.063.563 1.438c.375.375.937.562 1.437.562.563 0 1.063-.187 1.438-.562.375-.375.562-.938.562-1.438s-.187-1.062-.562-1.437z"/><path d="M16.211 76h-14.422c-.95 0-1.789.875-1.789 2 0 1.063.838 2 1.789 2h14.422c.95 0 1.789-.937 1.789-2 0-1.125-.838-2-1.789-2z"/><path d="M25.438 76.563c-.375-.375-.875-.563-1.438-.563-.5 0-1 .188-1.375.563-.375.375-.625.875-.625 1.437 0 .5.25 1 .625 1.375s.875.625 1.375.625c.563 0 1.063-.25 1.438-.625s.562-.875.562-1.375c0-.562-.187-1.062-.562-1.437z"/><path d="M30.438 76.563c-.375-.375-.875-.563-1.438-.563-.5 0-1 .188-1.375.563-.375.375-.625.875-.625 1.437 0 .5.25 1 .625 1.375s.875.625 1.375.625c.563 0 1.063-.25 1.438-.625s.562-.875.562-1.375c0-.562-.187-1.062-.562-1.437z"/><path d="M37.438 76.563c-.375-.375-.875-.563-1.438-.563-.5 0-1 .188-1.375.563-.375.375-.625.875-.625 1.437 0 .5.25 1 .625 1.375s.875.625 1.375.625c.563 0 1.063-.25 1.438-.625s.562-.875.562-1.375c0-.562-.187-1.062-.562-1.437z"/><path d="M67.054 11h-14.108c-1.095 0-1.946.938-1.946 2 0 1.125.851 2 1.946 2h14.108c1.095 0 1.946-.875 1.946-2 0-1.062-.851-2-1.946-2z"/><path d="M63.077 18h-10.155c-1.081 0-1.923.938-1.923 2 0 1.125.841 2 1.923 2h10.155c1.082 0 1.923-.875 1.923-2 0-1.062-.841-2-1.923-2z"/></g></svg>