<?xml version="1.0" encoding="UTF-8"?>
<svg width="137px" height="344px" viewBox="0 0 137 344" version="1.1" xmlns="http://www.w3.org/2000/svg" xmlns:xlink="http://www.w3.org/1999/xlink">
    <!-- Generator: Sketch 51.1 (57501) - http://www.bohemiancoding.com/sketch -->
    <title>2</title>
    <desc>Created with Sketch.</desc>
    <defs></defs>
    <g id="Symbols" stroke="none" stroke-width="1" fill="none" fill-rule="evenodd">
        <g id="ComplianceDiagram" transform="translate(-154.000000, 0.000000)">
            <g id="2" transform="translate(154.000000, 0.000000)">
                <rect id="Rectangle-Copy-5" fill="#0BD4D9" x="0" y="0" width="137" height="344" rx="8"></rect>
                <path d="M55.03355,119 C50.96645,119 50.96645,119 50.96645,119 C50.44295,119 50,119.2292 50,119.5 C50,119.7708 50.44295,120 50.96645,120 C55.03355,120 55.03355,120 55.03355,120 C55.55705,120 56,119.7708 56,119.5 C56,119.2292 55.55705,119 55.03355,119 Z" id="Fill-60-Copy" fill="#022330"></path>
                <path d="M54.647,169 C49.3921429,169 49.3921429,169 49.3921429,169 C48.0588571,169 47,169.776933 47,170.726667 C47,171.273333 47,171.273333 47,171.273333 C47,172.223067 48.0588571,173 49.3921429,173 C54.647,173 54.647,173 54.647,173 C55.9411429,173 57,172.223067 57,171.273333 C57,170.726667 57,170.726667 57,170.726667 C57,169.776933 55.9411429,169 54.647,169 Z M55.1177143,171.273333 C55.1177143,171.446 54.8822857,171.618667 54.647,171.618667 C49.3921429,171.618667 49.3921429,171.618667 49.3921429,171.618667 C49.1177143,171.618667 48.8822857,171.446 48.8822857,171.273333 C48.8822857,170.726667 48.8822857,170.726667 48.8822857,170.726667 C48.8822857,170.554 49.1177143,170.381333 49.3921429,170.381333 C54.647,170.381333 54.647,170.381333 54.647,170.381333 C54.8822857,170.381333 55.1177143,170.554 55.1177143,170.726667 L55.1177143,171.273333 Z" id="Fill-61-Copy" fill="#022330"></path>
                <path d="M84.7216,144.785447 C81.9768,144.785447 81.9768,144.785447 81.9768,144.785447 C81.8264,144.244595 81.6008,143.742537 81.3376,143.201684 C83.2928,141.231821 83.2928,141.231821 83.2928,141.231821 C83.5184,141.000047 83.6688,140.652316 83.6688,140.304726 C83.6688,139.957137 83.5184,139.609405 83.2928,139.377632 C80.9992,137.021526 80.9992,137.021526 80.9992,137.021526 C80.5104,136.519326 79.6832,136.519326 79.1944,137.021526 C77.2768,139.030042 77.2768,139.030042 77.2768,139.030042 C76.788,138.759616 76.2616,138.527842 75.7352,138.373374 C75.7352,135.553579 75.7352,135.553579 75.7352,135.553579 C75.7352,134.819747 75.1712,134.240384 74.4568,134.240384 C71.8248,134.240384 71.8248,134.240384 71.8248,134.240384 C71.8248,129.334768 71.8248,129.334768 71.8248,129.334768 C71.8248,128.832568 71.4112,128.407674 70.9224,128.407674 C70.396,128.407674 69.9448,128.832568 69.9448,129.334768 C69.9448,138.373374 69.9448,138.373374 69.9448,138.373374 C69.4184,138.527842 68.9296,138.759616 68.4408,139.030042 C67.9144,138.489332 67.9144,138.489332 67.9144,138.489332 C67.9144,124.699579 67.9144,124.699579 67.9144,124.699579 C67.9144,123.772484 67.1624,123 66.26,123 C40.6544,123 40.6544,123 40.6544,123 C39.752,123 39,123.772484 39,124.699579 C39,165.064437 39,165.064437 39,165.064437 C39,166.030042 39.752,166.764016 40.6544,166.764016 C66.26,166.764016 66.26,166.764016 66.26,166.764016 C67.1624,166.764016 67.9144,166.030042 67.9144,165.064437 C67.9144,157.030089 67.9144,157.030089 67.9144,157.030089 C68.4408,156.489237 68.4408,156.489237 68.4408,156.489237 C68.9296,156.759663 69.4184,156.991437 69.9448,157.145905 C69.9448,160.120168 69.9448,160.081516 70.02,160.313289 C70.02,173.060132 70.02,173.060132 70.02,173.060132 C70.02,174.218858 69.1176,175.145953 67.9896,175.145953 C55.5816,175.145953 55.5816,175.145953 55.5816,175.145953 C55.0552,175.145953 54.6792,175.532195 54.6792,176.072905 C54.6792,176.575105 55.0552,177 55.5816,177 C67.9896,177 67.9896,177 67.9896,177 C70.0952,177 71.8248,175.223116 71.8248,173.060132 C71.8248,161.279037 71.8248,161.279037 71.8248,161.279037 C74.4568,161.279037 74.4568,161.279037 74.4568,161.279037 C75.1712,161.279037 75.7352,160.699532 75.7352,159.9657 C75.7352,157.145905 75.7352,157.145905 75.7352,157.145905 C76.2616,156.991437 76.788,156.759663 77.2768,156.489237 C79.1944,158.497895 79.1944,158.497895 79.1944,158.497895 C79.6832,158.999953 80.5104,158.999953 80.9992,158.497895 C83.2928,156.141647 83.2928,156.141647 83.2928,156.141647 C83.5184,155.909874 83.6688,155.562284 83.6688,155.214553 C83.6688,154.866963 83.5184,154.519374 83.2928,154.2876 C81.3376,152.317595 81.3376,152.317595 81.3376,152.317595 C81.6008,151.815395 81.8264,151.274684 81.9768,150.733974 C84.7216,150.733974 84.7216,150.733974 84.7216,150.733974 C85.436,150.733974 86,150.154468 86,149.420637 C86,146.098642 86,146.098642 86,146.098642 C86,145.403463 85.436,144.785447 84.7216,144.785447 Z M46.1064,124.854047 C66.1096,124.854047 66.1096,124.854047 66.1096,124.854047 C66.1096,128.871221 66.1096,128.871221 66.1096,128.871221 C46.1064,128.871221 46.1064,128.871221 46.1064,128.871221 L46.1064,124.854047 Z M40.8048,124.854047 C44.3016,124.854047 44.3016,124.854047 44.3016,124.854047 C44.3016,128.871221 44.3016,128.871221 44.3016,128.871221 C40.8048,128.871221 40.8048,128.871221 40.8048,128.871221 L40.8048,124.854047 Z M40.8048,164.909826 C40.8048,130.725268 40.8048,130.725268 40.8048,130.725268 C66.1096,130.725268 66.1096,130.725268 66.1096,130.725268 C66.1096,136.7511 66.1096,136.7511 66.1096,136.7511 C65.6208,136.557979 65.0568,136.635142 64.6808,137.021526 C62.4248,139.377632 62.4248,139.377632 62.4248,139.377632 C61.8984,139.879832 61.8984,140.729621 62.4248,141.231821 C64.3424,143.201684 64.3424,143.201684 64.3424,143.201684 C64.2296,143.394805 64.1544,143.587926 64.0792,143.781047 C63.9288,144.128779 63.816,144.437716 63.7032,144.785447 C60.9584,144.785447 60.9584,144.785447 60.9584,144.785447 C60.2816,144.785447 59.68,145.403463 59.68,146.098642 C59.68,146.832616 59.68,146.832616 59.68,146.832616 C44.452,146.832616 44.452,146.832616 44.452,146.832616 C43.9632,146.832616 43.5496,147.257511 43.5496,147.759711 C43.5496,148.261768 43.9632,148.686663 44.452,148.686663 C59.68,148.686663 59.68,148.686663 59.68,148.686663 C59.68,149.420637 59.68,149.420637 59.68,149.420637 C59.68,150.154468 60.2816,150.733974 60.9584,150.733974 C63.7032,150.733974 63.7032,150.733974 63.7032,150.733974 C63.8536,151.236032 64.0792,151.776884 64.3424,152.317595 C62.4248,154.2876 62.4248,154.2876 62.4248,154.2876 C61.8984,154.789658 61.8984,155.639447 62.4248,156.141647 C64.6808,158.497895 64.6808,158.497895 64.6808,158.497895 C65.0568,158.884137 65.6208,158.961442 66.1096,158.768179 C66.1096,164.909826 66.1096,164.909826 66.1096,164.909826 L40.8048,164.909826 Z M84.1952,148.879784 C81.3,148.879784 81.3,148.879784 81.3,148.879784 C80.8864,148.879784 80.5104,149.150211 80.4352,149.575105 C80.2096,150.424895 79.9088,151.236032 79.4576,151.970005 C79.232,152.317595 79.3072,152.819795 79.5704,153.128732 C81.6384,155.214553 81.6384,155.214553 81.6384,155.214553 C80.0968,156.798316 80.0968,156.798316 80.0968,156.798316 C78.0664,154.673842 78.0664,154.673842 78.0664,154.673842 C77.7656,154.364763 77.3144,154.326111 76.9384,154.557884 C76.224,155.021432 75.4344,155.330511 74.6072,155.523632 C74.2312,155.639447 73.9304,156.025689 73.9304,156.450584 C73.9304,159.424847 73.9304,159.424847 73.9304,159.424847 C71.7496,159.424847 71.7496,159.424847 71.7496,159.424847 C71.7496,156.450584 71.7496,156.450584 71.7496,156.450584 C71.7496,156.025689 71.4864,155.639447 71.0728,155.523632 C70.2456,155.330511 69.456,155.021432 68.7416,154.557884 C68.4032,154.326111 67.9144,154.364763 67.6512,154.673842 C65.5832,156.798316 65.5832,156.798316 65.5832,156.798316 C64.0416,155.214553 64.0416,155.214553 64.0416,155.214553 C66.1096,153.128732 66.1096,153.128732 66.1096,153.128732 C66.4104,152.819795 66.448,152.317595 66.2224,151.970005 C65.7712,151.236032 65.4704,150.424895 65.2824,149.575105 C65.1696,149.188863 64.7936,148.879784 64.38,148.879784 C61.4848,148.879784 61.4848,148.879784 61.4848,148.879784 C61.4848,146.639495 61.4848,146.639495 61.4848,146.639495 C64.38,146.639495 64.38,146.639495 64.38,146.639495 C64.7936,146.639495 65.1696,146.369068 65.2824,145.944174 C65.4704,145.133037 65.7712,144.283247 66.2224,143.549416 C66.2976,143.433458 66.3728,143.278989 66.3728,143.124521 C66.3728,142.854095 66.2976,142.583668 66.1096,142.390547 C64.0416,140.304726 64.0416,140.304726 64.0416,140.304726 C65.5832,138.720963 65.5832,138.720963 65.5832,138.720963 C67.6512,140.845437 67.6512,140.845437 67.6512,140.845437 C67.9144,141.154516 68.4032,141.193168 68.7416,140.961395 C69.456,140.497847 70.2456,140.188911 71.0728,139.995647 C71.4864,139.879832 71.7496,139.493589 71.7496,139.068695 C71.7496,136.094432 71.7496,136.094432 71.7496,136.094432 C73.9304,136.094432 73.9304,136.094432 73.9304,136.094432 C73.9304,139.068695 73.9304,139.068695 73.9304,139.068695 C73.9304,139.493589 74.2312,139.879832 74.6072,139.995647 C75.4344,140.188911 76.224,140.497847 76.9384,140.961395 C77.3144,141.193168 77.7656,141.154516 78.0664,140.845437 C80.0968,138.720963 80.0968,138.720963 80.0968,138.720963 C81.6384,140.304726 81.6384,140.304726 81.6384,140.304726 C79.5704,142.390547 79.5704,142.390547 79.5704,142.390547 C79.3072,142.699626 79.232,143.201684 79.4576,143.549416 C79.9088,144.283247 80.2096,145.094384 80.4352,145.944174 C80.5104,146.369068 80.8864,146.639495 81.3,146.639495 C84.1952,146.639495 84.1952,146.639495 84.1952,146.639495 L84.1952,148.879784 Z" id="Fill-62-Copy" fill="#022330"></path>
                <path d="M71.9805714,143 C69.2178571,143 67,145.248 67,148 C67,150.752 69.2178571,153 71.9805714,153 C74.7431429,153 77,150.752 77,148 C77,145.248 74.7431429,143 71.9805714,143 Z M71.9805714,151.139571 C70.2684286,151.139571 68.8677143,149.705429 68.8677143,148 C68.8677143,146.294571 70.2684286,144.860429 71.9805714,144.860429 C73.7315714,144.860429 75.1322857,146.294571 75.1322857,148 C75.1322857,149.705429 73.7315714,151.139571 71.9805714,151.139571 Z" id="Fill-63-Copy" fill="#022330"></path>
                <path d="M60.0943231,138 C43.9056769,138 43.9056769,138 43.9056769,138 C43.4151077,138 43,138.2292 43,138.5 C43,138.7708 43.4151077,139 43.9056769,139 C60.0943231,139 60.0943231,139 60.0943231,139 C60.6226923,139 61,138.7708 61,138.5 C61,138.2292 60.6226923,138 60.0943231,138 Z" id="Fill-64-Copy" fill="#022330"></path>
                <path d="M60.0943231,142 C43.9056769,142 43.9056769,142 43.9056769,142 C43.4151077,142 43,142.2083 43,142.5 C43,142.7708 43.4151077,143 43.9056769,143 C60.0943231,143 60.0943231,143 60.0943231,143 C60.6226923,143 61,142.7708 61,142.5 C61,142.2083 60.6226923,142 60.0943231,142 Z" id="Fill-65-Copy" fill="#022330"></path>
                <path d="M60.0943231,152 C43.9056769,152 43.9056769,152 43.9056769,152 C43.4151077,152 43,152.68745 43,153.5 C43,154.37495 43.4151077,155 43.9056769,155 C60.0943231,155 60.0943231,155 60.0943231,155 C60.6226923,155 61,154.37495 61,153.5 C61,152.68745 60.6226923,152 60.0943231,152 Z" id="Fill-66-Copy" fill="#022330"></path>
                <path d="M60.0943231,158 C43.9056769,158 43.9056769,158 43.9056769,158 C43.4151077,158 43,158.2292 43,158.5 C43,158.7708 43.4151077,159 43.9056769,159 C60.0943231,159 60.0943231,159 60.0943231,159 C60.6226923,159 61,158.7708 61,158.5 C61,158.2292 60.6226923,158 60.0943231,158 Z" id="Fill-67-Copy" fill="#022330"></path>
                <path d="M68.1372,115 C38.8628,115 38.8628,115 38.8628,115 C36.7421308,115 35,116.768152 35,118.920748 C35,174.079252 35,174.079252 35,174.079252 C35,176.231848 36.7421308,178 38.8628,178 C51.3981154,178 51.3981154,178 51.3981154,178 C51.8905,178 52.3070346,177.577184 52.3070346,177.07748 C52.3070346,176.539402 51.8905,176.154959 51.3981154,176.154959 C38.8628,176.154959 38.8628,176.154959 38.8628,176.154959 C37.7267577,176.154959 36.8178385,175.232439 36.8178385,174.079252 C36.8178385,118.920748 36.8178385,118.920748 36.8178385,118.920748 C36.8178385,117.767561 37.7267577,116.845041 38.8628,116.845041 C68.1372,116.845041 68.1372,116.845041 68.1372,116.845041 C69.2732423,116.845041 70.1821615,117.767561 70.1821615,118.920748 C70.1821615,126.262395 70.1821615,126.262395 70.1821615,126.262395 C70.1821615,126.800473 70.5608423,127.184916 71.0910808,127.184916 C71.5834654,127.184916 72,126.800473 72,126.262395 C72,118.920748 72,118.920748 72,118.920748 C72,116.768152 70.2578692,115 68.1372,115 Z" id="Fill-68-Copy" fill="#022330"></path>
                <text id="CUSTOMIZE-SMART-FORM" font-family="LucidaGrande, Lucida Grande" font-size="12" font-weight="normal" line-spacing="20" letter-spacing="-0.0018" fill="#FFFFFF">
                    <tspan x="29.2984922" y="232">C</tspan>
                    <tspan x="37.5994266" y="232" letter-spacing="0.0702">U</tspan>
                    <tspan x="45.9840797" y="232" letter-spacing="-0.0738">S</tspan>
                    <tspan x="52.3731703" y="232" letter-spacing="-0.2898">T</tspan>
                    <tspan x="59.6712609" y="232" letter-spacing="0.0822">O</tspan>
                    <tspan x="69.0757266" y="232" letter-spacing="0.0102">M</tspan>
                    <tspan x="79.4218641" y="232">I</tspan>
                    <tspan x="82.8770953" y="232" letter-spacing="0.0342">ZE</tspan>
                    <tspan x="96.7033078" y="232"> </tspan>
                    <tspan x="20.9141203" y="252">SMART FORMS </tspan>
                    <tspan x="25.6300172" y="272">AND SYSTEM </tspan>
                    <tspan x="19.1240813" y="292">INTERGRATION</tspan>
                </text>
                <text id="2-copy" font-family="LucidaGrande, Lucida Grande" font-size="64" font-weight="normal" fill="#FFFFFF">
                    <tspan x="45" y="78">2</tspan>
                </text>
            </g>
        </g>
    </g>
</svg>