<?xml version="1.0" encoding="UTF-8"?>
<svg width="137px" height="344px" viewBox="0 0 137 344" version="1.1" xmlns="http://www.w3.org/2000/svg" xmlns:xlink="http://www.w3.org/1999/xlink">
    <!-- Generator: Sketch 51.1 (57501) - http://www.bohemiancoding.com/sketch -->
    <title>3</title>
    <desc>Created with Sketch.</desc>
    <defs></defs>
    <g id="Symbols" stroke="none" stroke-width="1" fill="none" fill-rule="evenodd">
        <g id="ComplianceDiagram" transform="translate(-308.000000, 0.000000)">
            <g id="3" transform="translate(308.000000, 0.000000)">
                <rect id="Rectangle-Copy-4" fill="#0BD4D9" x="0" y="0" width="137" height="344" rx="8"></rect>
                <path d="M91.9409543,156.618923 C91.9409543,150.425245 91.9409543,150.425245 91.9409543,150.425245 C91.9409543,133.537577 78.7339929,119.456856 62.553532,119.011309 C54.2882398,118.788535 46.5478494,121.863097 40.6441907,127.700337 C34.7403903,133.582131 31.4605327,141.424477 31.4605327,149.801479 C31.4605327,156.618923 31.4605327,156.618923 31.4605327,156.618923 C27,156.618923 27,156.618923 27,156.618923 C27,163.080072 27,163.080072 27,163.080072 C31.2419888,164.951513 31.2419888,164.951513 31.2419888,164.951513 C40.9065,169.27375 51.1396784,171.457074 61.7225554,171.457074 C72.2618086,171.457074 82.494987,169.27375 92.2032636,164.951513 C96.401487,163.080072 96.401487,163.080072 96.401487,163.080072 C96.401487,156.618923 96.401487,156.618923 96.401487,156.618923 L91.9409543,156.618923 Z M82.3200669,130.819453 C81.2705465,135.097135 80.7456446,139.508338 80.7456446,143.919684 C80.7456446,147.529045 80.7456446,147.529045 80.7456446,147.529045 C76.2413465,147.529045 76.2413465,147.529045 76.2413465,147.529045 C76.2413465,141.73636 76.2413465,141.73636 76.2413465,141.73636 C76.2413465,136.834912 77.1159468,131.978019 78.7339929,127.388454 C80.0459643,128.413213 81.226781,129.571778 82.3200669,130.819453 Z M62.5097665,121.283885 C63.7342071,121.32844 64.9587892,121.462104 66.1394643,121.640323 C64.0404234,147.529045 64.0404234,147.529045 64.0404234,147.529045 C59.3610636,147.529045 59.3610636,147.529045 59.3610636,147.529045 C57.2620227,121.640323 57.2620227,121.640323 57.2620227,121.640323 C58.9675996,121.372995 60.7168004,121.23933 62.5097665,121.283885 Z M42.1747059,129.349004 C42.9619171,128.591431 43.7491283,127.878556 44.6237286,127.210092 C46.2855401,131.888767 47.1601405,136.745802 47.1601405,141.73636 C47.1601405,147.529045 47.1601405,147.529045 47.1601405,147.529045 C42.6558424,147.529045 42.6558424,147.529045 42.6558424,147.529045 C42.6558424,143.919684 42.6558424,143.919684 42.6558424,143.919684 C42.6558424,139.419229 42.0873167,134.963328 41.0377963,130.596679 C41.3876364,130.15099 41.7811004,129.749997 42.1747059,129.349004 Z M94.1711498,161.609623 C91.2848978,162.901711 91.2848978,162.901711 91.2848978,162.901711 C81.9264613,167.045728 71.9557338,169.18464 61.7225554,169.18464 C51.4457532,169.18464 41.5187911,167.045728 32.1165892,162.901711 C29.2303372,161.609623 29.2303372,161.609623 29.2303372,161.609623 C29.2303372,158.936054 29.2303372,158.936054 29.2303372,158.936054 C82.9759818,158.936054 82.9759818,158.936054 82.9759818,158.936054 C82.9759818,156.618923 82.9759818,156.618923 82.9759818,156.618923 C33.7346353,156.618923 33.7346353,156.618923 33.7346353,156.618923 C33.7346353,149.801479 33.7346353,149.801479 33.7346353,149.801479 C33.7346353,143.563247 35.6587561,137.681452 39.2446885,132.780004 C40.0318996,136.433777 40.4255052,140.176802 40.4255052,143.919684 C40.4255052,149.801479 40.4255052,149.801479 40.4255052,149.801479 C49.3903361,149.801479 49.3903361,149.801479 49.3903361,149.801479 C49.3903361,141.73636 49.3903361,141.73636 49.3903361,141.73636 C49.3903361,136.255558 48.384581,130.953117 46.504084,125.828895 C49.1280268,124.090976 52.0142788,122.843443 55.0316855,122.08587 C57.3057881,149.801479 57.3057881,149.801479 57.3057881,149.801479 C66.0956989,149.801479 66.0956989,149.801479 66.0956989,149.801479 C68.3698015,122.130425 68.3698015,122.130425 68.3698015,122.130425 C71.4309736,122.932553 74.2734602,124.224783 76.8536375,126.007114 C74.9731405,131.042227 74.0111509,136.344667 74.0111509,141.73636 C74.0111509,149.801479 74.0111509,149.801479 74.0111509,149.801479 C82.9759818,149.801479 82.9759818,149.801479 82.9759818,149.801479 C82.9759818,143.919684 82.9759818,143.919684 82.9759818,143.919684 C82.9759818,140.265911 83.3695874,136.656693 84.1130331,133.091887 C87.6115762,137.94878 89.7106171,143.964239 89.7106171,150.425245 C89.7106171,156.618923 89.7106171,156.618923 89.7106171,156.618923 C85.206319,156.618923 85.206319,156.618923 85.206319,156.618923 C85.206319,158.936054 85.206319,158.936054 85.206319,158.936054 C94.1711498,158.936054 94.1711498,158.936054 94.1711498,158.936054 L94.1711498,161.609623 Z" id="Fill-25-Copy" fill="#2A1B41"></path>
                <text id="REGISTER-AND-ONBOARD" font-family="LucidaGrande, Lucida Grande" font-size="12" font-weight="normal" line-spacing="20" letter-spacing="-0.0013" fill="#FFFFFF">
                    <tspan x="23.8079656" y="232">R</tspan>
                    <tspan x="31.3945563" y="232" letter-spacing="-0.1093">E</tspan>
                    <tspan x="37.7891625" y="232" letter-spacing="0.0707">G</tspan>
                    <tspan x="46.5317375" y="232" letter-spacing="-0.0133">I</tspan>
                    <tspan x="49.9754687" y="232" letter-spacing="-0.0733">S</tspan>
                    <tspan x="56.3650594" y="232" letter-spacing="0.0467">T</tspan>
                    <tspan x="63.99965" y="232" letter-spacing="0.0347">E</tspan>
                    <tspan x="70.5382563" y="232">R</tspan>
                    <tspan x="78.1248469" y="232" letter-spacing="0.0587"> </tspan>
                    <tspan x="81.9804219" y="232" letter-spacing="0.0707">A</tspan>
                    <tspan x="90.3304188" y="232" letter-spacing="0.0107">N</tspan>
                    <tspan x="99.2063531" y="232">D </tspan>
                    <tspan x="36.3714109" y="252">ONBOARD </tspan>
                    <tspan x="21.4026578" y="272">CONTRACTORS</tspan>
                </text>
                <text id="3-copy" font-family="LucidaGrande, Lucida Grande" font-size="64" font-weight="normal" fill="#FFFFFF">
                    <tspan x="46" y="78">3</tspan>
                </text>
            </g>
        </g>
    </g>
</svg>