<?xml version="1.0" encoding="UTF-8"?>
<svg width="137px" height="344px" viewBox="0 0 137 344" version="1.1" xmlns="http://www.w3.org/2000/svg" xmlns:xlink="http://www.w3.org/1999/xlink">
    <!-- Generator: Sketch 51.1 (57501) - http://www.bohemiancoding.com/sketch -->
    <title>4</title>
    <desc>Created with Sketch.</desc>
    <defs></defs>
    <g id="Symbols" stroke="none" stroke-width="1" fill="none" fill-rule="evenodd">
        <g id="ComplianceDiagram" transform="translate(-462.000000, 0.000000)">
            <g id="4" transform="translate(462.000000, 0.000000)">
                <rect id="Rectangle-Copy-3" fill="#0BD4D9" x="0" y="0" width="137" height="344" rx="8"></rect>
                <path d="M88.9642,162.203125 C87.4956842,160.90815 86.6612421,159.048775 86.6612421,157.089808 C86.6612421,143.875 86.6612421,143.875 86.6612421,143.875 C86.6612421,143.144567 86.0605632,142.546875 85.3263053,142.546875 C84.5920474,142.546875 83.9913684,143.144567 83.9913684,143.875 C83.9913684,157.089808 83.9913684,157.089808 83.9913684,157.089808 C83.9913684,159.77935 85.1594737,162.369158 87.1618789,164.162092 C87.8627421,164.826225 88.2633368,165.755842 88.2633368,166.71875 C88.2633368,168.611275 86.7280316,170.171875 84.7922737,170.171875 C43.1409368,170.171875 43.1409368,170.171875 43.1409368,170.171875 C41.2385737,170.171875 39.6700158,168.611275 39.6700158,166.71875 C39.6700158,165.755842 40.1038632,164.826225 40.8047263,164.162092 C42.8071316,162.369158 43.9418421,159.77935 43.9418421,157.089808 C43.9418421,141.75 43.9418421,141.75 43.9418421,141.75 C43.9418421,130.759783 52.9530211,121.828125 63.9666053,121.828125 C67.0036789,121.828125 70.0073579,122.525408 72.7107684,123.820383 C71.7762842,125.3144 71.2422526,127.107475 71.2422526,129 C71.2422526,134.412092 75.6476579,138.828125 81.1211263,138.828125 C86.5612,138.828125 91,134.412092 91,129 C91,123.587908 86.5612,119.171875 81.1211263,119.171875 C78.5512947,119.171875 76.2150842,120.134783 74.4795526,121.728533 C72.4771474,120.699183 70.3411632,119.96875 68.1383895,119.570383 C68.6390263,118.806658 68.9060421,117.8769 68.9060421,116.914133 C68.9060421,114.191442 66.7032684,112 63.9666053,112 C61.2633368,112 59.0271684,114.191442 59.0271684,116.914133 C59.0271684,117.8769 59.3275789,118.806658 59.8282158,119.570383 C49.2818737,121.496058 41.2719684,130.726633 41.2719684,141.75 C41.2719684,157.089808 41.2719684,157.089808 41.2719684,157.089808 C41.2719684,159.048775 40.4709211,160.90815 39.0024053,162.203125 C37.7342579,163.365217 37,164.992258 37,166.71875 C37,170.072283 39.7700579,172.828125 43.1409368,172.828125 C55.5562474,172.828125 55.5562474,172.828125 55.5562474,172.828125 C56.1903211,176.878942 59.7280316,180 63.9666053,180 C68.2385737,180 71.7762842,176.878942 72.4103579,172.828125 C84.7922737,172.828125 84.7922737,172.828125 84.7922737,172.828125 C88.1965474,172.828125 90.9332105,170.072283 90.9332105,166.71875 C90.9332105,164.992258 90.2323474,163.365217 88.9642,162.203125 Z M88.3299842,129 C88.3299842,132.951225 85.0926842,136.171875 81.1211263,136.171875 C77.1495684,136.171875 73.9122684,132.951225 73.9122684,129 C73.9122684,125.048775 77.1495684,121.828125 81.1211263,121.828125 C85.0926842,121.828125 88.3299842,125.048775 88.3299842,129 Z M63.9666053,114.65625 C65.2348947,114.65625 66.2360263,115.6856 66.2360263,116.914133 C66.2360263,118.142525 65.2348947,119.171875 63.9666053,119.171875 C62.7317105,119.171875 61.6971842,118.142525 61.6971842,116.914133 C61.6971842,115.6856 62.7317105,114.65625 63.9666053,114.65625 Z M63.9666053,177.34375 C61.1965474,177.34375 58.8603368,175.417933 58.2595158,172.828125 C69.7070895,172.828125 69.7070895,172.828125 69.7070895,172.828125 C69.1062684,175.417933 66.7700579,177.34375 63.9666053,177.34375 Z" id="Fill-69-Copy" fill="#01151D"></path>
                <path d="M48.5,141 C47.675,141 47,141.6666 47,142.48155 C47,142.51845 47,142.51845 47,142.51845 C47,143.3334 47.675,144 48.5,144 C49.325,144 50,143.3334 50,142.51845 C50,142.48155 50,142.48155 50,142.48155 C50,141.6666 49.325,141 48.5,141 Z" id="Fill-70-Copy" fill="#01151D"></path>
                <path d="M52.4191607,137.613565 C54.4214644,132.742294 59.0203752,129.580758 64.151128,129.580758 C64.8393358,129.580758 65.4024793,129.000123 65.4024793,128.290379 C65.4024793,127.580635 64.8393358,127 64.151128,127 C58.0191525,127 52.5130651,130.774484 50.1041254,136.581261 C49.8225536,137.258693 50.1354269,138.000607 50.7611733,138.290996 C50.9175391,138.355479 51.1052064,138.387792 51.2617138,138.387792 C51.7309529,138.387792 52.2001919,138.097404 52.4191607,137.613565 Z" id="Fill-71-Copy" fill="#01151D"></path>
                <path d="M80.0047469,129.457751 C80.0047469,132.009328 80.0047469,132.009328 80.0047469,132.009328 C80.0047469,132.789107 80.7891254,133.426966 81.7478573,133.426966 C82.7067309,133.426966 83.4911094,132.789107 83.4911094,132.009328 C83.4911094,126.409951 83.4911094,126.409951 83.4911094,126.409951 C83.4911094,125.842981 83.0989202,125.3469 82.4451298,125.098789 C81.7914811,124.886122 81.0505849,125.0279 80.5276659,125.417647 C78.5229544,127.047952 78.5229544,127.047952 78.5229544,127.047952 C77.8256819,127.614922 77.8256819,128.500892 78.5229544,129.068004 C78.9151436,129.386862 79.4816863,129.52864 80.0047469,129.457751 Z" id="Fill-72-Copy" fill="#01151D"></path>
                <text id="DISPATCH-NOTIFICATIO" font-family="LucidaGrande, Lucida Grande" font-size="12" font-weight="normal" line-spacing="20" letter-spacing="-0.0004" fill="#FFFFFF">
                    <tspan x="35.7091516" y="232">D</tspan>
                    <tspan x="44.6970328" y="232" letter-spacing="-0.0244">I</tspan>
                    <tspan x="48.1296641" y="232">S</tspan>
                    <tspan x="54.5921547" y="232" letter-spacing="-0.8404">P</tspan>
                    <tspan x="60.3845672" y="232" letter-spacing="-0.8884">A</tspan>
                    <tspan x="67.7754641" y="232" letter-spacing="-0.2044">T</tspan>
                    <tspan x="75.1589547" y="232" letter-spacing="-0.0124">C</tspan>
                    <tspan x="83.4492891" y="232" letter-spacing="0.0236">H</tspan>
                    <tspan x="92.2912484" y="232"> </tspan>
                    <tspan x="21.53385" y="252">NOTIFICATION </tspan>
                    <tspan x="32.1969125" y="272">AND FORM</tspan>
                </text>
                <text id="4-copy" font-family="LucidaGrande, Lucida Grande" font-size="64" font-weight="normal" fill="#FFFFFF">
                    <tspan x="48" y="78">4</tspan>
                </text>
            </g>
        </g>
    </g>
</svg>