<?xml version="1.0" encoding="UTF-8"?>
<svg width="137px" height="344px" viewBox="0 0 137 344" version="1.1" xmlns="http://www.w3.org/2000/svg" xmlns:xlink="http://www.w3.org/1999/xlink">
    <!-- Generator: Sketch 51.1 (57501) - http://www.bohemiancoding.com/sketch -->
    <title>5</title>
    <desc>Created with Sketch.</desc>
    <defs></defs>
    <g id="Symbols" stroke="none" stroke-width="1" fill="none" fill-rule="evenodd">
        <g id="ComplianceDiagram" transform="translate(-616.000000, 0.000000)">
            <g id="5" transform="translate(616.000000, 0.000000)">
                <rect id="Rectangle-Copy-2" fill="#0BD4D9" x="0" y="0" width="137" height="344" rx="8"></rect>
                <path d="M46.7163063,174.560903 C45.0307,172.425692 45.0307,172.425692 45.0307,172.425692 C44.6795851,171.98598 43.9772137,171.86043 43.4855963,172.174448 C42.9588531,172.519783 42.8534762,173.14782 43.2045911,173.587389 C44.8901974,175.7226 44.8901974,175.7226 44.8901974,175.7226 C45.1360769,176.005302 45.4520662,176.130852 45.803181,176.130852 C46.0490606,176.130852 46.2598145,176.068077 46.4704267,175.942384 C46.9620442,175.628508 47.1025468,175.000471 46.7163063,174.560903 Z" id="Fill-51-Copy" fill="#021A24"></path>
                <path d="M61.2097216,175.114626 C59.1360335,165.765961 59.1360335,165.765961 59.1360335,165.765961 C58.1578974,161.203869 55.3799967,157.2775 51.3500364,154.697311 C46.9679699,151.892783 46.9679699,151.892783 46.9679699,151.892783 C45.2072967,150.770943 42.8596851,150.995282 41.3729353,152.416194 C41.3729353,138.019463 41.3729353,138.019463 41.3729353,138.019463 C41.3729353,136.112434 40.0426929,134.504478 38.0864208,134.093094 C36.8343613,133.831317 35.5823019,134.130532 34.5650743,134.878425 C33.5869383,135.663613 33,136.785453 33,138.019463 C33,156.567044 33,156.567044 33,156.567044 C33,158.997626 33.7825372,161.316039 35.269287,163.297941 C37.4994825,166.326952 37.4994825,166.326952 37.4994825,166.326952 C37.7341729,166.663461 38.1255123,166.813068 38.51671,166.813068 C38.751542,166.813068 39.0253238,166.738193 39.2210643,166.588729 C39.807861,166.214782 39.925277,165.466889 39.5340792,164.943335 C37.3038836,161.914325 37.3038836,161.914325 37.3038836,161.914325 C36.1300071,160.343806 35.504119,158.51151 35.504119,156.567044 C35.504119,138.019463 35.504119,138.019463 35.504119,138.019463 C35.504119,137.533346 35.7388093,137.04723 36.1300071,136.748016 C36.5213465,136.448944 37.0690517,136.336774 37.538574,136.448944 C38.3211112,136.598551 38.8688164,137.234132 38.8688164,138.019463 C38.8688164,152.715408 38.8688164,152.715408 38.8688164,152.715408 C38.8688164,154.809481 39.6905866,156.791384 41.138245,158.361903 C41.2164279,158.39934 41.2555193,158.474073 41.3338439,158.548947 C42.1554725,159.40901 43.1336086,160.381243 44.0726532,161.316039 C45.3638041,162.624923 45.3638041,162.624923 45.3638041,162.624923 C45.3638041,162.624923 45.3638041,162.662218 45.3638041,162.662218 C46.4593561,163.784058 47.2809848,164.606826 47.2809848,164.606826 C47.7505071,165.092942 48.5721357,165.130237 49.0807494,164.681558 C49.5502717,164.232879 49.5893632,163.447549 49.1198409,162.961432 C49.0807494,162.961432 47.6330911,161.465646 45.9506007,159.74552 C43.0945171,156.828821 43.0945171,156.828821 43.0945171,156.828821 C43.0945171,156.828821 43.055284,156.828821 43.055284,156.828821 C42.3901628,156.043491 42.3901628,154.921651 43.0945171,154.173758 C43.7205468,153.500739 44.7768658,153.388569 45.559403,153.874686 C49.9414695,156.679214 49.9414695,156.679214 49.9414695,156.679214 C53.4237245,158.922894 55.849519,162.325709 56.710239,166.252077 C58.7448357,175.600743 58.7448357,175.600743 58.7448357,175.600743 C58.8622517,176.161591 59.4099569,176.535538 59.9576621,176.535538 C60.0359866,176.535538 60.1534026,176.535538 60.2315855,176.535538 C60.8967067,176.385931 61.3271375,175.750207 61.2097216,175.114626 Z" id="Fill-52-Copy" fill="#021A24"></path>
                <path d="M44.2774944,168.581467 C44.2774944,168.539617 44.2774944,168.539617 44.2774944,168.539617 C43.8840304,167.95343 43.0972442,167.82788 42.5070483,168.246523 C41.9562271,168.665167 41.8382446,169.502597 42.2317085,170.130491 C42.2317085,170.130491 42.2317085,170.130491 42.2317085,170.130491 C42.4676735,170.507427 42.8611375,170.674828 43.2546014,170.674828 C43.5299412,170.674828 43.7660479,170.591127 44.0021546,170.423585 C44.5529758,170.004941 44.6709583,169.167653 44.2774944,168.581467 Z" id="Fill-53-Copy" fill="#021A24"></path>
                <path d="M94.3059061,134.878425 C93.3766344,134.130532 92.1500693,133.831317 90.9606128,134.093094 C89.1393195,134.504478 87.8383957,136.112434 87.8383957,138.019463 C87.8383957,152.416194 87.8383957,152.416194 87.8383957,152.416194 C86.4631132,150.995282 84.1958091,150.770943 82.5230916,151.892783 C78.3601355,154.697311 78.3601355,154.697311 78.3601355,154.697311 C74.5317229,157.2775 71.9297336,161.203869 70.9633533,165.765961 C69.0305928,175.114626 69.0305928,175.114626 69.0305928,175.114626 C68.8818753,175.750207 69.2907775,176.385931 69.9226143,176.535538 C70.0340816,176.535538 70.1084403,176.535538 70.1827991,176.535538 C70.7404188,176.535538 71.2235381,176.161591 71.3350054,175.600743 C73.3050162,166.252077 73.3050162,166.252077 73.3050162,166.252077 C74.1228206,162.325709 76.3901247,158.922894 79.6981678,156.679214 C83.8612656,153.874686 83.8612656,153.874686 83.8612656,153.874686 C84.6045697,153.388569 85.6082002,153.500739 86.2029284,154.173758 C86.8720154,154.921651 86.8720154,156.043491 86.240037,156.828821 C86.240037,156.828821 86.240037,156.828821 86.240037,156.828821 C86.240037,156.828821 80.5159723,162.961432 80.4787221,162.961432 C80.0327113,163.447549 80.0699615,164.232879 80.5530809,164.681558 C81.0363418,165.130237 81.7797875,165.092942 82.2257983,164.606826 C82.2629069,164.606826 87.09495,159.40901 87.9127545,158.548947 C87.949863,158.474073 88.0242217,158.39934 88.0613303,158.361903 C89.473863,156.791384 90.2171671,154.809481 90.2171671,152.715408 C90.2171671,138.019463 90.2171671,138.019463 90.2171671,138.019463 C90.2171671,137.234132 90.7375366,136.598551 91.4809823,136.448944 C91.9642433,136.336774 92.4473626,136.448944 92.8191563,136.748016 C93.2279169,137.04723 93.4137429,137.533346 93.4137429,138.019463 C93.4137429,156.567044 93.4137429,156.567044 93.4137429,156.567044 C93.4137429,158.51151 92.8562649,160.343806 91.7411671,161.914325 C82.7461678,174.665805 82.7461678,174.665805 82.7461678,174.665805 C82.3743742,175.189359 82.4859831,175.937252 83.0434612,176.311199 C83.2292872,176.460806 83.4894719,176.535538 83.7125481,176.535538 C84.0842002,176.535538 84.4559939,176.385931 84.6789284,176.049422 C93.6739277,163.297941 93.6739277,163.297941 93.6739277,163.297941 C95.0864604,161.316039 95.7926559,158.997626 95.7926559,156.567044 C95.7926559,138.019463 95.7926559,138.019463 95.7926559,138.019463 C95.7926559,136.785453 95.2722864,135.663613 94.3059061,134.878425 Z" id="Fill-54-Copy" fill="#021A24"></path>
                <path d="M79.5811429,138.34767 C77.391,137.835165 77.391,137.835165 77.391,137.835165 C77.391,137.40143 77.391,137.40143 77.391,137.40143 C78.8127143,136.415735 79.7348571,134.720396 79.7348571,132.788461 C79.7348571,129.870974 79.7348571,129.870974 79.7348571,129.870974 C79.7348571,126.756204 77.2757143,124.232996 74.2401429,124.232996 C72.8568571,124.232996 71.6272857,124.7455 70.6667143,125.573513 C69.5907143,122.892478 67.0162857,121 64.0191429,121 C60.9837143,121 58.4092857,122.892478 57.3332857,125.61297 C56.3727143,124.7455 55.1431429,124.232996 53.7598571,124.232996 C50.7242857,124.232996 48.2651429,126.756204 48.2651429,129.870974 C48.2651429,132.788461 48.2651429,132.788461 48.2651429,132.788461 C48.2651429,134.720396 49.1872857,136.415735 50.609,137.40143 C50.609,137.835165 50.609,137.835165 50.609,137.835165 C48.4188571,138.34767 48.4188571,138.34767 48.4188571,138.34767 C45.806,139.017857 44,141.383526 44,144.14333 C44,146.469543 44,146.469543 44,146.469543 C44,147.179187 44.538,147.731148 45.2295714,147.731148 C50.878,147.731148 50.878,147.731148 50.878,147.731148 C50.878,147.88883 50.878,148.046657 50.878,148.204339 C50.878,152.738396 50.878,152.738396 50.878,152.738396 C50.878,153.448039 51.416,154 52.1075714,154 C59.4851429,154 59.4851429,154 59.4851429,154 C60.1767143,154 60.7147143,153.448039 60.7147143,152.738396 C60.7147143,152.028609 60.1767143,151.476648 59.4851429,151.476648 C58.2171429,151.476648 58.2171429,151.476648 58.2171429,151.476648 C58.2171429,148.874526 58.2171429,148.874526 58.2171429,148.874526 C58.2171429,148.164883 57.6407143,147.612922 56.9875714,147.612922 C56.2958571,147.612922 55.7578571,148.164883 55.7578571,148.874526 C55.7578571,151.476648 55.7578571,151.476648 55.7578571,151.476648 C53.3371429,151.476648 53.3371429,151.476648 53.3371429,151.476648 C53.3371429,148.204339 53.3371429,148.204339 53.3371429,148.204339 C53.3371429,145.7599 54.9125714,143.670283 57.218,143.118322 C60.5994286,142.290309 60.5994286,142.290309 60.5994286,142.290309 C62.8664286,147.534009 62.8664286,147.534009 62.8664286,147.534009 C63.0585714,148.0072 63.5197143,148.322565 63.9808571,148.322565 C63.9808571,148.322565 63.9808571,148.322565 63.9808571,148.322565 C64.4802857,148.322565 64.9414286,148.0072 65.1335714,147.534009 C67.3621429,142.290309 67.3621429,142.290309 67.3621429,142.290309 C70.7435714,143.118322 70.7435714,143.118322 70.7435714,143.118322 C73.049,143.670283 74.6628571,145.7599 74.6628571,148.204339 C74.6628571,151.476648 74.6628571,151.476648 74.6628571,151.476648 C72.2421429,151.476648 72.2421429,151.476648 72.2421429,151.476648 C72.2421429,148.874526 72.2421429,148.874526 72.2421429,148.874526 C72.2421429,148.164883 71.6657143,147.612922 71.0124286,147.612922 C70.3208571,147.612922 69.7828571,148.164883 69.7828571,148.874526 C69.7828571,151.476648 69.7828571,151.476648 69.7828571,151.476648 C68.3611429,151.476648 68.3611429,151.476648 68.3611429,151.476648 C67.708,151.476648 67.1315714,152.028609 67.1315714,152.738396 C67.1315714,153.448039 67.708,154 68.3611429,154 C75.8924286,154 75.8924286,154 75.8924286,154 C76.584,154 77.122,153.448039 77.122,152.738396 C77.122,148.204339 77.122,148.204339 77.122,148.204339 C77.122,148.046657 77.122,147.88883 77.122,147.731148 C82.7704286,147.731148 82.7704286,147.731148 82.7704286,147.731148 C83.462,147.731148 84,147.179187 84,146.469543 C84,144.14333 84,144.14333 84,144.14333 C84,141.383526 82.1555714,139.017857 79.5811429,138.34767 Z M74.2401429,126.756204 C75.854,126.756204 77.1604286,128.057409 77.2757143,129.673835 C75.5465714,129.673835 75.5465714,129.673835 75.5465714,129.673835 C74.1248571,129.673835 72.7031429,129.319013 71.4351429,128.648683 C71.8962857,127.544761 72.9721429,126.756204 74.2401429,126.756204 Z M71.1661429,132.591465 C71.1661429,132.552009 71.2045714,132.473096 71.2045714,132.433639 C71.2045714,131.290261 71.2045714,131.290261 71.2045714,131.290261 C72.5494286,131.881678 74.048,132.197187 75.5465714,132.197187 C77.2757143,132.197187 77.2757143,132.197187 77.2757143,132.197187 C77.2757143,132.788461 77.2757143,132.788461 77.2757143,132.788461 C77.2757143,134.523257 75.8924286,135.90323 74.2401429,135.90323 C72.5494286,135.90323 71.1661429,134.523257 71.1661429,132.788461 L71.1661429,132.591465 Z M59.293,128.372774 C59.293,125.691739 61.4062857,123.523352 64.0191429,123.523352 C66.3631429,123.523352 68.3227143,125.297461 68.6685714,127.584217 C66.5937143,126.36207 66.5937143,126.36207 66.5937143,126.36207 C66.0941429,126.046561 65.4024286,126.16493 65.0182857,126.637978 C64.0191429,127.86027 62.5207143,128.569913 60.9452857,128.569913 C59.293,128.569913 59.293,128.569913 59.293,128.569913 L59.293,128.372774 Z M53.7598571,126.756204 C55.0278571,126.756204 56.1037143,127.544761 56.5648571,128.648683 C55.2968571,129.319013 53.8751429,129.673835 52.4534286,129.673835 C50.7242857,129.673835 50.7242857,129.673835 50.7242857,129.673835 C50.8395714,128.057409 52.146,126.756204 53.7598571,126.756204 Z M50.7242857,132.197187 C52.4534286,132.197187 52.4534286,132.197187 52.4534286,132.197187 C53.952,132.197187 55.4121429,131.881678 56.7954286,131.290261 C56.7954286,132.788461 56.7954286,132.788461 56.7954286,132.788461 C56.7954286,134.523257 55.4505714,135.90323 53.7598571,135.90323 C52.1075714,135.90323 50.7242857,134.523257 50.7242857,132.788461 L50.7242857,132.197187 Z M56.6801429,140.673883 C54.2594286,141.2653 52.3381429,142.999952 51.4544286,145.207939 C46.4591429,145.207939 46.4591429,145.207939 46.4591429,145.207939 C46.4591429,144.14333 46.4591429,144.14333 46.4591429,144.14333 C46.4591429,142.526904 47.4965714,141.186387 48.9951429,140.831565 C52.146,140.043009 52.146,140.043009 52.146,140.043009 C52.684,139.924783 53.0681429,139.412135 53.0681429,138.820861 C53.0681429,138.387126 53.0681429,138.387126 53.0681429,138.387126 C53.2987143,138.426583 53.5292857,138.426583 53.7598571,138.426583 C53.9904286,138.426583 54.221,138.426583 54.4514286,138.387126 C54.4514286,138.741948 54.4514286,138.741948 54.4514286,138.741948 C54.4514286,138.781404 54.4514286,138.781404 54.4514286,138.820861 C54.4514286,139.214996 54.6435714,139.64873 55.0278571,139.885326 C55.1431429,139.964096 55.2968571,140.043009 55.4505714,140.043009 C57.2948571,140.5162 57.2948571,140.5162 57.2948571,140.5162 L56.6801429,140.673883 Z M60.0998571,138.702491 C59.7925714,138.544809 59.4467143,138.426583 59.1008571,138.34767 C56.9107143,137.835165 56.9107143,137.835165 56.9107143,137.835165 C56.9107143,137.440887 56.9107143,137.440887 56.9107143,137.440887 C57.2948571,137.125378 57.6791429,136.810013 57.9865714,136.415735 C58.5244286,137.283204 59.2545714,138.032304 60.0998571,138.584265 L60.0998571,138.702491 Z M65.4408571,140.555513 C63.9808571,143.906878 63.9808571,143.906878 63.9808571,143.906878 C62.5591429,140.555513 62.5591429,140.555513 62.5591429,140.555513 C62.5591429,139.64873 62.5591429,139.64873 62.5591429,139.64873 C63.0201429,139.727643 63.5197143,139.806413 64.0191429,139.806413 C64.4802857,139.806413 64.9798571,139.727643 65.4408571,139.64873 L65.4408571,140.555513 Z M64.0191429,137.283204 C61.4062857,137.283204 59.293,135.114674 59.293,132.433639 C59.293,131.093122 59.293,131.093122 59.293,131.093122 C60.9452857,131.093122 60.9452857,131.093122 60.9452857,131.093122 C62.9048571,131.093122 64.7492857,130.344022 66.171,129.003648 C68.707,130.541161 68.707,130.541161 68.707,130.541161 C68.707,132.591465 68.707,132.591465 68.707,132.591465 C68.6301429,135.193587 66.5552857,137.283204 64.0191429,137.283204 Z M67.9001429,138.702491 C67.9001429,138.623722 67.9001429,138.623722 67.9001429,138.623722 C68.7454286,138.071617 69.4755714,137.322517 70.0134286,136.455191 C70.3208571,136.810013 70.7051429,137.125378 71.0892857,137.440887 C71.0892857,137.835165 71.0892857,137.835165 71.0892857,137.835165 C68.8991429,138.34767 68.8991429,138.34767 68.8991429,138.34767 C68.5532857,138.426583 68.2074286,138.544809 67.9001429,138.702491 Z M81.5408571,145.207939 C76.5455714,145.207939 76.5455714,145.207939 76.5455714,145.207939 C75.6234286,142.999952 73.7405714,141.2653 71.3198571,140.673883 C70.7051429,140.5162 70.7051429,140.5162 70.7051429,140.5162 C72.5494286,140.043009 72.5494286,140.043009 72.5494286,140.043009 C72.7031429,140.043009 72.8568571,139.964096 72.9721429,139.885326 C73.3564286,139.64873 73.5485714,139.214996 73.5485714,138.820861 C73.5485714,138.820861 73.5485714,138.781404 73.5485714,138.781404 C73.5485714,138.387126 73.5485714,138.387126 73.5485714,138.387126 C73.779,138.426583 74.0095714,138.426583 74.2401429,138.426583 C74.4707143,138.426583 74.7012857,138.426583 74.9318571,138.387126 C74.9318571,138.820861 74.9318571,138.820861 74.9318571,138.820861 C74.9318571,139.412135 75.316,139.924783 75.854,140.043009 C79.0048571,140.831565 79.0048571,140.831565 79.0048571,140.831565 C80.5034286,141.186387 81.5408571,142.526904 81.5408571,144.14333 L81.5408571,145.207939 Z" id="Fill-55-Copy" fill="#021A24"></path>
                <path d="M65.5782,151.42195 C65.29695,151.1875 64.92195,151 64.5,151 C64.125,151 63.75,151.1875 63.46875,151.42195 C63.1875,151.7032 63,152.125 63,152.5 C63,152.92195 63.1875,153.29695 63.46875,153.5782 C63.75,153.85945 64.125,154 64.5,154 C64.92195,154 65.29695,153.85945 65.5782,153.5782 C65.85945,153.29695 66,152.92195 66,152.5 C66,152.125 65.85945,151.7032 65.5782,151.42195 Z" id="Fill-56-Copy" fill="#021A24"></path>
                <path d="M64.5,115 C63.7032,115 63,115.5 63,116.1428 C63,117.8572 63,117.8572 63,117.8572 C63,118.5 63.7032,119 64.5,119 C65.34375,119 66,118.5 66,117.8572 C66,116.1428 66,116.1428 66,116.1428 C66,115.5 65.34375,115 64.5,115 Z" id="Fill-57-Copy" fill="#021A24"></path>
                <path d="M60.3936033,118.807492 C59.4947832,117.412202 59.4947832,117.412202 59.4947832,117.412202 C59.140694,116.862599 58.5959632,116.862599 58.241874,117.412202 C57.9149788,117.919671 57.9149788,118.807492 58.269068,119.31496 C59.1678881,120.752527 59.1678881,120.752527 59.1678881,120.752527 C59.3313357,121.00619 59.576507,121.133021 59.7943427,121.133021 C60.0123201,121.133021 60.2301557,121.00619 60.3936033,120.752527 C60.7476925,120.202781 60.7476925,119.357237 60.3936033,118.807492 Z" id="Fill-58-Copy" fill="#021A24"></path>
                <path d="M72.5851533,117.412202 C72.0948106,116.862599 71.2369232,116.862599 70.7465805,117.412202 C69.3983504,118.807492 69.3983504,118.807492 69.3983504,118.807492 C68.8672165,119.357237 68.8672165,120.202781 69.3983504,120.710249 C69.6435217,121.00619 69.9702753,121.133021 70.2971704,121.133021 C70.6240656,121.133021 70.9917519,121.00619 71.2369232,120.710249 C72.5851533,119.31496 72.5851533,119.31496 72.5851533,119.31496 C73.1162872,118.765215 73.1162872,117.919671 72.5851533,117.412202 Z" id="Fill-59-Copy" fill="#021A24"></path>
                <text id="SUPPORT-CONTRACTORS" font-family="LucidaGrande, Lucida Grande" font-size="12" font-weight="normal" line-spacing="20" letter-spacing="-0.0007" fill="#FFFFFF">
                    <tspan x="43.2322922" y="228">SUPPORT </tspan>
                    <tspan x="24.8993578" y="248">CONTRACTORS</tspan>
                    <tspan x="41.3514328" y="268">DIRECTLY</tspan>
                </text>
                <text id="5-copy" font-family="LucidaGrande, Lucida Grande" font-size="64" font-weight="normal" fill="#FFFFFF">
                    <tspan x="50" y="78">5</tspan>
                </text>
            </g>
        </g>
    </g>
</svg>