<?xml version="1.0" encoding="UTF-8"?>
<svg width="137px" height="344px" viewBox="0 0 137 344" version="1.1" xmlns="http://www.w3.org/2000/svg" xmlns:xlink="http://www.w3.org/1999/xlink">
    <!-- Generator: Sketch 51.1 (57501) - http://www.bohemiancoding.com/sketch -->
    <title>6</title>
    <desc>Created with Sketch.</desc>
    <defs></defs>
    <g id="Symbols" stroke="none" stroke-width="1" fill="none" fill-rule="evenodd">
        <g id="ComplianceDiagram" transform="translate(-770.000000, 0.000000)">
            <g id="6" transform="translate(770.000000, 0.000000)">
                <rect id="Rectangle-Copy" fill="#0BD4D9" x="0" y="0" width="137" height="344" rx="8"></rect>
                <path d="M67.0184,142 C65.8808,142 65,143.1598 65,144.5515 C65,145.5721 65.4770667,146.40715 66.1376,146.82475 C66.1376,149.93305 66.1376,149.93305 66.1376,149.93305 C66.1376,150.4897 66.5413333,151 67.0184,151 C67.4954667,151 67.8624,150.4897 67.8624,149.93305 C67.8624,146.82475 67.8624,146.82475 67.8624,146.82475 C68.5229333,146.40715 69,145.5721 69,144.5515 C69,143.1598 68.1192,142 67.0184,142 Z" id="Fill-46-Copy" fill="#071F1C"></path>
                <path d="M90.1717143,127.955508 C86.1574286,126.349887 83.0174286,123.419364 81.229,119.686031 C80.752,118.642277 79.7185714,118 78.6057143,118 C55.3942857,118 55.3942857,118 55.3942857,118 C54.2417143,118 53.2082857,118.642277 52.7312857,119.686031 C50.9825714,123.419364 47.8028571,126.349887 43.8282857,127.955508 C42.7154286,128.39719 42,129.481005 42,130.685292 C42,136.385662 42,136.385662 42,136.385662 C42,143.852328 44.1462857,151.27879 48.24,157.741908 C52.3338571,164.325497 58.3354286,169.784923 65.5294286,173.598523 C65.6088571,173.67879 65.6088571,173.67879 65.6088571,173.67879 C66.0461429,173.919733 66.523,174 67,174 C67.477,174 67.9141429,173.919733 68.3512857,173.67879 C68.4705714,173.598523 68.4705714,173.598523 68.4705714,173.598523 C75.6645714,169.784923 81.6264286,164.325497 85.76,157.741908 C89.8537143,151.238728 92,143.852328 92,136.385662 C92,130.685292 92,130.685292 92,130.685292 C92,129.481005 91.2845714,128.39719 90.1717143,127.955508 Z M90.132,136.385662 C90.132,143.531118 88.0651429,150.556246 84.1701429,156.738359 C80.2352857,163.0408 74.5118571,168.299631 67.5961429,171.952697 C67.477,172.032964 67.477,172.032964 67.477,172.032964 C67.159,172.193497 66.8012857,172.193497 66.4832857,172.032964 C66.364,171.952697 66.364,171.952697 66.364,171.952697 C59.4881429,168.299631 53.725,163.0408 49.7901429,156.738359 C45.8951429,150.556246 43.8282857,143.531118 43.8282857,136.385662 C43.8282857,130.685292 43.8282857,130.685292 43.8282857,130.685292 C43.8282857,130.243754 44.1065714,129.842277 44.504,129.681744 C48.9157143,127.915446 52.4531429,124.663856 54.4005714,120.488841 C54.5994286,120.127569 54.9571429,119.886769 55.3942857,119.886769 C78.6057143,119.886769 78.6057143,119.886769 78.6057143,119.886769 C79.0031429,119.886769 79.4005714,120.127569 79.5595714,120.488841 C81.5071429,124.663856 85.0445714,127.915446 89.4562857,129.681744 C89.8934286,129.842277 90.132,130.243754 90.132,130.685292 L90.132,136.385662 Z" id="Fill-47-Copy" fill="#071F1C"></path>
                <path d="M93.7354686,145.062406 C93.2636801,144.985823 92.7525169,145.253863 92.6739091,145.751652 C89.8824114,157.775453 81.3508441,168.229304 69.3201671,174.39437 C66.528811,175.811153 66.528811,175.811153 66.528811,175.811153 C66.3322207,175.887736 66.1356303,175.887736 65.93904,175.811153 C63.1476839,174.39437 63.1476839,174.39437 63.1476839,174.39437 C51.1170069,168.191012 42.5854396,157.737161 39.8333166,145.713361 C39.715334,145.215572 39.2041708,144.90924 38.7323824,145.024115 C38.2213608,145.138989 37.9067879,145.598487 38.0247705,146.096275 C40.9341091,158.656156 49.7802493,169.531213 62.3219478,175.964319 C65.1134456,177.381103 65.1134456,177.381103 65.1134456,177.381103 C65.4672515,177.57256 65.8604322,177.649143 66.2536129,177.649143 C66.6467935,177.649143 67.0398326,177.57256 67.3937801,177.381103 C70.1851363,175.964319 70.1851363,175.964319 70.1851363,175.964319 C82.6876017,169.569504 91.5337419,158.694448 94.4430805,146.134567 C94.561063,145.675069 94.2464902,145.177281 93.7354686,145.062406 Z" id="Fill-48-Copy" fill="#071F1C"></path>
                <path d="M94.2866784,124.706091 C89.3261717,124.184814 85.4056959,120.656307 84.7656442,116.165246 C84.6055959,114.922269 83.5254822,114 82.2853201,114 C51.2016688,114 51.2016688,114 51.2016688,114 C49.9615067,114 48.9213342,114.922269 48.7213446,116.165246 C48.1213758,120.656307 44.2009,124.184814 39.2003104,124.706091 C37.9601483,124.826374 37,125.909068 37,127.192188 C37,137.216719 37,137.216719 37,137.216719 C37,138.700264 37.0800242,140.143809 37.2400725,141.627496 C37.2800138,142.10863 37.6801346,142.429339 38.1601379,142.429339 C38.2000792,142.429339 38.2000792,142.429339 38.2401621,142.429339 C38.7602483,142.389339 39.1202862,141.948204 39.0802033,141.426928 C38.920155,140.023525 38.8802138,138.620122 38.8802138,137.216719 C38.8802138,127.192188 38.8802138,127.192188 38.8802138,127.192188 C38.8802138,126.871479 39.1202862,126.59077 39.4003,126.550628 C45.2409309,125.94921 49.8415413,121.779001 50.6015584,116.445955 C50.6416413,116.125247 50.8815721,115.884537 51.2016688,115.884537 C82.2853201,115.884537 82.2853201,115.884537 82.2853201,115.884537 C82.6054167,115.884537 82.8854305,116.125247 82.9253717,116.445955 C83.6855305,121.779001 88.246058,125.94921 94.0866888,126.550628 C94.4067855,126.59077 94.6467164,126.871479 94.6467164,127.192188 C94.6467164,137.216719 94.6467164,137.216719 94.6467164,137.216719 C94.6467164,138.620122 94.5668338,139.983383 94.4467268,141.386786 C94.3667026,141.868063 94.7668234,142.349197 95.2468268,142.389339 C95.766913,142.469481 96.2469164,142.068488 96.2869993,141.547212 C96.4470476,140.143809 96.4869888,138.660122 96.4869888,137.216719 C96.4869888,127.192188 96.4869888,127.192188 96.4869888,127.192188 C96.4869888,125.909068 95.5669234,124.826374 94.2866784,124.706091 Z" id="Fill-49-Copy" fill="#071F1C"></path>
                <path d="M77.0660947,135.800182 C75.5198474,135.800182 75.5198474,135.800182 75.5198474,135.800182 C75.5198474,131.608982 75.5198474,131.608982 75.5198474,131.608982 C75.5198474,126.851468 71.4758158,123 66.5198947,123 C61.5241842,123 57.4801526,126.851468 57.4801526,131.608982 C57.4801526,135.800182 57.4801526,135.800182 57.4801526,135.800182 C55.9339053,135.800182 55.9339053,135.800182 55.9339053,135.800182 C54.3480105,135.800182 53,137.046241 53,138.594409 C53,151.205914 53,151.205914 53,151.205914 C53,152.753941 54.3480105,154 55.9339053,154 C77.0660947,154 77.0660947,154 77.0660947,154 C78.6916368,154 80,152.753941 80,151.205914 C80,138.594409 80,138.594409 80,138.594409 C80,137.046241 78.6916368,135.800182 77.0660947,135.800182 Z M59.3039316,131.608982 C59.3039316,127.833182 62.5550158,124.736845 66.5198947,124.736845 C70.4846316,124.736845 73.6960684,127.833182 73.6960684,131.608982 C73.6960684,135.800182 73.6960684,135.800182 73.6960684,135.800182 C59.3039316,135.800182 59.3039316,135.800182 59.3039316,135.800182 L59.3039316,131.608982 Z M78.1365737,151.205914 C78.1365737,151.772227 77.6608053,152.225391 77.0660947,152.225391 C55.9339053,152.225391 55.9339053,152.225391 55.9339053,152.225391 C55.3391947,152.225391 54.8634263,151.772227 54.8634263,151.205914 C54.8634263,138.594409 54.8634263,138.594409 54.8634263,138.594409 C54.8634263,138.027955 55.3391947,137.574932 55.9339053,137.574932 C77.0660947,137.574932 77.0660947,137.574932 77.0660947,137.574932 C77.6608053,137.574932 78.1365737,138.027955 78.1365737,138.594409 L78.1365737,151.205914 Z" id="Fill-50-Copy" fill="#071F1C"></path>
                <text id="COLLECT-AND-STORE-DA" font-family="LucidaGrande, Lucida Grande" font-size="12" font-weight="normal" line-spacing="20" letter-spacing="-0.0105" fill="#FFFFFF">
                    <tspan x="25.3539531" y="226">C</tspan>
                    <tspan x="33.6461875" y="226" letter-spacing="0.1695">O</tspan>
                    <tspan x="43.1379531" y="226" letter-spacing="0.0735">LL</tspan>
                    <tspan x="56.0818281" y="226">E</tspan>
                    <tspan x="62.5752344" y="226" letter-spacing="0.1575">C</tspan>
                    <tspan x="71.0354688" y="226" letter-spacing="0.1455">T</tspan>
                    <tspan x="78.7688594" y="226"> AND </tspan>
                    <tspan x="29.8595078" y="246">STORE DATA </tspan>
                    <tspan x="38.2666094" y="266">SECURELY</tspan>
                </text>
                <text id="6-copy" font-family="LucidaGrande, Lucida Grande" font-size="64" font-weight="normal" fill="#FFFFFF">
                    <tspan x="50" y="78">6</tspan>
                </text>
            </g>
        </g>
    </g>
</svg>