<?xml version="1.0" encoding="UTF-8"?>
<svg width="137px" height="344px" viewBox="0 0 137 344" version="1.1" xmlns="http://www.w3.org/2000/svg" xmlns:xlink="http://www.w3.org/1999/xlink">
    <!-- Generator: Sketch 51.1 (57501) - http://www.bohemiancoding.com/sketch -->
    <title>7</title>
    <desc>Created with Sketch.</desc>
    <defs></defs>
    <g id="Symbols" stroke="none" stroke-width="1" fill="none" fill-rule="evenodd">
        <g id="ComplianceDiagram" transform="translate(-924.000000, 0.000000)">
            <g id="7" transform="translate(924.000000, 0.000000)">
                <rect id="Rectangle" fill="#26D48F" x="0" y="0" width="137" height="344" rx="8"></rect>
                <path d="M96.6592818,126.209388 C85.6447,115.335216 85.6447,115.335216 85.6447,115.335216 C85.4175545,115.111786 85.1147409,115 84.7741636,115 C52.1844273,115 52.1844273,115 52.1844273,115 C51.5408955,115 50.9731727,115.521337 50.9731727,116.191628 C50.9731727,123.8633 50.9731727,123.8633 50.9731727,123.8633 C46.6202091,124.459114 42.8351091,126.954156 40.2991682,129.114123 C38.6337636,130.492014 37.3846045,131.869905 36.5897364,132.763767 C35,134.625828 35,134.923735 35,135.221642 C35,135.556716 35,135.817456 36.5897364,137.679516 C37.3846045,138.573237 38.6715273,139.951128 40.2991682,141.366328 C43.1758273,143.824202 47.7178909,146.766247 52.8657227,146.766247 C58.0134136,146.766247 62.5556182,143.824202 65.4322773,141.366328 C67.0976818,139.988437 68.3467,138.610547 69.1415682,137.716684 C70.7314455,135.854765 70.7314455,135.556716 70.7314455,135.221642 C70.7314455,134.923735 70.7314455,134.662995 69.1415682,132.800935 C68.3467,131.907214 67.0597773,130.529323 65.4322773,129.114123 C62.6312864,126.768035 58.3162273,123.937777 53.3955409,123.751514 C53.3955409,117.383398 53.3955409,117.383398 53.3955409,117.383398 C83.5629091,117.383398 83.5629091,117.383398 83.5629091,117.383398 C83.5629091,127.028633 83.5629091,127.028633 83.5629091,127.028633 C83.5629091,127.699065 84.1306318,128.220402 84.7741636,128.220402 C94.5774909,128.220402 94.5774909,128.220402 94.5774909,128.220402 C94.5774909,162.816907 94.5774909,162.816907 94.5774909,162.816907 C92.6092727,162.816907 92.6092727,162.816907 92.6092727,162.816907 C92.6092727,147.436537 92.6092727,147.436537 92.6092727,147.436537 C92.6092727,146.803414 92.0793136,146.244767 91.3980182,146.244767 C90.7167227,146.244767 90.1867636,146.803414 90.1867636,147.436537 C90.1867636,162.816907 90.1867636,162.816907 90.1867636,162.816907 C86.5531409,162.816907 86.5531409,162.816907 86.5531409,162.816907 C86.5531409,144.904186 86.5531409,144.904186 86.5531409,144.904186 C86.5531409,144.829709 86.5531409,144.717923 86.5152364,144.643447 C90.1867636,141.031112 90.1867636,141.031112 90.1867636,141.031112 C90.1867636,142.483479 90.1867636,142.483479 90.1867636,142.483479 C90.1867636,143.116602 90.7167227,143.675249 91.3980182,143.675249 C92.0793136,143.675249 92.6092727,143.116602 92.6092727,142.483479 C92.6092727,138.163686 92.6092727,138.163686 92.6092727,138.163686 C92.6092727,137.493253 92.0793136,136.971916 91.3980182,136.971916 C87.0451955,136.971916 87.0451955,136.971916 87.0451955,136.971916 C86.3639,136.971916 85.8339409,137.493253 85.8339409,138.163686 C85.8339409,138.833977 86.3639,139.355314 87.0451955,139.355314 C88.4834545,139.355314 88.4834545,139.355314 88.4834545,139.355314 C79.0586091,148.628165 79.0586091,148.628165 79.0586091,148.628165 C75.0086,144.643447 75.0086,144.643447 75.0086,144.643447 C74.7814545,144.420016 74.4407364,144.308372 74.1379227,144.308372 C73.8351091,144.308372 73.4945318,144.420016 73.2673864,144.643447 C64.1831182,153.581223 64.1831182,153.581223 64.1831182,153.581223 C63.7289682,154.065393 63.7289682,154.81016 64.1831182,155.257021 C64.4481682,155.51776 64.7509818,155.629405 65.0537955,155.629405 C65.3564682,155.629405 65.6592818,155.51776 65.9243318,155.257021 C65.9620955,155.219712 65.9620955,155.219712 65.9620955,155.219712 C65.9620955,162.816907 65.9620955,162.816907 65.9620955,162.816907 C65.0915591,162.816907 65.0915591,162.816907 65.0915591,162.816907 C64.4102636,162.816907 63.8803045,163.338244 63.8803045,164.008535 C63.8803045,164.641658 64.4102636,165.200305 65.0915591,165.200305 C94.5774909,165.200305 94.5774909,165.200305 94.5774909,165.200305 C94.5774909,173.616602 94.5774909,173.616602 94.5774909,173.616602 C53.3955409,173.616602 53.3955409,173.616602 53.3955409,173.616602 C53.3955409,170.041577 53.3955409,170.041577 53.3955409,170.041577 C53.3955409,169.408453 52.8657227,168.849807 52.1844273,168.849807 C51.5408955,168.849807 50.9731727,169.408453 50.9731727,170.041577 C50.9731727,174.808372 50.9731727,174.808372 50.9731727,174.808372 C50.9731727,175.478663 51.5408955,176 52.1844273,176 C95.7887455,176 95.7887455,176 95.7887455,176 C96.4700409,176 97,175.478663 97,174.808372 C97,127.028633 97,127.028633 97,127.028633 C97,126.730726 96.8864273,126.432819 96.6592818,126.209388 Z M63.5397273,130.678277 C65.7350909,132.46586 67.3248273,134.327779 68.0438864,135.258809 C67.3248273,136.152672 65.7350909,138.014591 63.5018227,139.839484 C61.0036455,141.924974 57.1428773,144.382849 52.8657227,144.382849 C48.5885682,144.382849 44.6898955,141.887665 42.1917182,139.802174 C39.9963545,138.014591 38.4066182,136.152672 37.6874182,135.221642 C38.4066182,134.327779 39.9963545,132.46586 42.2294818,130.640967 C44.7276591,128.555619 48.5885682,126.097744 52.8657227,126.097744 C57.1428773,126.097744 61.04155,128.592786 63.5397273,130.678277 Z M85.9854182,125.837005 C85.9854182,119.059195 85.9854182,119.059195 85.9854182,119.059195 C92.8741818,125.837005 92.8741818,125.837005 92.8741818,125.837005 L85.9854182,125.837005 Z M72.0183682,162.816907 C68.3846045,162.816907 68.3846045,162.816907 68.3846045,162.816907 C68.3846045,152.836456 68.3846045,152.836456 68.3846045,152.836456 C72.0183682,149.261288 72.0183682,149.261288 72.0183682,149.261288 L72.0183682,162.816907 Z M78.0745,162.816907 C74.4407364,162.816907 74.4407364,162.816907 74.4407364,162.816907 C74.4407364,147.473705 74.4407364,147.473705 74.4407364,147.473705 C78.0745,151.048872 78.0745,151.048872 78.0745,151.048872 L78.0745,162.816907 Z M84.1306318,162.816907 C80.4970091,162.816907 80.4970091,162.816907 80.4970091,162.816907 C80.4970091,150.564702 80.4970091,150.564702 80.4970091,150.564702 C84.1306318,146.989677 84.1306318,146.989677 84.1306318,146.989677 L84.1306318,162.816907 Z" id="Fill-33-Copy" fill="#062015"></path>
                <path d="M53.5,128 C49.9286111,128 47,131.14524 47,134.98082 C47,138.85476 49.9286111,142 53.5,142 C57.1072111,142 60,138.85476 60,134.98082 C60,131.14524 57.1072111,128 53.5,128 Z M53.5,139.54524 C51.1786333,139.54524 49.2856889,137.5123 49.2856889,134.98082 C49.2856889,132.4877 51.1786333,130.45476 53.5,130.45476 C55.8213667,130.45476 57.7143111,132.4877 57.7143111,134.98082 C57.7143111,137.5123 55.8213667,139.54524 53.5,139.54524 Z" id="Fill-34-Copy" fill="#062015"></path>
                <path d="M52.8594,133.46875 C52.7656,133.1875 52.625,133 52.5,133 C52.375,133 52.2344,133.1875 52.1406,133.46875 C52.0469,133.75 52,134.125 52,134.5 C52,134.92195 52.0469,135.29695 52.1406,135.5782 C52.2344,135.85945 52.375,136 52.5,136 C52.625,136 52.7656,135.85945 52.8594,135.5782 C52.9531,135.29695 53,134.92195 53,134.5 C53,134.125 52.9531,133.75 52.8594,133.46875 Z" id="Fill-35-Copy" fill="#062015"></path>
                <path d="M50.716925,158 C36.283075,158 36.283075,158 36.283075,158 C35.601375,158 35,158.65625 35,159.5 C35,160.29695 35.601375,161 36.283075,161 C50.716925,161 50.716925,161 50.716925,161 C51.4387167,161 52,160.29695 52,159.5 C52,158.65625 51.4387167,158 50.716925,158 Z" id="Fill-36-Copy" fill="#062015"></path>
                <path d="M57.0724,158 C54.9276,158 54.9276,158 54.9276,158 C54.4348,158 54,158.65625 54,159.5 C54,160.29695 54.4348,161 54.9276,161 C57.0724,161 57.0724,161 57.0724,161 C57.5942667,161 58,160.29695 58,159.5 C58,158.65625 57.5942667,158 57.0724,158 Z" id="Fill-37-Copy" fill="#062015"></path>
                <path d="M53.7425714,152 C36.2574286,152 36.2574286,152 36.2574286,152 C35.5894286,152 35,152.65625 35,153.5 C35,154.34375 35.5894286,155 36.2574286,155 C53.7425714,155 53.7425714,155 53.7425714,155 C54.4105714,155 55,154.34375 55,153.5 C55,152.65625 54.4105714,152 53.7425714,152 Z" id="Fill-38-Copy" fill="#062015"></path>
                <path d="M56.8594,152.42195 C56.7656,152.1407 56.6406,152 56.5,152 C56.375,152 56.2344,152.1407 56.1406,152.42195 C56.0625,152.7032 56,153.125 56,153.5 C56,153.875 56.0625,154.29695 56.1406,154.5782 C56.2344,154.85945 56.375,155 56.5,155 C56.6406,155 56.7656,154.85945 56.8594,154.5782 C56.9531,154.29695 57,153.875 57,153.5 C57,153.125 56.9531,152.7032 56.8594,152.42195 Z" id="Fill-39-Copy" fill="#062015"></path>
                <path d="M46.7080889,163 C36.2919111,163 36.2919111,163 36.2919111,163 C35.6056556,163 35,163.65625 35,164.5 C35,165.29695 35.6056556,166 36.2919111,166 C46.7080889,166 46.7080889,166 46.7080889,166 C47.3943444,166 48,165.29695 48,164.5 C48,163.65625 47.3943444,163 46.7080889,163 Z" id="Fill-40-Copy" fill="#062015"></path>
                <path d="M51.5782,163.42195 C51.29695,163.1407 50.92195,163 50.5,163 C50.125,163 49.75,163.1407 49.46875,163.42195 C49.1875,163.7032 49,164.0782 49,164.5 C49,164.875 49.1875,165.25 49.46875,165.53125 C49.75,165.8125 50.125,166 50.5,166 C50.92195,166 51.29695,165.8125 51.5782,165.53125 C51.85945,165.25 52,164.875 52,164.5 C52,164.0782 51.85945,163.7032 51.5782,163.42195 Z" id="Fill-41-Copy" fill="#062015"></path>
                <path d="M56.5782,163.42195 C56.29695,163.1407 55.92195,163 55.5,163 C55.125,163 54.75,163.1407 54.46875,163.42195 C54.1875,163.7032 54,164.0782 54,164.5 C54,164.875 54.1875,165.25 54.46875,165.53125 C54.75,165.8125 55.125,166 55.5,166 C55.92195,166 56.29695,165.8125 56.5782,165.53125 C56.85945,165.25 57,164.875 57,164.5 C57,164.0782 56.85945,163.7032 56.5782,163.42195 Z" id="Fill-42-Copy" fill="#062015"></path>
                <path d="M58.8594,163.42195 C58.7656,163.1407 58.6406,163 58.5,163 C58.375,163 58.25,163.1407 58.1563,163.42195 C58.0625,163.7032 58,164.0782 58,164.5 C58,164.875 58.0625,165.25 58.1563,165.53125 C58.25,165.8125 58.375,166 58.5,166 C58.6406,166 58.7656,165.8125 58.8594,165.53125 C58.9531,165.25 59,164.875 59,164.5 C59,164.0782 58.9531,163.7032 58.8594,163.42195 Z" id="Fill-43-Copy" fill="#062015"></path>
                <path d="M77.8107625,121 C69.1892375,121 69.1892375,121 69.1892375,121 C68.5203,121 68,121.7032 68,122.5 C68,123.34375 68.5203,124 69.1892375,124 C77.8107625,124 77.8107625,124 77.8107625,124 C78.4797,124 79,123.34375 79,122.5 C79,121.7032 78.4797,121 77.8107625,121 Z" id="Fill-44-Copy" fill="#062015"></path>
                <path d="M76.6265714,126 C69.3734286,126 69.3734286,126 69.3734286,126 C68.6008571,126 68,126.7032 68,127.5 C68,128.34375 68.6008571,129 69.3734286,129 C76.6265714,129 76.6265714,129 76.6265714,129 C77.3991429,129 78,128.34375 78,127.5 C78,126.7032 77.3991429,126 76.6265714,126 Z" id="Fill-45-Copy" fill="#062015"></path>
                <text id="PRODUCE-REPORT-VISUA" font-family="LucidaGrande, Lucida Grande" font-size="12" font-weight="normal" line-spacing="20" letter-spacing="0.0038" fill="#FFFFFF">
                    <tspan x="38.8026281" y="225">P</tspan>
                    <tspan x="45.4392406" y="225" letter-spacing="-0.1762">R</tspan>
                    <tspan x="52.8509312" y="225" letter-spacing="0.0158">O</tspan>
                    <tspan x="62.1889969" y="225" letter-spacing="-0.0442">D</tspan>
                    <tspan x="71.1330781" y="225">U</tspan>
                    <tspan x="79.4513312" y="225" letter-spacing="-0.0682">C</tspan>
                    <tspan x="87.6858656" y="225">E </tspan>
                    <tspan x="43.8753719" y="245">REPORT </tspan>
                    <tspan x="33.0005313" y="265">VISUALIZED</tspan>
                </text>
                <text id="7-copy" font-family="LucidaGrande, Lucida Grande" font-size="64" font-weight="normal" fill="#FFFFFF">
                    <tspan x="52" y="78">7</tspan>
                </text>
            </g>
        </g>
    </g>
</svg>