<?xml version="1.0" encoding="UTF-8"?>
<svg width="1081px" height="241px" viewBox="0 0 1081 241" version="1.1" xmlns="http://www.w3.org/2000/svg" xmlns:xlink="http://www.w3.org/1999/xlink">
    <!-- Generator: Sketch 50.2 (55047) - http://www.bohemiancoding.com/sketch -->
    <title>Value Copy</title>
    <desc>Created with Sketch.</desc>
    <defs></defs>
    <g id="Page-1" stroke="none" stroke-width="1" fill="none" fill-rule="evenodd">
        <g id="Value-Chain-Intergration" transform="translate(-167.000000, -705.000000)">
            <g id="Value-Copy" transform="translate(163.000000, 710.000000)">
                <path d="M682.436688,97.2912089 C682.436688,91.1514984 682.436688,91.1514984 682.436688,91.1514984 C682.436688,74.4108359 668.925672,60.4529461 652.372377,60.0112104 C643.916845,59.7903778 635.998144,62.8381498 629.958387,68.6245281 C623.918701,74.4550024 620.563312,82.2290151 620.563312,90.5330966 C620.563312,97.2912089 620.563312,97.2912089 620.563312,97.2912089 C616,97.2912089 616,97.2912089 616,97.2912089 C616,103.695918 616,103.695918 616,103.695918 C620.339662,105.551124 620.339662,105.551124 620.339662,105.551124 C630.226838,109.835629 640.695646,112 651.522365,112 C662.304354,112 672.773162,109.835629 682.705068,105.551124 C687,103.695918 687,103.695918 687,103.695918 C687,97.2912089 687,97.2912089 687,97.2912089 L682.436688,97.2912089 Z M672.594171,71.7164666 C671.520509,75.9568051 670.983607,80.3297137 670.983607,84.7025518 C670.983607,88.2803925 670.983607,88.2803925 670.983607,88.2803925 C666.375565,88.2803925 666.375565,88.2803925 666.375565,88.2803925 C666.375565,82.5382513 666.375565,82.5382513 666.375565,82.5382513 C666.375565,77.6794404 667.270307,72.8648666 668.925672,68.3152919 C670.267785,69.3311924 671.475708,70.479663 672.594171,71.7164666 Z M652.327647,62.2639145 C653.580371,62.308081 654.833024,62.4405806 656.040947,62.6173172 C653.893481,88.2803925 653.893481,88.2803925 653.893481,88.2803925 C649.106519,88.2803925 649.106519,88.2803925 649.106519,88.2803925 C646.959053,62.6173172 646.959053,62.6173172 646.959053,62.6173172 C648.703878,62.3522475 650.493362,62.219748 652.327647,62.2639145 Z M631.524292,70.2588304 C632.329574,69.507929 633.134856,68.8011942 634.029598,68.1386258 C635.729693,72.7765336 636.624435,77.5911074 636.624435,82.5382513 C636.624435,88.2803925 636.624435,88.2803925 636.624435,88.2803925 C632.016393,88.2803925 632.016393,88.2803925 632.016393,88.2803925 C632.016393,84.7025518 632.016393,84.7025518 632.016393,84.7025518 C632.016393,80.2413807 631.434761,75.8243055 630.361028,71.4955634 C630.718939,71.0538983 631.12158,70.656329 631.524292,70.2588304 Z M684.718344,102.238282 C681.765596,103.519252 681.765596,103.519252 681.765596,103.519252 C672.19153,107.627091 661.991173,109.747296 651.522365,109.747296 C641.008827,109.747296 630.8532,107.627091 621.234404,103.519252 C618.281656,102.238282 618.281656,102.238282 618.281656,102.238282 C618.281656,99.5880795 618.281656,99.5880795 618.281656,99.5880795 C673.265263,99.5880795 673.265263,99.5880795 673.265263,99.5880795 C673.265263,97.2912089 673.265263,97.2912089 673.265263,97.2912089 C622.889698,97.2912089 622.889698,97.2912089 622.889698,97.2912089 C622.889698,90.5330966 622.889698,90.5330966 622.889698,90.5330966 C622.889698,84.3492197 624.858244,78.5186748 628.526814,73.6599345 C629.332096,77.2819418 629.734737,80.9922821 629.734737,84.7025518 C629.734737,90.5330966 629.734737,90.5330966 629.734737,90.5330966 C638.906091,90.5330966 638.906091,90.5330966 638.906091,90.5330966 C638.906091,82.5382513 638.906091,82.5382513 638.906091,82.5382513 C638.906091,77.1052757 637.877159,71.8489661 635.953343,66.7693227 C638.637711,65.0466873 641.590388,63.8098837 644.677397,63.0589824 C647.003783,90.5330966 647.003783,90.5330966 647.003783,90.5330966 C655.996217,90.5330966 655.996217,90.5330966 655.996217,90.5330966 C658.322603,63.1031489 658.322603,63.1031489 658.322603,63.1031489 C661.454342,63.8982168 664.362289,65.1791869 667.001856,66.9459887 C665.078111,71.9372992 664.093909,77.1936087 664.093909,82.5382513 C664.093909,90.5330966 664.093909,90.5330966 664.093909,90.5330966 C673.265263,90.5330966 673.265263,90.5330966 673.265263,90.5330966 C673.265263,84.7025518 673.265263,84.7025518 673.265263,84.7025518 C673.265263,81.0806151 673.667904,77.5027743 674.428456,73.9691001 C678.007566,78.7837445 680.155032,84.7467889 680.155032,91.1514984 C680.155032,97.2912089 680.155032,97.2912089 680.155032,97.2912089 C675.546919,97.2912089 675.546919,97.2912089 675.546919,97.2912089 C675.546919,99.5880795 675.546919,99.5880795 675.546919,99.5880795 C684.718344,99.5880795 684.718344,99.5880795 684.718344,99.5880795 L684.718344,102.238282 Z" id="Fill-1" stroke="#00C290" fill="#00C290"></path>
                <path d="M298.024625,59 C253.887313,59 253.887313,59 253.887313,59 C253.364775,59 252.911867,59.4175962 252.911867,59.9743437 C252.911867,89.7271325 252.911867,89.7271325 252.911867,89.7271325 C252.772537,89.6575212 252.633208,89.58791 252.459029,89.58791 C252.21515,89.58791 251.971342,89.6922912 251.762313,89.901125 C248.278658,93.380975 248.278658,93.380975 248.278658,93.380975 C248.104479,93.5549675 248,93.7985 248,94.076945 C248,94.3204775 248.104479,94.5640813 248.278658,94.7380737 C249.846342,96.3388475 249.846342,96.3388475 249.846342,96.3388475 C248.905746,97.2784212 248.905746,97.2784212 248.905746,97.2784212 C248.731567,97.4524137 248.627017,97.7307875 248.627017,97.9743912 C248.627017,98.2179237 248.731567,98.4615275 248.905746,98.6703612 C252.911867,102.672189 252.911867,102.672189 252.911867,102.672189 C252.911867,115.060426 252.911867,115.060426 252.911867,115.060426 C252.911867,115.582404 253.364775,116 253.887313,116 C298.024625,116 298.024625,116 298.024625,116 C298.547163,116 299,115.582404 299,115.060426 C299,59.9743437 299,59.9743437 299,59.9743437 C299,59.4175962 298.547163,59 298.024625,59 Z M252.459029,91.9541937 C253.364775,92.8241562 253.364775,92.8241562 253.364775,92.8241562 C251.239775,94.9469075 251.239775,94.9469075 251.239775,94.9469075 C250.334029,94.076945 250.334029,94.076945 250.334029,94.076945 L252.459029,91.9541937 Z M252.911867,99.9230787 C250.961046,97.9743912 250.961046,97.9743912 250.961046,97.9743912 C251.239775,97.6959462 251.239775,97.6959462 251.239775,97.6959462 C252.911867,99.4011012 252.911867,99.4011012 252.911867,99.4011012 L252.911867,99.9230787 Z M252.598358,96.3388475 C254.723358,94.2160962 254.723358,94.2160962 254.723358,94.2160962 C259.217238,98.6703612 259.217238,98.6703612 259.217238,98.6703612 C257.092238,100.793041 257.092238,100.793041 257.092238,100.793041 L252.598358,96.3388475 Z M259.565596,103.263706 C258.450821,102.184981 258.450821,102.184981 258.450821,102.184981 C260.575821,100.062301 260.575821,100.062301 260.575821,100.062301 C261.690596,101.141026 261.690596,101.141026 261.690596,101.141026 L259.565596,103.263706 Z M263.049179,102.532966 C266.079925,105.525609 266.079925,105.525609 266.079925,105.525609 C263.954925,107.64836 263.954925,107.64836 263.954925,107.64836 C260.924179,104.655646 260.924179,104.655646 260.924179,104.655646 L263.049179,102.532966 Z M297.049179,114.086083 C254.862688,114.086083 254.862688,114.086083 254.862688,114.086083 C254.862688,101.315019 254.862688,101.315019 254.862688,101.315019 C263.258208,109.7015 263.258208,109.7015 263.258208,109.7015 C263.467238,109.910263 263.711046,109.979874 263.954925,109.979874 C264.198804,109.979874 264.442612,109.910263 264.651642,109.7015 C265.696717,108.657545 265.696717,108.657545 265.696717,108.657545 C266.985671,109.945033 266.985671,109.945033 266.985671,109.945033 C267.15985,110.119025 267.403658,110.223478 267.682388,110.223478 C267.926196,110.223478 268.170075,110.119025 268.344254,109.945033 C268.727463,109.562277 268.727463,108.935919 268.344254,108.553092 C267.0553,107.300375 267.0553,107.300375 267.0553,107.300375 C268.135225,106.221579 268.135225,106.221579 268.135225,106.221579 C268.309404,106.047586 268.413954,105.804054 268.413954,105.525609 C268.413954,105.282076 268.309404,105.038472 268.135225,104.86448 C254.862688,91.6062087 254.862688,91.6062087 254.862688,91.6062087 C254.862688,60.9486875 254.862688,60.9486875 254.862688,60.9486875 C297.049179,60.9486875 297.049179,60.9486875 297.049179,60.9486875 L297.049179,114.086083 Z" id="Fill-14" fill="#00C290"></path>
                <path d="M260.983178,82 C282.016822,82 282.016822,82 282.016822,82 C282.578597,82 283,81.76785 283,81.5 C283,81.23215 282.578597,81 282.016822,81 C260.983178,81 260.983178,81 260.983178,81 C260.421403,81 260,81.23215 260,81.5 C260,81.76785 260.421403,82 260.983178,82 Z" id="Fill-15" fill="#00C290"></path>
                <path d="M260.9945,86 C272.0055,86 272.0055,86 272.0055,86 C272.538283,86 273,85.7857 273,85.5 C273,85.23215 272.538283,85 272.0055,85 C260.9945,85 260.9945,85 260.9945,85 C260.426256,85 260,85.23215 260,85.5 C260,85.7857 260.426256,86 260.9945,86 Z" id="Fill-16" fill="#00C290"></path>
                <path d="M260.974931,92 C284.025069,92 284.025069,92 284.025069,92 C284.582153,92 285,91.357175 285,90.5 C285,89.69645 284.582153,89 284.025069,89 C260.974931,89 260.974931,89 260.974931,89 C260.417847,89 260,89.69645 260,90.5 C260,91.357175 260.417847,92 260.974931,92 Z" id="Fill-17" fill="#00C290"></path>
                <path d="M292.186097,102.521002 C291.877872,102.586595 291.672413,102.816244 291.569648,103.078763 C291.329957,103.63645 291.090196,104.227008 290.816203,104.751972 C290.576512,103.833303 290.199754,103.177152 290.131291,103.045893 C289.925831,102.750651 289.549073,102.586595 289.206617,102.619392 C288.82993,102.652188 288.521635,102.914707 288.384709,103.242745 C287.836723,104.916027 286.946281,106.031476 286.364064,106.162735 C286.295601,106.162735 286.05584,106.228328 285.644921,105.801827 C285.1997,105.309659 285.131166,104.883158 286.192836,103.013096 C286.603825,102.291353 287.014815,101.569536 287.151811,100.847793 C287.323039,99.8635307 286.91205,99.0105279 285.987377,98.4199706 C285.131166,97.8950066 284.035265,97.86221 282.733904,98.321508 C279.309134,99.5354191 274.617304,104.292674 274.035087,106.162735 C273.89809,106.622033 274.172083,107.146924 274.685767,107.278184 C275.199451,107.409443 275.713205,107.146924 275.850202,106.65483 C276.226889,105.506512 280.370803,101.110238 283.418816,100.027587 C283.898269,99.8635307 284.549019,99.6994749 284.925707,99.9291239 C285.439391,100.257236 285.439391,100.519681 284.514717,102.127297 C283.761272,103.472394 282.665371,105.342529 284.240795,107.015738 C285.1997,108 286.124373,108.065593 286.775053,107.934334 C287.665495,107.737482 288.453172,107.048535 289.069621,106.162735 C289.035389,106.392384 289.001158,106.589237 288.932624,106.786089 C288.82993,107.146924 288.932624,107.507833 289.206617,107.770351 C289.377845,107.901537 289.617607,108 289.857298,108 C289.994294,108 290.131291,107.967203 290.234056,107.901537 C291.432722,107.376646 292.186097,106.261125 292.802546,105.014417 C292.939542,105.244066 293.076539,105.506512 293.11077,105.736234 C293.11077,105.900217 293.076539,106.129939 292.768314,106.425181 C292.391627,106.786089 292.391627,107.376646 292.768314,107.737482 C293.145072,108.065593 293.727289,108.065593 294.103977,107.737482 C294.925885,106.950145 295.02865,106.129939 294.994419,105.604974 C294.891654,104.095821 293.453296,102.9803 293.008076,102.652188 C292.768314,102.488205 292.46009,102.422539 292.186097,102.521002 Z" id="Fill-18" fill="#00C290"></path>
                <path d="M282.868523,102.007866 C281.49197,102.175165 280.04294,103.54681 279.064865,104.650846 C278.702625,105.052295 277.072476,106.959227 277,108.029804 C277,108.531632 277.398478,108.96654 277.978075,109 C277.978075,109 278.014313,109 278.014313,109 C278.557673,109 278.992389,108.632012 279.028627,108.130183 C279.101103,107.862504 279.716939,106.825388 280.731252,105.721422 C281.817971,104.517006 282.723641,103.914799 283.122119,103.847879 C283.665478,103.780959 284.063956,103.312591 283.99148,102.810762 C283.919074,102.308934 283.411882,101.940946 282.868523,102.007866 Z" id="Fill-19" fill="#00C290"></path>
                <path d="M260.960023,73 C277.039977,73 277.039977,73 277.039977,73 C277.588562,73 278,72.76785 278,72.5 C278,72.23215 277.588562,72 277.039977,72 C260.960023,72 260.960023,72 260.960023,72 C260.411438,72 260,72.23215 260,72.5 C260,72.76785 260.411438,73 260.960023,73 Z" id="Fill-20" fill="#00C290"></path>
                <path d="M291.061833,72 C279.938167,72 279.938167,72 279.938167,72 C279.402061,72 279,72.23215 279,72.5 C279,72.76785 279.402061,73 279.938167,73 C291.061833,73 291.061833,73 291.061833,73 C291.597939,73 292,72.76785 292,72.5 C292,72.23215 291.597939,72 291.061833,72 Z" id="Fill-21" fill="#00C290"></path>
                <path d="M274,85.5 C274,85.7857 274.391985,86 274.914677,86 C291.085323,86 291.085323,86 291.085323,86 C291.608015,86 292,85.7857 292,85.5 C292,85.23215 291.608015,85 291.085323,85 C274.914677,85 274.914677,85 274.914677,85 C274.391985,85 274,85.23215 274,85.5 Z" id="Fill-22" fill="#00C290"></path>
                <path d="M260.979885,77 C292.020115,77 292.020115,77 292.020115,77 C292.580039,77 293,76.76785 293,76.5 C293,76.23215 292.580039,76 292.020115,76 C260.979885,76 260.979885,76 260.979885,76 C260.419961,76 260,76.23215 260,76.5 C260,76.76785 260.419961,77 260.979885,77 Z" id="Fill-23" fill="#00C290"></path>
                <path d="M291.1318,82 C291.627933,82 292,81.76785 292,81.5 C292,81.23215 291.627933,81 291.1318,81 C284.8682,81 284.8682,81 284.8682,81 C284.372067,81 284,81.23215 284,81.5 C284,81.76785 284.372067,82 284.8682,82 L291.1318,82 Z" id="Fill-24" fill="#00C290"></path>
                <path d="M260.979885,69 C292.020115,69 292.020115,69 292.020115,69 C292.580039,69 293,68.30355 293,67.5 C293,66.642825 292.580039,66 292.020115,66 C260.979885,66 260.979885,66 260.979885,66 C260.419961,66 260,66.642825 260,67.5 C260,68.30355 260.419961,69 260.979885,69 Z" id="Fill-25" fill="#00C290"></path>
                <polygon id="Fill-36" fill="#E1E1E1" points="158 90 206 90 206 85 158 85"></polygon>
                <polygon id="Fill-37" fill="#E1E1E1" points="346 90 394 90 394 85 346 85"></polygon>
                <polygon id="Fill-38" fill="#E1E1E1" points="534 90 582 90 582 85 534 85"></polygon>
                <polygon id="Fill-39" fill="#E1E1E1" points="722 90 770 90 770 85 722 85"></polygon>
                <polygon id="Fill-40" fill="#E1E1E1" points="909 90 957 90 957 85 909 85"></polygon>
                <polygon id="Fill-41" stroke="#00C290" stroke-width="2" fill="#00C290" points="292 0 275.100583 14 258 0 275.100583 7.76881"></polygon>
                <polygon id="Fill-42" stroke="#00C290" stroke-width="2" fill="#00C290" points="668 0 651.100583 14 634 0 651.100583 7.76881"></polygon>
                <path d="M118.856071,85.3814387 C114.568213,85.3814387 114.568213,85.3814387 114.568213,85.3814387 C113.416853,85.3814387 112.464036,86.3405677 112.464036,87.5394968 C112.464036,88.6185613 112.464036,88.6185613 112.464036,88.6185613 C97.5359787,88.6185613 97.5359787,88.6185613 97.5359787,88.6185613 C97.5359787,73.5922065 97.5359787,73.5922065 97.5359787,73.5922065 C98.6079431,73.5922065 98.6079431,73.5922065 98.6079431,73.5922065 C99.7593244,73.5922065 100.712142,72.6330774 100.712142,71.4341484 C100.712142,67.1580581 100.712142,67.1580581 100.712142,67.1580581 C100.712142,65.959129 99.7593244,65 98.6079431,65 C79.3920569,65 79.3920569,65 79.3920569,65 C78.2406969,65 77.2481351,65.959129 77.2481351,67.1580581 C77.2481351,71.4341484 77.2481351,71.4341484 77.2481351,71.4341484 C77.2481351,72.6330774 78.2406969,73.5922065 79.3920569,73.5922065 C80.4640213,73.5922065 80.4640213,73.5922065 80.4640213,73.5922065 C80.4640213,88.6185613 80.4640213,88.6185613 80.4640213,88.6185613 C65.5359787,88.6185613 65.5359787,88.6185613 65.5359787,88.6185613 C65.5359787,87.5394968 65.5359787,87.5394968 65.5359787,87.5394968 C65.5359787,86.3405677 64.5831253,85.3814387 63.3920569,85.3814387 C59.1439218,85.3814387 59.1439218,85.3814387 59.1439218,85.3814387 C57.9528533,85.3814387 57,86.3405677 57,87.5394968 C57,106.841942 57,106.841942 57,106.841942 C57,108.040871 57.9528533,109 59.1439218,109 C63.3920569,109 63.3920569,109 63.3920569,109 C64.5831253,109 65.5359787,108.040871 65.5359787,106.841942 C65.5359787,105.802903 65.5359787,105.802903 65.5359787,105.802903 C112.464036,105.802903 112.464036,105.802903 112.464036,105.802903 C112.464036,106.841942 112.464036,106.841942 112.464036,106.841942 C112.464036,108.040871 113.416853,109 114.568213,109 C118.856071,109 118.856071,109 118.856071,109 C120.007431,109 121,108.040871 121,106.841942 C121,87.5394968 121,87.5394968 121,87.5394968 C121,86.3405677 120.007431,85.3814387 118.856071,85.3814387 Z M79.3920569,67.1580581 C98.6079431,67.1580581 98.6079431,67.1580581 98.6079431,67.1580581 C98.6079431,71.4341484 98.6079431,71.4341484 98.6079431,71.4341484 C79.3920569,71.4341484 79.3920569,71.4341484 79.3920569,71.4341484 L79.3920569,67.1580581 Z M63.3920569,106.841942 C59.1439218,106.841942 59.1439218,106.841942 59.1439218,106.841942 C59.1439218,87.5394968 59.1439218,87.5394968 59.1439218,87.5394968 C63.3920569,87.5394968 63.3920569,87.5394968 63.3920569,87.5394968 L63.3920569,106.841942 Z M65.5359787,103.644845 C65.5359787,90.7765484 65.5359787,90.7765484 65.5359787,90.7765484 C81.5359787,90.7765484 81.5359787,90.7765484 81.5359787,90.7765484 C82.1712142,90.7765484 82.6079431,90.3369742 82.6079431,89.6975548 C82.6079431,73.5922065 82.6079431,73.5922065 82.6079431,73.5922065 C90.0719644,73.5922065 90.0719644,73.5922065 90.0719644,73.5922065 C90.0719644,76.7893032 90.0719644,76.7893032 90.0719644,76.7893032 C90.0719644,77.4686774 90.4689849,77.8682968 91.1042204,77.8682968 C91.7791573,77.8682968 92.1761778,77.4686774 92.1761778,76.7893032 C92.1761778,73.5922065 92.1761778,73.5922065 92.1761778,73.5922065 C95.3920569,73.5922065 95.3920569,73.5922065 95.3920569,73.5922065 C95.3920569,89.6975548 95.3920569,89.6975548 95.3920569,89.6975548 C95.3920569,90.3369742 95.8287858,90.7765484 96.4640213,90.7765484 C112.464036,90.7765484 112.464036,90.7765484 112.464036,90.7765484 C112.464036,92.8946516 112.464036,92.8946516 112.464036,92.8946516 C108.176178,92.8946516 108.176178,92.8946516 108.176178,92.8946516 C107.540942,92.8946516 107.104249,93.3342258 107.104249,93.9736452 C107.104249,94.6130645 107.540942,95.0527097 108.176178,95.0527097 C112.464036,95.0527097 112.464036,95.0527097 112.464036,95.0527097 C112.464036,103.644845 112.464036,103.644845 112.464036,103.644845 C65.5359787,103.644845 65.5359787,103.644845 65.5359787,103.644845 Z M118.856071,106.841942 C114.568213,106.841942 114.568213,106.841942 114.568213,106.841942 C114.568213,87.5394968 114.568213,87.5394968 114.568213,87.5394968 C118.856071,87.5394968 118.856071,87.5394968 118.856071,87.5394968 L118.856071,106.841942 Z" id="Fill-43" stroke="#00C290" fill="#00C290"></path>
                <path d="M91.471695,82 C92.43396,82 93,81.7963 93,81.5 C93,81.2037 92.43396,81 91.471695,81 C90.56604,81 90,81.2037 90,81.5 C90,81.7963 90.7358475,82 91.471695,82 Z" id="Fill-44" fill="#00C290"></path>
                <path d="M101.90995,92.9925714 C92.1397494,92.9925714 92.1397494,92.9925714 92.1397494,92.9925714 C92.1397494,86.0037143 92.1397494,86.0037143 92.1397494,86.0037143 C92.1397494,85.4089286 91.7360272,85 91.0496922,85 C90.4037294,85 90,85.4089286 90,86.0037143 C90,93.9962857 90,93.9962857 90,93.9962857 C90,94.5910714 90.4037294,95 91.0496922,95 C101.90995,95 101.90995,95 101.90995,95 C102.555906,95 103,94.5910714 103,93.9962857 C103,93.4015 102.555906,92.9925714 101.90995,92.9925714 Z" id="Fill-45" fill="#00C290"></path>
                <path d="M490.053725,115.035862 C476.275916,115.035862 476.275916,115.035862 476.275916,115.035862 C469.954805,87.0089655 469.954805,87.0089655 469.954805,87.0089655 C481.310105,87.0089655 481.310105,87.0089655 481.310105,87.0089655 C481.310105,88.9353155 481.310105,88.9353155 481.310105,88.9353155 C480.36383,88.9353155 480.36383,88.9353155 480.36383,88.9353155 C479.833941,88.9353155 479.37972,89.3886321 479.37972,89.9173845 C479.37972,90.4462071 479.833941,90.8617357 480.36383,90.8617357 C481.310105,90.8617357 481.310105,90.8617357 481.310105,90.8617357 C481.310105,91.8438048 481.310105,91.8438048 481.310105,91.8438048 C480.36383,91.8438048 480.36383,91.8438048 480.36383,91.8438048 C479.833941,91.8438048 479.37972,92.2592631 479.37972,92.8258738 C479.37972,93.3546964 479.833941,93.7701548 480.36383,93.7701548 C481.310105,93.7701548 481.310105,93.7701548 481.310105,93.7701548 C481.310105,94.2989774 481.764325,94.7522238 482.294284,94.7522238 C482.824173,94.7522238 483.278393,94.2989774 483.278393,93.7701548 C484.224668,93.7701548 484.224668,93.7701548 484.224668,93.7701548 C484.754557,93.7701548 485.208777,93.3546964 485.208777,92.8258738 C485.208777,92.2592631 484.754557,91.8438048 484.224668,91.8438048 C483.278393,91.8438048 483.278393,91.8438048 483.278393,91.8438048 C483.278393,90.8617357 483.278393,90.8617357 483.278393,90.8617357 C484.224668,90.8617357 484.224668,90.8617357 484.224668,90.8617357 C484.754557,90.8617357 485.208777,90.4462071 485.208777,89.9173845 C485.208777,89.3886321 484.754557,88.9353155 484.224668,88.9353155 C483.278393,88.9353155 483.278393,88.9353155 483.278393,88.9353155 C483.278393,87.0089655 483.278393,87.0089655 483.278393,87.0089655 C484.224668,87.0089655 484.224668,87.0089655 484.224668,87.0089655 C484.678889,87.0089655 485.05737,86.7068012 485.170943,86.2912726 C485.284516,85.8758143 485.095205,85.4602857 484.754557,85.2336976 C469.689895,75.8283952 469.689895,75.8283952 469.689895,75.8283952 C469.689895,71.5223786 469.689895,71.5223786 469.689895,71.5223786 C481.310105,71.5223786 481.310105,71.5223786 481.310105,71.5223786 C481.310105,73.4865869 481.310105,73.4865869 481.310105,73.4865869 C480.36383,73.4865869 480.36383,73.4865869 480.36383,73.4865869 C479.833941,73.4865869 479.37972,73.9020452 479.37972,74.4308679 C479.37972,74.9596905 479.833941,75.4129369 480.36383,75.4129369 C481.310105,75.4129369 481.310105,75.4129369 481.310105,75.4129369 C481.310105,76.3572179 481.310105,76.3572179 481.310105,76.3572179 C480.36383,76.3572179 480.36383,76.3572179 480.36383,76.3572179 C479.833941,76.3572179 479.37972,76.8105345 479.37972,77.3392869 C479.37972,77.8681095 479.833941,78.321356 480.36383,78.321356 C481.310105,78.321356 481.310105,78.321356 481.310105,78.321356 C481.310105,78.8501786 481.764325,79.2657071 482.294284,79.2657071 C482.824173,79.2657071 483.278393,78.8501786 483.278393,78.321356 C484.224668,78.321356 484.224668,78.321356 484.224668,78.321356 C484.754557,78.321356 485.208777,77.8681095 485.208777,77.3392869 C485.208777,76.8105345 484.754557,76.3572179 484.224668,76.3572179 C483.278393,76.3572179 483.278393,76.3572179 483.278393,76.3572179 C483.278393,75.4129369 483.278393,75.4129369 483.278393,75.4129369 C484.224668,75.4129369 484.224668,75.4129369 484.224668,75.4129369 C484.754557,75.4129369 485.208777,74.9596905 485.208777,74.4308679 C485.208777,73.9020452 484.754557,73.4865869 484.224668,73.4865869 C483.278393,73.4865869 483.278393,73.4865869 483.278393,73.4865869 C483.278393,71.5223786 483.278393,71.5223786 483.278393,71.5223786 C484.224668,71.5223786 484.224668,71.5223786 484.224668,71.5223786 C484.678889,71.5223786 485.05737,71.2580024 485.170943,70.842544 C485.284516,70.4270155 485.095205,69.973769 484.754557,69.7471107 C469.689895,60.3796667 469.689895,60.3796667 469.689895,60.3796667 C469.689895,58.982069 469.689895,58.982069 469.689895,58.982069 C469.689895,58.4154583 469.273509,58 468.74362,58 C451.294284,58 451.294284,58 451.294284,58 C450.764325,58 450.310105,58.4154583 450.310105,58.982069 C450.310105,60.3796667 450.310105,60.3796667 450.310105,60.3796667 C435.283277,69.7471107 435.283277,69.7471107 435.283277,69.7471107 C434.904795,69.973769 434.715484,70.4270155 434.866891,70.842544 C434.980464,71.2580024 435.358945,71.5223786 435.775332,71.5223786 C436.759441,71.5223786 436.759441,71.5223786 436.759441,71.5223786 C436.759441,73.4865869 436.759441,73.4865869 436.759441,73.4865869 C435.775332,73.4865869 435.775332,73.4865869 435.775332,73.4865869 C435.245443,73.4865869 434.829057,73.9020452 434.829057,74.4308679 C434.829057,74.9596905 435.245443,75.4129369 435.775332,75.4129369 C436.759441,75.4129369 436.759441,75.4129369 436.759441,75.4129369 C436.759441,76.3572179 436.759441,76.3572179 436.759441,76.3572179 C435.775332,76.3572179 435.775332,76.3572179 435.775332,76.3572179 C435.245443,76.3572179 434.829057,76.8105345 434.829057,77.3392869 C434.829057,77.8681095 435.245443,78.321356 435.775332,78.321356 C436.759441,78.321356 436.759441,78.321356 436.759441,78.321356 C436.759441,78.8501786 437.175827,79.2657071 437.705716,79.2657071 C438.273509,79.2657071 438.689895,78.8501786 438.689895,78.321356 C439.674005,78.321356 439.674005,78.321356 439.674005,78.321356 C440.203893,78.321356 440.62028,77.8681095 440.62028,77.3392869 C440.62028,76.8105345 440.203893,76.3572179 439.674005,76.3572179 C438.689895,76.3572179 438.689895,76.3572179 438.689895,76.3572179 C438.689895,75.4129369 438.689895,75.4129369 438.689895,75.4129369 C439.674005,75.4129369 439.674005,75.4129369 439.674005,75.4129369 C440.203893,75.4129369 440.62028,74.9596905 440.62028,74.4308679 C440.62028,73.9020452 440.203893,73.4865869 439.674005,73.4865869 C438.689895,73.4865869 438.689895,73.4865869 438.689895,73.4865869 C438.689895,71.5223786 438.689895,71.5223786 438.689895,71.5223786 C450.310105,71.5223786 450.310105,71.5223786 450.310105,71.5223786 C450.310105,75.8283952 450.310105,75.8283952 450.310105,75.8283952 C435.283277,85.2336976 435.283277,85.2336976 435.283277,85.2336976 C434.904795,85.4602857 434.715484,85.8758143 434.866891,86.2912726 C434.980464,86.7068012 435.358945,87.0089655 435.775332,87.0089655 C436.759441,87.0089655 436.759441,87.0089655 436.759441,87.0089655 C436.759441,88.9353155 436.759441,88.9353155 436.759441,88.9353155 C435.775332,88.9353155 435.775332,88.9353155 435.775332,88.9353155 C435.245443,88.9353155 434.829057,89.3886321 434.829057,89.9173845 C434.829057,90.4462071 435.245443,90.8617357 435.775332,90.8617357 C436.759441,90.8617357 436.759441,90.8617357 436.759441,90.8617357 C436.759441,91.8438048 436.759441,91.8438048 436.759441,91.8438048 C435.775332,91.8438048 435.775332,91.8438048 435.775332,91.8438048 C435.245443,91.8438048 434.829057,92.2592631 434.829057,92.8258738 C434.829057,93.3546964 435.245443,93.7701548 435.775332,93.7701548 C436.759441,93.7701548 436.759441,93.7701548 436.759441,93.7701548 C436.759441,94.2989774 437.175827,94.7522238 437.705716,94.7522238 C438.273509,94.7522238 438.689895,94.2989774 438.689895,93.7701548 C439.674005,93.7701548 439.674005,93.7701548 439.674005,93.7701548 C440.203893,93.7701548 440.62028,93.3546964 440.62028,92.8258738 C440.62028,92.2592631 440.203893,91.8438048 439.674005,91.8438048 C438.689895,91.8438048 438.689895,91.8438048 438.689895,91.8438048 C438.689895,90.8617357 438.689895,90.8617357 438.689895,90.8617357 C439.674005,90.8617357 439.674005,90.8617357 439.674005,90.8617357 C440.203893,90.8617357 440.62028,90.4462071 440.62028,89.9173845 C440.62028,89.3886321 440.203893,88.9353155 439.674005,88.9353155 C438.689895,88.9353155 438.689895,88.9353155 438.689895,88.9353155 C438.689895,87.0089655 438.689895,87.0089655 438.689895,87.0089655 C450.08303,87.0089655 450.08303,87.0089655 450.08303,87.0089655 C443.724084,115.035862 443.724084,115.035862 443.724084,115.035862 C429.984109,115.035862 429.984109,115.035862 429.984109,115.035862 C429.416386,115.035862 429,115.489108 429,116.017931 C429,116.546754 429.416386,117 429.984109,117 C490.053725,117 490.053725,117 490.053725,117 C490.583614,117 491,116.546754 491,116.017931 C491,115.489108 490.583614,115.035862 490.053725,115.035862 Z M467.759441,83.2695595 C461.741143,79.2657071 461.741143,79.2657071 461.741143,79.2657071 C467.759441,75.2618548 467.759441,75.2618548 467.759441,75.2618548 L467.759441,83.2695595 Z M466.964573,85.0826155 C453.035427,85.0826155 453.035427,85.0826155 453.035427,85.0826155 C460,80.4366464 460,80.4366464 460,80.4366464 L466.964573,85.0826155 Z M467.759441,69.7471107 C461.741143,65.7432583 461.741143,65.7432583 461.741143,65.7432583 C467.759441,61.739406 467.759441,61.739406 467.759441,61.739406 L467.759441,69.7471107 Z M466.964573,71.5223786 C453.035427,71.5223786 453.035427,71.5223786 453.035427,71.5223786 C460,66.9141976 460,66.9141976 460,66.9141976 L466.964573,71.5223786 Z M452.240559,69.7471107 C452.240559,61.739406 452.240559,61.739406 452.240559,61.739406 C458.258857,65.7432583 458.258857,65.7432583 458.258857,65.7432583 L452.240559,69.7471107 Z M466.964573,73.4865869 C460,78.0947679 460,78.0947679 460,78.0947679 C453.035427,73.4865869 453.035427,73.4865869 453.035427,73.4865869 L466.964573,73.4865869 Z M460,64.572319 C453.035427,59.92635 453.035427,59.92635 453.035427,59.92635 C466.964573,59.92635 466.964573,59.92635 466.964573,59.92635 L460,64.572319 Z M458.258857,79.2657071 C452.240559,83.2695595 452.240559,83.2695595 452.240559,83.2695595 C452.240559,76.395006 452.240559,76.395006 452.240559,76.395006 C452.240559,76.395006 452.240559,76.395006 452.240559,76.3572179 C452.240559,75.2618548 452.240559,75.2618548 452.240559,75.2618548 L458.258857,79.2657071 Z M467.948752,87.0089655 C468.327234,88.6331512 468.327234,88.6331512 468.327234,88.6331512 C460,91.7682286 460,91.7682286 460,91.7682286 C451.7106,88.6331512 451.7106,88.6331512 451.7106,88.6331512 C452.051248,87.0089655 452.051248,87.0089655 452.051248,87.0089655 L467.948752,87.0089655 Z M469.879136,95.5454226 C462.725252,92.8258738 462.725252,92.8258738 462.725252,92.8258738 C468.74362,90.5217833 468.74362,90.5217833 468.74362,90.5217833 L469.879136,95.5454226 Z M451.25638,90.5217833 C457.274748,92.8258738 457.274748,92.8258738 457.274748,92.8258738 C450.120864,95.5454226 450.120864,95.5454226 450.120864,95.5454226 L451.25638,90.5217833 Z M448.833941,101.211249 C457.274748,104.421902 457.274748,104.421902 457.274748,104.421902 C447.244205,108.199096 447.244205,108.199096 447.244205,108.199096 L448.833941,101.211249 Z M449.288161,99.2848988 C449.628809,97.8117952 449.628809,97.8117952 449.628809,97.8117952 C460,93.845731 460,93.845731 460,93.845731 C470.409025,97.8117952 470.409025,97.8117952 470.409025,97.8117952 C470.749673,99.2848988 470.749673,99.2848988 470.749673,99.2848988 C460,103.364257 460,103.364257 460,103.364257 L449.288161,99.2848988 Z M471.166059,101.211249 C472.755795,108.199096 472.755795,108.199096 472.755795,108.199096 C462.725252,104.421902 462.725252,104.421902 462.725252,104.421902 L471.166059,101.211249 Z M480.855955,85.0826155 C469.689895,85.0826155 469.689895,85.0826155 469.689895,85.0826155 C469.689895,78.132556 469.689895,78.132556 469.689895,78.132556 L480.855955,85.0826155 Z M480.855955,69.5960286 C469.689895,69.5960286 469.689895,69.5960286 469.689895,69.5960286 C469.689895,62.645969 469.689895,62.645969 469.689895,62.645969 L480.855955,69.5960286 Z M439.144045,69.5960286 C450.310105,62.645969 450.310105,62.645969 450.310105,62.645969 C450.310105,69.5960286 450.310105,69.5960286 450.310105,69.5960286 L439.144045,69.5960286 Z M450.310105,78.132556 C450.310105,85.0826155 450.310105,85.0826155 450.310105,85.0826155 C439.144045,85.0826155 439.144045,85.0826155 439.144045,85.0826155 L450.310105,78.132556 Z M445.730136,115.035862 C446.75215,110.465399 446.75215,110.465399 446.75215,110.465399 C460,105.44176 460,105.44176 460,105.44176 C473.24785,110.465399 473.24785,110.465399 473.24785,110.465399 C474.307698,115.035862 474.307698,115.035862 474.307698,115.035862 L445.730136,115.035862 Z" id="Fill-46" stroke="#251E3E" fill="#251E3E"></path>
                <path d="M459.41175,112.132996 C459.117675,112.231528 459,112.369485 459,112.507389 C459,112.625607 459.117675,112.763563 459.41175,112.862044 C459.7059,112.940891 460.11765,113 460.4706,113 C460.88235,113 461.2941,112.940891 461.529375,112.862044 C461.823525,112.763563 462,112.625607 462,112.507389 C462,112.369485 461.823525,112.231528 461.529375,112.132996 C461.000025,111.955668 459.999975,111.955668 459.41175,112.132996 Z" id="Fill-47" fill="#251E3E"></path>
                <path d="M465.58825,112.132996 C465.000025,111.955668 463.999975,111.955668 463.41175,112.132996 C463.176475,112.231528 463,112.369485 463,112.507389 C463,112.625607 463.176475,112.763563 463.41175,112.862044 C463.7059,112.940891 464.11765,113 464.5294,113 C464.88235,113 465.2941,112.940891 465.58825,112.862044 C465.823525,112.763563 466,112.625607 466,112.507389 C466,112.369485 465.823525,112.231528 465.58825,112.132996 Z" id="Fill-48" fill="#251E3E"></path>
                <path d="M456.15685,112.132996 C456.0588,112.231528 456,112.369485 456,112.507389 C456,112.625607 456.0588,112.763563 456.15685,112.862044 C456.2353,112.940891 456.37255,113 456.5098,113 C456.62745,113 456.7647,112.940891 456.86275,112.862044 C456.9608,112.763563 457,112.625607 457,112.507389 C457,112.369485 456.9608,112.231528 456.86275,112.132996 C456.68625,111.955668 456.33335,111.955668 456.15685,112.132996 Z" id="Fill-49" fill="#251E3E"></path>
                <polygon id="Fill-50" fill="#251E3E" points="817 98 818 98 818 97 817 97"></polygon>
                <polygon id="Fill-51" fill="#251E3E" points="831 98 834 98 834 97 831 97"></polygon>
                <polygon id="Fill-52" fill="#251E3E" points="847 98 848 98 848 97 847 97"></polygon>
                <polygon id="Fill-53" fill="#251E3E" points="861 98 862 98 862 97 861 97"></polygon>
                <path d="M872,92.7719038 C872,76.6699487 872,76.6699487 872,76.6699487 C872,74.9511987 871.06706,73.3530962 869.466519,72.4183077 C868.766283,71.9660385 867.933377,71.6946346 867.066417,71.6041667 C868.732938,70.3980449 869.733276,68.6189359 869.866655,66.7193205 C870.933682,66.7193205 870.933682,66.7193205 870.933682,66.7193205 C870.933682,64.7894551 870.933682,64.7894551 870.933682,64.7894551 C869.699932,64.7894551 869.699932,64.7894551 869.699932,64.7894551 C869.199762,61.5931795 867.433208,60.0855449 865.399896,59.4221603 C865.199828,59.1507564 864.866382,59 864.532936,59 C860.266246,59 860.266246,59 860.266246,59 C859.932799,59 859.599353,59.1507564 859.399286,59.4221603 C857.365974,60.0855449 855.599419,61.5931795 855.09925,64.7894551 C853.8655,64.7894551 853.8655,64.7894551 853.8655,64.7894551 C853.8655,66.7193205 853.8655,66.7193205 853.8655,66.7193205 C854.932527,66.7193205 854.932527,66.7193205 854.932527,66.7193205 C855.065906,68.6189359 856.066244,70.3980449 857.732765,71.6041667 C855.032561,71.9056795 852.965905,73.8958333 852.799182,76.3684359 C848.532491,76.3684359 848.532491,76.3684359 848.532491,76.3684359 C846.765227,76.3684359 845.332118,77.6650256 845.332118,79.2631282 C845.332118,80.8613013 846.765227,82.157891 848.532491,82.157891 C855.999555,82.157891 855.999555,82.157891 855.999555,82.157891 C855.999555,91.8070064 855.999555,91.8070064 855.999555,91.8070064 C852.799182,91.8070064 852.799182,91.8070064 852.799182,91.8070064 C852.799182,85.0526538 852.799182,85.0526538 852.799182,85.0526538 C852.799182,84.5098462 852.332357,84.0876859 851.732154,84.0876859 C843.198773,84.0876859 843.198773,84.0876859 843.198773,84.0876859 C842.59857,84.0876859 842.131745,84.5098462 842.131745,85.0526538 C842.131745,91.8070064 842.131745,91.8070064 842.131745,91.8070064 C837.865055,91.8070064 837.865055,91.8070064 837.865055,91.8070064 C837.865055,85.0526538 837.865055,85.0526538 837.865055,85.0526538 C837.865055,84.5098462 837.39823,84.0876859 836.798027,84.0876859 C828.264646,84.0876859 828.264646,84.0876859 828.264646,84.0876859 C827.664443,84.0876859 827.197618,84.5098462 827.197618,85.0526538 C827.197618,91.8070064 827.197618,91.8070064 827.197618,91.8070064 C826.464037,91.8070064 826.464037,91.8070064 826.464037,91.8070064 C826.130591,91.8070064 826.130591,91.8070064 826.130591,91.8070064 C823.997245,91.8070064 823.997245,91.8070064 823.997245,91.8070064 C823.197684,91.8070064 823.197684,91.8070064 823.197684,91.8070064 C822.930927,91.8070064 822.930927,91.8070064 822.930927,91.8070064 C822.930927,85.0526538 822.930927,85.0526538 822.930927,85.0526538 C822.930927,84.5098462 822.464103,84.0876859 821.8639,84.0876859 C813.330518,84.0876859 813.330518,84.0876859 813.330518,84.0876859 C812.730315,84.0876859 812.263491,84.5098462 812.263491,85.0526538 C812.263491,92.1386987 812.263491,92.1386987 812.263491,92.1386987 C808.92974,93.1940641 807.196529,96.5109872 808.363591,99.5263269 C809.129807,101.516481 811.02974,102.963827 813.330518,103.295519 C813.330518,109.175442 813.330518,109.175442 813.330518,109.175442 C812.263491,109.175442 812.263491,109.175442 812.263491,109.175442 C811.8967,109.175442 811.563254,109.326199 811.363186,109.597603 C809.229841,112.492295 809.229841,112.492295 809.229841,112.492295 C808.92974,112.944635 809.063118,113.547731 809.529942,113.849244 C809.696666,113.939712 809.930078,114 810.130145,114 C818.663527,114 818.663527,114 818.663527,114 C819.26373,114 819.730554,113.57784 819.730554,113.035103 C819.730554,112.854167 819.663865,112.643122 819.563831,112.492295 C817.430486,109.597603 817.430486,109.597603 817.430486,109.597603 C817.230418,109.326199 816.896972,109.175442 816.530182,109.175442 C815.463864,109.175442 815.463864,109.175442 815.463864,109.175442 C815.463864,103.385987 815.463864,103.385987 815.463864,103.385987 C823.997245,103.385987 823.997245,103.385987 823.997245,103.385987 C823.997245,112.070205 823.997245,112.070205 823.997245,112.070205 C821.8639,112.070205 821.8639,112.070205 821.8639,112.070205 C821.8639,114 821.8639,114 821.8639,114 C825.064273,114 825.064273,114 825.064273,114 C825.664476,114 826.130591,113.57784 826.130591,113.035103 C826.130591,103.385987 826.130591,103.385987 826.130591,103.385987 C855.999555,103.385987 855.999555,103.385987 855.999555,103.385987 C855.999555,113.035103 855.999555,113.035103 855.999555,113.035103 C855.999555,113.57784 856.46567,114 857.065873,114 C859.199218,114 859.199218,114 859.199218,114 C859.199218,112.070205 859.199218,112.070205 859.199218,112.070205 C858.1329,112.070205 858.1329,112.070205 858.1329,112.070205 C858.1329,103.385987 858.1329,103.385987 858.1329,103.385987 C864.532936,103.385987 864.532936,103.385987 864.532936,103.385987 C864.532936,109.175442 864.532936,109.175442 864.532936,109.175442 C863.466618,109.175442 863.466618,109.175442 863.466618,109.175442 C863.099828,109.175442 862.766382,109.326199 862.566314,109.597603 C860.432969,112.492295 860.432969,112.492295 860.432969,112.492295 C860.132867,112.944635 860.266246,113.547731 860.73307,113.849244 C860.899793,113.939712 861.133205,114 861.332564,114 C869.866655,114 869.866655,114 869.866655,114 C870.466858,114 870.933682,113.57784 870.933682,113.035103 C870.933682,112.854167 870.866993,112.643122 870.766959,112.492295 C868.633614,109.597603 868.633614,109.597603 868.633614,109.597603 C868.433546,109.326199 868.1001,109.175442 867.733309,109.175442 C866.666282,109.175442 866.666282,109.175442 866.666282,109.175442 C866.666282,103.295519 866.666282,103.295519 866.666282,103.295519 C870.133411,102.752712 872.466825,99.7373718 871.866622,96.6014551 C871.333108,93.8272692 868.700303,91.8371859 865.599964,91.8070064 C858.1329,91.8070064 858.1329,91.8070064 858.1329,91.8070064 C858.1329,81.1929936 858.1329,81.1929936 858.1329,81.1929936 C858.1329,80.6501859 857.666076,80.2280962 857.065873,80.2280962 C848.532491,80.2280962 848.532491,80.2280962 848.532491,80.2280962 C847.932288,80.2280962 847.465464,79.8059359 847.465464,79.2631282 C847.465464,78.720391 847.932288,78.2982308 848.532491,78.2982308 C853.8655,78.2982308 853.8655,78.2982308 853.8655,78.2982308 C854.465703,78.2982308 854.932527,77.8760705 854.932527,77.3333333 C854.932527,76.6699487 854.932527,76.6699487 854.932527,76.6699487 C854.932527,75.0114872 856.332291,73.6244295 858.1329,73.5038526 C858.1329,76.3684359 858.1329,76.3684359 858.1329,76.3684359 C858.1329,76.9111731 858.599725,77.3333333 859.199218,77.3333333 C865.599964,77.3333333 865.599964,77.3333333 865.599964,77.3333333 C866.199457,77.3333333 866.666282,76.9111731 866.666282,76.3684359 C866.666282,73.5038526 866.666282,73.5038526 866.666282,73.5038526 C868.466891,73.6244295 869.866655,75.0114872 869.866655,76.6699487 C869.866655,92.7719038 869.866655,92.7719038 869.866655,92.7719038 L872,92.7719038 Z M844.265091,86.0175513 C846.398436,86.0175513 846.398436,86.0175513 846.398436,86.0175513 C846.398436,88.9123141 846.398436,88.9123141 846.398436,88.9123141 C848.532491,88.9123141 848.532491,88.9123141 848.532491,88.9123141 C848.532491,86.0175513 848.532491,86.0175513 848.532491,86.0175513 C850.665836,86.0175513 850.665836,86.0175513 850.665836,86.0175513 C850.665836,91.8070064 850.665836,91.8070064 850.665836,91.8070064 C844.265091,91.8070064 844.265091,91.8070064 844.265091,91.8070064 L844.265091,86.0175513 Z M829.330964,86.0175513 C831.464309,86.0175513 831.464309,86.0175513 831.464309,86.0175513 C831.464309,88.9123141 831.464309,88.9123141 831.464309,88.9123141 C833.597654,88.9123141 833.597654,88.9123141 833.597654,88.9123141 C833.597654,86.0175513 833.597654,86.0175513 833.597654,86.0175513 C835.731709,86.0175513 835.731709,86.0175513 835.731709,86.0175513 C835.731709,91.8070064 835.731709,91.8070064 835.731709,91.8070064 C829.330964,91.8070064 829.330964,91.8070064 829.330964,91.8070064 L829.330964,86.0175513 Z M814.396836,86.0175513 C816.530182,86.0175513 816.530182,86.0175513 816.530182,86.0175513 C816.530182,88.9123141 816.530182,88.9123141 816.530182,88.9123141 C818.663527,88.9123141 818.663527,88.9123141 818.663527,88.9123141 C818.663527,86.0175513 818.663527,86.0175513 818.663527,86.0175513 C820.797582,86.0175513 820.797582,86.0175513 820.797582,86.0175513 C820.797582,91.8070064 820.797582,91.8070064 820.797582,91.8070064 C814.396836,91.8070064 814.396836,91.8070064 814.396836,91.8070064 L814.396836,86.0175513 Z M810.130145,97.5964615 C810.130145,95.4556218 812.030079,93.7368718 814.396836,93.7368718 C814.430181,93.7368718 814.430181,93.7368718 814.430181,93.7368718 C812.063423,95.3047949 811.563254,98.2900256 813.297174,100.430936 C813.596566,100.822917 813.996701,101.154609 814.430181,101.456122 C814.396836,101.456122 814.396836,101.456122 814.396836,101.456122 C812.030079,101.456122 810.130145,99.7373718 810.130145,97.5964615 Z M815.964033,111.105237 C816.66356,112.070205 816.66356,112.070205 816.66356,112.070205 C812.130112,112.070205 812.130112,112.070205 812.130112,112.070205 C812.830349,111.105237 812.830349,111.105237 812.830349,111.105237 L815.964033,111.105237 Z M817.597209,100.491224 C815.830654,100.491224 814.396836,99.1946346 814.396836,97.5964615 C814.396836,95.998359 815.830654,94.7017692 817.597209,94.7017692 C819.363764,94.7017692 820.797582,95.998359 820.797582,97.5964615 C820.797582,99.1946346 819.363764,100.491224 817.597209,100.491224 Z M820.764237,101.456122 C822.130657,100.551513 822.930927,99.1343462 822.930927,97.5964615 C822.930927,96.0586474 822.130657,94.6414808 820.764237,93.7368718 C829.364308,93.7368718 829.364308,93.7368718 829.364308,93.7368718 C826.99755,95.3047949 826.497381,98.2900256 828.231301,100.430936 C828.531402,100.822917 828.930828,101.154609 829.364308,101.456122 L820.764237,101.456122 Z M832.531336,100.491224 C830.764782,100.491224 829.330964,99.1946346 829.330964,97.5964615 C829.330964,95.998359 830.764782,94.7017692 832.531336,94.7017692 C834.297891,94.7017692 835.731709,95.998359 835.731709,97.5964615 C835.731709,99.1946346 834.297891,100.491224 832.531336,100.491224 Z M835.698365,101.456122 C837.064784,100.551513 837.865055,99.1343462 837.865055,97.5964615 C837.865055,96.0586474 837.064784,94.6414808 835.698365,93.7368718 C844.298435,93.7368718 844.298435,93.7368718 844.298435,93.7368718 C841.931678,95.3047949 841.431509,98.2900256 843.165428,100.430936 C843.46553,100.822917 843.864956,101.154609 844.298435,101.456122 L835.698365,101.456122 Z M847.465464,100.491224 C845.698909,100.491224 844.265091,99.1946346 844.265091,97.5964615 C844.265091,95.998359 845.698909,94.7017692 847.465464,94.7017692 C849.232018,94.7017692 850.665836,95.998359 850.665836,97.5964615 C850.665836,99.1946346 849.232018,100.491224 847.465464,100.491224 Z M867.166451,111.105237 C867.866688,112.070205 867.866688,112.070205 867.866688,112.070205 C863.33324,112.070205 863.33324,112.070205 863.33324,112.070205 C864.032767,111.105237 864.032767,111.105237 864.032767,111.105237 L867.166451,111.105237 Z M865.599964,93.7368718 C867.966721,93.7368718 869.866655,95.4556218 869.866655,97.5964615 C869.866655,99.7373718 867.966721,101.456122 865.599964,101.456122 C865.566619,101.456122 865.566619,101.456122 865.566619,101.456122 C867.933377,99.8881282 868.433546,96.9029679 866.699626,94.7620577 C866.399525,94.3700769 866.000099,94.0383846 865.566619,93.7368718 L865.599964,93.7368718 Z M862.399591,94.7017692 C864.166146,94.7017692 865.599964,95.998359 865.599964,97.5964615 C865.599964,99.1946346 864.166146,100.491224 862.399591,100.491224 C860.633036,100.491224 859.199218,99.1946346 859.199218,97.5964615 C859.199218,95.998359 860.633036,94.7017692 862.399591,94.7017692 Z M859.232563,93.7368718 C857.866143,94.6414808 857.065873,96.0586474 857.065873,97.5964615 C857.065873,99.1343462 857.866143,100.551513 859.232563,101.456122 C850.632492,101.456122 850.632492,101.456122 850.632492,101.456122 C852.99925,99.8881282 853.499419,96.9029679 851.765499,94.7620577 C851.465398,94.3700769 851.065972,94.0383846 850.632492,93.7368718 L859.232563,93.7368718 Z M859.199218,61.6836474 C859.199218,62.8596603 859.199218,62.8596603 859.199218,62.8596603 C861.332564,62.8596603 861.332564,62.8596603 861.332564,62.8596603 C861.332564,60.9901538 861.332564,60.9901538 861.332564,60.9901538 C862.0328,60.8996859 862.766382,60.8996859 863.466618,60.9901538 C863.466618,62.8596603 863.466618,62.8596603 863.466618,62.8596603 C865.599964,62.8596603 865.599964,62.8596603 865.599964,62.8596603 C865.599964,61.6836474 865.599964,61.6836474 865.599964,61.6836474 C866.699626,62.4375 867.399863,63.5531538 867.533242,64.7894551 C857.26594,64.7894551 857.26594,64.7894551 857.26594,64.7894551 C857.399319,63.5531538 858.099556,62.4375 859.199218,61.6836474 Z M864.532936,75.4035385 C860.266246,75.4035385 860.266246,75.4035385 860.266246,75.4035385 C860.266246,73.4736731 860.266246,73.4736731 860.266246,73.4736731 C864.532936,73.4736731 864.532936,73.4736731 864.532936,73.4736731 L864.532936,75.4035385 Z M862.399591,71.5438782 C860.633036,71.5438782 857.065873,69.3125 857.065873,66.7193205 C867.733309,66.7193205 867.733309,66.7193205 867.733309,66.7193205 C867.733309,69.3125 864.166146,71.5438782 862.399591,71.5438782 Z" id="Fill-54" stroke="#251E3E" fill="#251E3E"></path>
                <text id="Utilities" font-family="LucidaGrande, Lucida Grande" font-size="20" font-weight="normal" letter-spacing="0.001692308" fill="#251E3E">
                    <tspan x="431" y="186">Utilities</tspan>
                </text>
                <text id="Construction-(Marine" font-family="LucidaGrande, Lucida Grande" font-size="20" font-weight="normal" letter-spacing="0.001692308" fill="#3E3E3E">
                    <tspan x="584.984117" y="186">Construction </tspan>
                    <tspan x="567.924222" y="209">(Marine terminal  </tspan>
                    <tspan x="599.164651" y="232">and Plant)  </tspan>
                </text>
                <text id="Commissioning" font-family="LucidaGrande, Lucida Grande" font-size="20" font-weight="normal" letter-spacing="0.001692308" fill="#251E3E">
                    <tspan x="757.098375" y="186">Commissioning</tspan>
                </text>
                <text id="Operation" font-family="LucidaGrande, Lucida Grande" font-size="20" font-weight="normal" letter-spacing="0.001692308" fill="#251E3E">
                    <tspan x="989.764846" y="186">Operation</tspan>
                </text>
                <text id="EPC-execute-contract" font-family="LucidaGrande, Lucida Grande" font-size="20" font-weight="normal" letter-spacing="0.001692308" fill="#3E3E3E">
                    <tspan x="213.544534" y="186">EPC execute </tspan>
                    <tspan x="227.707228" y="209">contracts</tspan>
                </text>
                <text id="Build-pipeline-and-i" font-family="LucidaGrande, Lucida Grande" font-size="20" font-weight="normal" letter-spacing="0.001692308" fill="#3E3E3E">
                    <tspan x="5.49173557" y="186">Build pipeline and </tspan>
                    <tspan x="3.38808954" y="209">increase upstream </tspan>
                    <tspan x="39.3616556" y="232">production</tspan>
                </text>
                <path d="M1018.02156,89.2753417 C1017.06613,89.0786917 1016.1107,89 1015.11251,89 C1007.86171,89 1002,94.3105792 1002,100.879908 C1002,103.240183 1002.73817,105.521767 1004.2145,107.488583 C1004.43176,107.80335 1004.8218,108 1005.21269,108 C1005.47358,108 1005.69083,107.921308 1005.90809,107.80335 C1006.47177,107.449237 1006.6454,106.741171 1006.25536,106.229833 C1005.08268,104.656317 1004.47453,102.807458 1004.47453,100.879908 C1004.47453,95.5693292 1009.2508,91.2422375 1015.11251,91.2422375 C1015.8943,91.2422375 1016.71886,91.3209292 1017.45702,91.4782333 C1018.15157,91.5962708 1018.80335,91.2422375 1018.97698,90.6128625 C1019.10699,90.0227542 1018.67248,89.432725 1018.02156,89.2753417 Z" id="Fill-2-Copy" fill="#251E3E"></path>
                <path d="M1028.68082,97.9223009 C1028.49904,97.2685931 1027.81545,96.9008071 1027.13186,97.0234024 C1026.40304,97.1868092 1025.99255,97.799786 1026.12995,98.4126823 C1026.31173,99.1481739 1026.40304,99.924477 1026.40304,100.660049 C1026.40304,106.176196 1021.39091,110.67093 1015.24031,110.67093 C1013.00777,110.67093 1010.86653,110.098845 1009.04363,108.995648 C1008.45136,108.627862 1007.63122,108.791349 1007.22073,109.322542 C1006.81108,109.853735 1006.99372,110.589226 1007.58599,110.91612 C1009.86377,112.3054 1012.50681,113 1015.24031,113 C1022.8494,113 1029,107.483773 1029,100.660049 C1029,99.7201782 1028.90868,98.8212798 1028.68082,97.9223009 Z" id="Fill-3-Copy" fill="#251E3E"></path>
                <path d="M1025.80351,93.638646 C1025.40497,92.8173092 1024.91384,91.9959724 1024.42351,91.3287065 C1024.05557,90.8153386 1023.50324,90.9179949 1023.19649,91.5340191 C1022.88973,92.1500433 1022.95092,93.0740363 1023.31887,93.5873178 C1023.71821,94.1520139 1024.11676,94.768038 1024.45411,95.4866321 C1024.60708,95.8460156 1024.88324,96 1025.12881,96 C1025.31319,96 1025.49676,95.8973437 1025.68113,95.6920311 C1026.04908,95.1786632 1026.11027,94.2546702 1025.80351,93.638646 Z" id="Fill-4-Copy" fill="#251E3E"></path>
                <path d="M1016.52083,94 C1012.36583,94 1009,97.1325778 1009,101 C1009,104.867422 1012.36583,108 1016.52083,108 C1020.63417,108 1024,104.867422 1024,101 C1024,97.1325778 1020.63417,94 1016.52083,94 Z M1016.52083,105.795544 C1013.695,105.795544 1011.36833,103.629822 1011.36833,101 C1011.36833,98.3701778 1013.695,96.2044556 1016.52083,96.2044556 C1019.34667,96.2044556 1021.63167,98.3701778 1021.63167,101 C1021.63167,103.629822 1019.34667,105.795544 1016.52083,105.795544 Z" id="Fill-5-Copy" fill="#251E3E"></path>
                <path d="M1038.38795,96.6041397 C1036.30715,96.6041397 1036.30715,96.6041397 1036.30715,96.6041397 C1035.7759,94.7682224 1034.97945,93.0546672 1033.96115,91.4227138 C1035.4223,90.0355655 1035.4223,90.0355655 1035.4223,90.0355655 C1035.9085,89.5867966 1036.17455,88.9748241 1036.17455,88.3220103 C1036.17455,87.7100379 1035.9085,87.0980655 1035.4223,86.6492966 C1031.6143,83.1406655 1031.6143,83.1406655 1031.6143,83.1406655 C1030.596,82.2022862 1028.95805,82.2022862 1027.93975,83.1406655 C1026.43525,84.4869724 1026.43525,84.4869724 1026.43525,84.4869724 C1024.66385,83.5078328 1022.7607,82.8142586 1020.8125,82.3246483 C1020.8125,80.4071293 1020.8125,80.4071293 1020.8125,80.4071293 C1020.8125,79.0607414 1019.6174,78 1018.20045,78 C1012.79955,78 1012.79955,78 1012.79955,78 C1011.3826,78 1010.1875,79.0607414 1010.1875,80.4071293 C1010.1875,82.3246483 1010.1875,82.3246483 1010.1875,82.3246483 C1008.1951,82.8142586 1006.33615,83.5078328 1004.56475,84.4869724 C1003.06025,83.1406655 1003.06025,83.1406655 1003.06025,83.1406655 C1002.04195,82.2022862 1000.404,82.2022862 999.3857,83.1406655 C995.57855,86.6492966 995.57855,86.6492966 995.57855,86.6492966 C995.0915,87.0980655 994.78125,87.7100379 994.78125,88.3220103 C994.78125,88.9748241 995.0915,89.5867966 995.57855,90.0355655 C997.03885,91.4227138 997.03885,91.4227138 997.03885,91.4227138 C995.97635,93.0546672 995.2241,94.7682224 994.69285,96.6041397 C992.61205,96.6041397 992.61205,96.6041397 992.61205,96.6041397 C991.1509,96.6041397 990,97.7057224 990,99.011269 C990,103.988731 990,103.988731 990,103.988731 C990,105.294278 991.1509,106.39586 992.61205,106.39586 C994.69285,106.39586 994.69285,106.39586 994.69285,106.39586 C995.2241,108.231778 995.97635,109.945333 997.03885,111.577286 C995.57855,112.964434 995.57855,112.964434 995.57855,112.964434 C994.56025,113.902814 994.56025,115.412324 995.57855,116.350703 C999.3857,119.859416 999.3857,119.859416 999.3857,119.859416 C1000.404,120.797714 1002.04195,120.797714 1003.06025,119.859416 C1004.56475,118.513028 1004.56475,118.513028 1004.56475,118.513028 C1006.33615,119.492167 1008.1951,120.185741 1010.1875,120.675352 C1010.1875,122.592871 1010.1875,122.592871 1010.1875,122.592871 C1010.1875,123.898417 1011.3826,125 1012.79955,125 C1018.20045,125 1018.20045,125 1018.20045,125 C1019.6174,125 1020.8125,123.898417 1020.8125,122.592871 C1020.8125,120.675352 1020.8125,120.675352 1020.8125,120.675352 C1022.7607,120.185741 1024.66385,119.492167 1026.43525,118.513028 C1027.93975,119.859416 1027.93975,119.859416 1027.93975,119.859416 C1028.95805,120.797714 1030.596,120.797714 1031.6143,119.859416 C1035.4223,116.350703 1035.4223,116.350703 1035.4223,116.350703 C1036.43975,115.412324 1036.43975,113.902814 1035.4223,112.964434 C1033.96115,111.577286 1033.96115,111.577286 1033.96115,111.577286 C1034.97945,109.945333 1035.7759,108.231778 1036.30715,106.39586 C1038.38795,106.39586 1038.38795,106.39586 1038.38795,106.39586 C1039.8049,106.39586 1041,105.294278 1041,103.988731 C1041,99.011269 1041,99.011269 1041,99.011269 C1041,97.7057224 1039.8049,96.6041397 1038.38795,96.6041397 Z M1038.38795,104.070333 C1035.28885,104.070333 1035.28885,104.070333 1035.28885,104.070333 C1034.6692,104.070333 1034.18215,104.4375 1034.04955,105.008712 C1033.5625,107.171036 1032.6326,109.251759 1031.3049,111.128436 C1030.95045,111.577286 1031.03885,112.189259 1031.4375,112.597186 C1033.6509,114.596388 1033.6509,114.596388 1033.6509,114.596388 C1033.6951,114.637148 1033.6951,114.67799 1033.6509,114.71875 C1029.84375,118.227462 1029.84375,118.227462 1029.84375,118.227462 C1029.79955,118.268222 1029.75535,118.268222 1029.71115,118.227462 C1027.54195,116.1875 1027.54195,116.1875 1027.54195,116.1875 C1027.0991,115.820333 1026.43525,115.738731 1025.9482,116.065138 C1023.9116,117.289083 1021.654,118.14586 1019.26295,118.594629 C1018.6875,118.716991 1018.28885,119.165841 1018.28885,119.736972 C1018.28885,122.592871 1018.28885,122.592871 1018.28885,122.592871 C1018.28885,122.633712 1018.24465,122.674472 1018.20045,122.674472 C1012.79955,122.674472 1012.79955,122.674472 1012.79955,122.674472 C1012.75535,122.674472 1012.71115,122.633712 1012.71115,122.592871 C1012.71115,119.736972 1012.71115,119.736972 1012.71115,119.736972 C1012.71115,119.165841 1012.3125,118.716991 1011.69285,118.594629 C1009.346,118.14586 1007.0884,117.289083 1005.0518,116.065138 C1004.8308,115.901934 1004.6098,115.861093 1004.34375,115.861093 C1004.0335,115.861093 1003.7241,115.983536 1003.45805,116.1875 C1001.28885,118.227462 1001.28885,118.227462 1001.28885,118.227462 C1001.24465,118.268222 1001.20045,118.268222 1001.15625,118.227462 C997.3491,114.71875 997.3491,114.71875 997.3491,114.71875 C997.3049,114.67799 997.3049,114.637148 997.3491,114.596388 C999.5625,112.597186 999.5625,112.597186 999.5625,112.597186 C999.96115,112.189259 1000.04955,111.577286 999.6951,111.128436 C998.3674,109.251759 997.4375,107.171036 996.95045,105.008712 C996.81785,104.4375 996.2866,104.070333 995.71115,104.070333 C992.61205,104.070333 992.61205,104.070333 992.61205,104.070333 C992.56785,104.070333 992.52365,104.029491 992.52365,103.988731 C992.52365,99.011269 992.52365,99.011269 992.52365,99.011269 C992.52365,98.9705086 992.56785,98.9296672 992.61205,98.9296672 C995.71115,98.9296672 995.71115,98.9296672 995.71115,98.9296672 C996.2866,98.9296672 996.81785,98.5625 996.95045,97.9912879 C997.4375,95.8289638 998.3674,93.7482414 999.6951,91.8715638 C1000.04955,91.4227138 999.96115,90.8107414 999.5625,90.4028138 C997.3491,88.4036121 997.3491,88.4036121 997.3491,88.4036121 C997.3049,88.3628517 997.3049,88.3220103 997.3491,88.28125 C1001.15625,84.7725379 1001.15625,84.7725379 1001.15625,84.7725379 C1001.20045,84.7317776 1001.24465,84.7317776 1001.28885,84.7725379 C1003.45805,86.8125 1003.45805,86.8125 1003.45805,86.8125 C1003.9009,87.1796672 1004.56475,87.261269 1005.0518,86.9348621 C1007.0884,85.7109172 1009.346,84.8541397 1011.69285,84.4053707 C1012.3125,84.2830086 1012.71115,83.8342397 1012.71115,83.2630276 C1012.71115,80.4071293 1012.71115,80.4071293 1012.71115,80.4071293 C1012.71115,80.3662879 1012.75535,80.3255276 1012.79955,80.3255276 C1018.20045,80.3255276 1018.20045,80.3255276 1018.20045,80.3255276 C1018.24465,80.3255276 1018.28885,80.3662879 1018.28885,80.4071293 C1018.28885,83.2630276 1018.28885,83.2630276 1018.28885,83.2630276 C1018.28885,83.8342397 1018.6875,84.2830086 1019.26295,84.4053707 C1021.654,84.8541397 1023.9116,85.7109172 1025.9482,86.9348621 C1026.43525,87.261269 1027.0991,87.1796672 1027.54195,86.8125 C1029.71115,84.7725379 1029.71115,84.7725379 1029.71115,84.7725379 C1029.75535,84.7317776 1029.79955,84.7317776 1029.84375,84.7725379 C1033.6509,88.28125 1033.6509,88.28125 1033.6509,88.28125 C1033.6951,88.3220103 1033.6951,88.3628517 1033.6509,88.4036121 C1031.4375,90.4028138 1031.4375,90.4028138 1031.4375,90.4028138 C1031.03885,90.8107414 1030.95045,91.4227138 1031.3049,91.8715638 C1032.6326,93.7482414 1033.5625,95.8289638 1034.04955,97.9912879 C1034.18215,98.5625 1034.6692,98.9296672 1035.28885,98.9296672 C1038.38795,98.9296672 1038.38795,98.9296672 1038.38795,98.9296672 C1038.43215,98.9296672 1038.47635,98.9705086 1038.47635,99.011269 C1038.47635,103.988731 1038.47635,103.988731 1038.47635,103.988731 C1038.47635,104.029491 1038.43215,104.070333 1038.38795,104.070333 Z" id="Fill-6-Copy" fill="#251E3E"></path>
                <path d="M1047.19811,67.19136 C1046.73869,67.07656 1046.24112,67 1045.74274,67 C1042.60392,67 1040,69.60288 1040,72.77992 C1040,73.2392 1040.0763,73.73688 1040.19156,74.19616 C1040.30601,74.69376 1040.76543,75 1041.26381,75 C1041.34011,75 1041.41641,75 1041.53167,75 C1042.10554,74.84688 1042.45051,74.23448 1042.2971,73.66032 C1042.2208,73.35408 1042.18265,73.04784 1042.18265,72.77992 C1042.18265,70.78944 1043.79061,69.18184 1045.74274,69.18184 C1046.04956,69.18184 1046.35557,69.22008 1046.66239,69.29664 C1047.23626,69.44976 1047.81094,69.10528 1047.96353,68.53112 C1048.11694,67.95696 1047.77197,67.34448 1047.19811,67.19136 Z" id="Fill-7-Copy" fill="#251E3E"></path>
                <path d="M1052.76152,71.0294708 C1052.57124,70.3136998 1051.80928,69.8842878 1051.09383,70.0274252 C1050.37923,70.2182749 1049.95047,70.9817583 1050.14159,71.697445 C1050.23631,72.0792288 1050.23631,72.4609283 1050.23631,72.8426279 C1050.23631,75.276131 1048.28363,77.2802222 1045.80578,77.2802222 C1045.42438,77.2802222 1045.09118,77.2325098 1044.70977,77.1370849 C1043.99517,76.9462351 1043.23321,77.3756471 1043.04209,78.0913337 C1042.85181,78.8071046 1043.32793,79.570588 1044.04253,79.7614378 C1044.61506,79.9045751 1045.2341,80 1045.80578,80 C1049.76019,80 1053,76.755301 1053,72.8426279 C1053,72.2223661 1052.90444,71.6020201 1052.76152,71.0294708 Z" id="Fill-8-Copy" fill="#251E3E"></path>
                <path d="M1059.48039,69.6548197 C1057.474,69.6548197 1057.474,69.6548197 1057.474,69.6548197 C1057.00383,68.2799673 1056.23572,66.9911147 1055.29625,65.8740983 C1056.32097,64.1125738 1056.32097,64.1125738 1056.32097,64.1125738 C1057.00383,62.9096393 1056.57672,61.3629509 1055.3815,60.6326065 C1053.16156,59.3436722 1053.16156,59.3436722 1053.16156,59.3436722 C1052.56308,59 1051.88022,58.9140819 1051.23956,59.0859181 C1050.59889,59.2577542 1050.04433,59.6874262 1049.70247,60.2459344 C1048.67775,62.050377 1048.67775,62.050377 1048.67775,62.050377 C1047.22592,61.749623 1045.77408,61.749623 1044.32225,62.050377 C1043.34058,60.2459344 1043.34058,60.2459344 1043.34058,60.2459344 C1042.99872,59.6874262 1042.44331,59.2577542 1041.80264,59.0859181 C1041.16283,58.9140819 1040.47911,59 1039.8815,59.3436722 C1037.66156,60.6326065 1037.66156,60.6326065 1037.66156,60.6326065 C1036.42328,61.3629509 1036.03836,62.9096393 1036.72208,64.1125738 C1037.74681,65.8740983 1037.74681,65.8740983 1037.74681,65.8740983 C1036.76428,66.9911147 1036.03836,68.2799673 1035.56906,69.6548197 C1033.51961,69.6548197 1033.51961,69.6548197 1033.51961,69.6548197 C1032.15303,69.6548197 1031,70.814836 1031,72.1896066 C1031,74.8103934 1031,74.8103934 1031,74.8103934 C1031,76.185164 1032.15303,77.3451803 1033.51961,77.3451803 C1035.56906,77.3451803 1035.56906,77.3451803 1035.56906,77.3451803 C1036.03836,78.719951 1036.76428,80.0088853 1037.74681,81.1259017 C1036.72208,82.8873444 1036.72208,82.8873444 1036.72208,82.8873444 C1036.03836,84.0903607 1036.42328,85.6370491 1037.66156,86.3673935 C1039.8815,87.656246 1039.8815,87.656246 1039.8815,87.656246 C1040.26556,87.871082 1040.73572,88 1041.16283,88 C1042.01619,88 1042.87042,87.5274098 1043.34058,86.7540656 C1044.32225,84.949623 1044.32225,84.949623 1044.32225,84.949623 C1045.77408,85.250377 1047.22592,85.250377 1048.67775,84.949623 C1049.70247,86.7540656 1049.70247,86.7540656 1049.70247,86.7540656 C1050.38533,87.9570001 1051.92328,88.3436722 1053.16156,87.656246 C1055.3815,86.3673935 1055.3815,86.3673935 1055.3815,86.3673935 C1056.57672,85.6370491 1057.00383,84.0903607 1056.32097,82.8873444 C1055.29625,81.1259017 1055.29625,81.1259017 1055.29625,81.1259017 C1056.23572,80.0088853 1057.00383,78.719951 1057.474,77.3451803 C1059.48039,77.3451803 1059.48039,77.3451803 1059.48039,77.3451803 C1060.89003,77.3451803 1062,76.185164 1062,74.8103934 C1062,72.1896066 1062,72.1896066 1062,72.1896066 C1062,70.814836 1060.89003,69.6548197 1059.48039,69.6548197 Z M1059.5665,74.8103934 C1059.5665,74.8533115 1059.5665,74.8963114 1059.48039,74.8963114 C1056.57672,74.8963114 1056.57672,74.8963114 1056.57672,74.8963114 C1056.02217,74.8963114 1055.50981,75.2829836 1055.3815,75.7984919 C1054.95439,77.4310984 1054.14322,78.8918688 1052.948,80.0948033 C1052.56308,80.4814754 1052.47783,81.0829018 1052.73444,81.5555737 C1054.18628,84.1332788 1054.18628,84.1332788 1054.18628,84.1332788 C1054.22847,84.1762787 1054.22847,84.2191969 1054.18628,84.2191969 C1051.92328,85.5510493 1051.92328,85.5510493 1051.92328,85.5510493 C1051.88022,85.5510493 1051.83717,85.5510493 1051.79497,85.5081312 C1050.34314,82.9733442 1050.34314,82.9733442 1050.34314,82.9733442 C1050.08653,82.4577542 1049.48892,82.2429182 1048.97656,82.3718361 C1048.16539,82.6295903 1047.31117,82.7155083 1046.5,82.7155083 C1045.68883,82.7155083 1044.87767,82.6295903 1044.0665,82.3718361 C1043.51108,82.2429182 1042.95567,82.4577542 1042.69992,82.9733442 C1041.20503,85.5081312 1041.20503,85.5081312 1041.20503,85.5081312 C1041.20503,85.5510493 1041.16283,85.5510493 1041.11978,85.5510493 C1038.85678,84.2191969 1038.85678,84.2191969 1038.85678,84.2191969 C1038.81372,84.2191969 1038.81372,84.1762787 1038.81372,84.1332788 C1040.30861,81.5555737 1040.30861,81.5555737 1040.30861,81.5555737 C1040.56436,81.0829018 1040.47911,80.4814754 1040.09506,80.0948033 C1038.89983,78.8918688 1038.04561,77.4310984 1037.66156,75.7984919 C1037.49019,75.2829836 1037.02089,74.8963114 1036.46547,74.8963114 C1033.51961,74.8963114 1033.51961,74.8963114 1033.51961,74.8963114 C1033.47656,74.8963114 1033.4335,74.8533115 1033.4335,74.8103934 C1033.4335,72.1896066 1033.4335,72.1896066 1033.4335,72.1896066 C1033.4335,72.1466885 1033.47656,72.1036886 1033.51961,72.1036886 C1036.46547,72.1036886 1036.46547,72.1036886 1036.46547,72.1036886 C1037.02089,72.1036886 1037.49019,71.7170164 1037.66156,71.2015081 C1038.04561,69.5689016 1038.89983,68.1081312 1040.09506,66.9051967 C1040.47911,66.5185246 1040.56436,65.9170164 1040.30861,65.4444263 C1038.81372,62.8666394 1038.81372,62.8666394 1038.81372,62.8666394 C1038.81372,62.8237213 1038.81372,62.7807214 1038.85678,62.7807214 C1041.11978,61.4488689 1041.11978,61.4488689 1041.11978,61.4488689 C1041.11978,61.4488689 1041.11978,61.4488689 1041.16283,61.4488689 C1041.20503,61.4488689 1041.20503,61.4918688 1041.20503,61.4918688 C1042.69992,64.0696557 1042.69992,64.0696557 1042.69992,64.0696557 C1042.95567,64.5422458 1043.51108,64.7570001 1044.0665,64.6281639 C1044.87767,64.3704097 1045.73103,64.2844099 1046.5,64.2844099 C1047.31117,64.2844099 1048.16539,64.3704097 1048.97656,64.6281639 C1049.48892,64.7570001 1050.08653,64.5422458 1050.34314,64.0696557 C1051.79497,61.4918688 1051.79497,61.4918688 1051.79497,61.4918688 C1051.83717,61.4918688 1051.83717,61.4488689 1051.88022,61.4488689 C1051.88022,61.4488689 1051.92328,61.4488689 1051.92328,61.4488689 C1054.18628,62.7807214 1054.18628,62.7807214 1054.18628,62.7807214 C1054.22847,62.7807214 1054.22847,62.8237213 1054.18628,62.8666394 C1052.73444,65.4444263 1052.73444,65.4444263 1052.73444,65.4444263 C1052.47783,65.9170164 1052.56308,66.5185246 1052.948,66.9051967 C1054.14322,68.1081312 1054.95439,69.5689016 1055.3815,71.2015081 C1055.50981,71.7170164 1056.02217,72.1036886 1056.57672,72.1036886 C1059.48039,72.1036886 1059.48039,72.1036886 1059.48039,72.1036886 C1059.5665,72.1036886 1059.5665,72.1466885 1059.5665,72.1896066 L1059.5665,74.8103934 Z" id="Fill-9-Copy" fill="#251E3E"></path>
                <path d="M1060.73909,97.7630727 C1059.16382,97.7630727 1059.16382,97.7630727 1059.16382,97.7630727 C1058.98332,96.9099545 1058.62318,96.0995455 1058.12832,95.4171 C1059.25364,94.3506818 1059.25364,94.3506818 1059.25364,94.3506818 C1059.7485,93.8815364 1059.7485,93.1137545 1059.25364,92.6445273 C1058.713,92.1326727 1057.90291,92.1326727 1057.40718,92.6445273 C1056.28186,93.6682364 1056.28186,93.6682364 1056.28186,93.6682364 C1055.56159,93.1990909 1054.70659,92.8578273 1053.80582,92.6872364 C1053.80582,91.1943 1053.80582,91.1943 1053.80582,91.1943 C1053.80582,90.5544818 1053.22027,90 1052.5,90 C1051.82464,90 1051.23909,90.5544818 1051.23909,91.1943 C1051.23909,92.6872364 1051.23909,92.6872364 1051.23909,92.6872364 C1050.33918,92.8578273 1049.48332,93.1990909 1048.71814,93.6682364 C1047.63773,92.6445273 1047.63773,92.6445273 1047.63773,92.6445273 C1047.09709,92.1326727 1046.287,92.1326727 1045.79127,92.6445273 C1045.29641,93.1137545 1045.29641,93.8815364 1045.79127,94.3506818 C1046.91745,95.4171 1046.91745,95.4171 1046.91745,95.4171 C1046.42173,96.0995455 1046.06159,96.9099545 1045.88109,97.7630727 C1044.30582,97.7630727 1044.30582,97.7630727 1044.30582,97.7630727 C1043.58555,97.7630727 1043,98.3175545 1043,99 C1043,99.6398182 1043.58555,100.1943 1044.30582,100.1943 C1045.88109,100.1943 1045.88109,100.1943 1045.88109,100.1943 C1046.06159,101.047418 1046.42173,101.857827 1046.91745,102.5829 C1045.79127,103.649318 1045.79127,103.649318 1045.79127,103.649318 C1045.29641,104.118464 1045.29641,104.886245 1045.79127,105.355473 C1046.06159,105.568691 1046.37682,105.696655 1046.69205,105.696655 C1047.05218,105.696655 1047.36741,105.568691 1047.63773,105.355473 C1048.71814,104.289136 1048.71814,104.289136 1048.71814,104.289136 C1049.48332,104.758282 1050.33918,105.099545 1051.23909,105.270136 C1051.23909,106.763073 1051.23909,106.763073 1051.23909,106.763073 C1051.23909,107.445518 1051.82464,108 1052.5,108 C1053.22027,108 1053.80582,107.445518 1053.80582,106.763073 C1053.80582,105.270136 1053.80582,105.270136 1053.80582,105.270136 C1054.70659,105.099545 1055.56159,104.758282 1056.28186,104.289136 C1057.40718,105.355473 1057.40718,105.355473 1057.40718,105.355473 C1057.6775,105.568691 1057.99273,105.696655 1058.30795,105.696655 C1058.66809,105.696655 1058.98332,105.568691 1059.25364,105.355473 C1059.7485,104.886245 1059.7485,104.118464 1059.25364,103.649318 C1058.12832,102.5829 1058.12832,102.5829 1058.12832,102.5829 C1058.62318,101.857827 1058.98332,101.047418 1059.16382,100.1943 C1060.73909,100.1943 1060.73909,100.1943 1060.73909,100.1943 C1061.45936,100.1943 1062,99.6398182 1062,99 C1062,98.3175545 1061.45936,97.7630727 1060.73909,97.7630727 Z M1052.5,102.966791 C1050.20359,102.966791 1048.31309,101.175382 1048.31309,99 C1048.31309,96.7819909 1050.20359,95.0332091 1052.5,95.0332091 C1054.84132,95.0332091 1056.73182,96.7819909 1056.73182,99 C1056.73182,101.175382 1054.84132,102.966791 1052.5,102.966791 Z" id="Fill-10-Copy" fill="#251E3E"></path>
                <path d="M1052.982,128 C1052.456,128 1052,128.4561 1052,129.0175 C1052,129.5439 1052.456,130 1052.982,130 C1053.544,130 1054,129.5439 1054,129.0175 C1054,128.4561 1053.544,128 1052.982,128 Z" id="Fill-11-Copy" fill="#251E3E"></path>
            </g>
        </g>
    </g>
</svg>