<?xml version="1.0" encoding="UTF-8"?>
<svg width="360px" height="497px" viewBox="0 0 360 497" version="1.1" xmlns="http://www.w3.org/2000/svg" xmlns:xlink="http://www.w3.org/1999/xlink">
    <!-- Generator: Sketch 51.1 (57501) - http://www.bohemiancoding.com/sketch -->
    <title>Resource Stats</title>
    <desc>Created with Sketch.</desc>
    <defs></defs>
    <g id="Resource-Stats" stroke="none" stroke-width="1" fill="none" fill-rule="evenodd">
        <g id="1-copy-2" transform="translate(22.000000, 0.000000)" fill="#E4E4E4">
            <path d="M31.823424,74.21028 L0.0522971295,74.21028 C0.150620914,74.042989 0.22634218,73.9048494 0.309973385,73.772446 C2.99636946,69.561585 5.68728604,65.3541094 8.3646364,61.1376063 C8.53868522,60.8626435 8.71951479,60.7717102 9.04047998,60.7717102 C13.6458846,60.7829005 18.2512986,60.7806437 22.8567126,60.7772583 C23.1042196,60.7772583 23.2918205,60.7940909 23.4511777,61.0445101 C26.1929481,65.36088 28.9460291,69.6693509 31.6968405,73.9789501 C31.7352648,74.0396037 31.764648,74.1035485 31.823424,74.21028" id="Fill-172-Copy"></path>
            <path d="M28.1525573,59.5124673 L2.87761206,59.5124673 C2.9454215,59.3765845 2.99627905,59.2587568 3.06182824,59.1498625 C5.08142833,55.7371835 7.10668282,52.3267613 9.11723343,48.9073116 C9.27546049,48.6390255 9.43933817,48.5469637 9.74674185,48.5469637 C13.5892926,48.5581541 17.4318433,48.5547688 21.2732639,48.5514775 C21.5196408,48.5514775 21.7117622,48.5604109 21.8665989,48.8220205 C23.9268845,52.3323094 26.0029918,55.8336649 28.0734485,59.3372773 C28.0949209,59.3743276 28.1096125,59.4158918 28.1525573,59.5124673" id="Fill-173-Copy"></path>
            <path d="M25.027921,47.6582011 L6.64469863,47.6582011 C6.71137606,47.5336028 6.75093047,47.433642 6.81309681,47.3472224 C8.71289508,44.7034799 10.6127028,42.058703 12.5294529,39.4251165 C12.6356848,39.2803003 12.8831918,39.1589932 13.0662816,39.1578647 C14.9039229,39.1377409 16.7426944,39.1399038 18.5803451,39.1557019 C18.7543845,39.1578647 18.9951108,39.2533118 19.0923016,39.3869377 C21.0361842,42.0553177 22.9631149,44.7349822 24.8922965,47.4134241 C24.932981,47.4706923 24.9601134,47.5369881 25.027921,47.6582011" id="Fill-174-Copy"></path>
            <path d="M23.0116162,37.5963179 L9.47001355,37.5963179 C11.7258203,33.411317 13.9578945,29.2689147 16.2396847,25.0378359 C18.5124434,29.2520821 20.7445175,33.3933561 23.0116162,37.5963179" id="Fill-175-Copy"></path>
            <polygon id="Fill-176-Copy" points="13.2371001 86.8552568 18.0312489 86.8552568 18.0312489 74.8771869 13.2371001 74.8771869"></polygon>
            <path d="M93.5016508,87.9823089 L35.8396195,87.9823089 C36.0181889,87.6781008 36.1549341,87.4266472 36.3086407,87.1875123 C41.1841548,79.5460114 46.0675892,71.9090242 50.9261609,64.2563329 C51.2426055,63.7567169 51.5692214,63.5916828 52.1535153,63.5928113 C60.5121907,63.6130291 68.8697454,63.6086094 77.2295509,63.6018388 C77.6770996,63.6018388 78.0195372,63.6343754 78.3077287,64.0867851 C83.2827034,71.9202145 88.2814106,79.7401968 93.2733654,87.5635643 C93.3411729,87.6724586 93.3965491,87.789252 93.5016508,87.9823089" id="Fill-177-Copy"></path>
            <path d="M87.3646713,61.8657366 L41.4902494,61.8657366 C41.6157028,61.6187968 41.707243,61.4055219 41.8247761,61.2079512 C45.4910272,55.0134841 49.16744,48.8234367 52.8167392,42.6177793 C53.1026705,42.1305761 53.4021633,41.9632852 53.9582041,41.9644136 C60.9313073,41.983503 67.9055313,41.9778608 74.8797647,41.9723127 C75.3250532,41.9723127 75.6742715,41.9880168 75.953422,42.4629011 C79.6942614,48.8324642 83.4610843,55.1874517 87.2200057,61.5469529 C87.2595601,61.614283 87.2866926,61.6906406 87.3646713,61.8657366" id="Fill-178-Copy"></path>
            <path d="M81.4473034,40.4923978 L48.0826509,40.4923978 C48.2024442,40.2668042 48.2759024,40.0838092 48.3877943,39.928837 C51.8381725,35.1297777 55.2862999,30.3284615 58.7638105,25.54962 C58.9559413,25.2857536 59.4046107,25.0668366 59.7368772,25.0635453 C63.071992,25.0287518 66.4093575,25.0309146 69.7456024,25.06016 C70.0620471,25.0635453 70.4982852,25.2386413 70.6734641,25.480033 C74.2007003,30.3228193 77.6985532,35.1870459 81.1997964,40.0490157 C81.2743847,40.1511393 81.3252404,40.271224 81.4473034,40.4923978" id="Fill-179-Copy"></path>
            <path d="M76.4285082,23.3814768 L51.8497375,23.3814768 C55.9443157,15.7860537 59.9982094,8.2680227 64.1379927,0.588342932 C68.2619636,8.23774295 72.3147178,15.7535171 76.4285082,23.3814768" id="Fill-180-Copy"></path>
            <polygon id="Fill-181-Copy" points="60.3256822 111.662041 69.0268018 111.662041 69.0268018 89.9230287 60.3256822 89.9230287"></polygon>
            <path d="M128.824783,74.21028 L97.0547763,74.21028 C97.1530973,74.042989 97.2276856,73.9048494 97.312445,73.772446 C99.9988486,69.561585 102.689773,65.3541094 105.367135,61.1376063 C105.541175,60.8626435 105.721995,60.7717102 106.042951,60.7717102 C110.648402,60.7829005 115.25376,60.7806437 119.858081,60.7772583 C120.105579,60.7772583 120.29431,60.7940909 120.453658,61.0445101 C123.195438,65.36088 125.948519,69.6693509 128.699339,73.9789501 C128.736634,74.0396037 128.767147,74.1035485 128.824783,74.21028" id="Fill-182-Copy"></path>
            <path d="M126.096848,59.5124673 L100.821863,59.5124673 C100.88967,59.3765845 100.940526,59.2587568 101.004943,59.1498625 C103.025703,55.7371835 105.050888,52.3267613 107.061477,48.9073116 C107.219694,48.6390255 107.383563,48.5469637 107.690957,48.5469637 C111.533574,48.5581541 115.376096,48.5547688 119.217488,48.5514775 C119.463856,48.5514775 119.655977,48.5604109 119.809769,48.8220205 C121.871118,52.3323094 123.946124,55.8336649 126.017739,59.3372773 C126.039211,59.3743276 126.053903,59.4158918 126.096848,59.5124673" id="Fill-183-Copy"></path>
            <path d="M122.031596,47.6582011 L103.647178,47.6582011 C103.714985,47.5336028 103.75454,47.433642 103.816697,47.3472224 C105.716533,44.7034799 107.616369,42.058703 109.533062,39.4251165 C109.639294,39.2803003 109.886792,39.1589932 110.069872,39.1578647 C111.907551,39.1377409 113.74636,39.1399038 115.583945,39.1557019 C115.757984,39.1578647 115.998701,39.2533118 116.094762,39.3869377 C118.038673,42.0553177 119.966762,44.7349822 121.895887,47.4134241 C121.936571,47.4706923 121.963694,47.5369881 122.031596,47.6582011" id="Fill-184-Copy"></path>
            <path d="M120.015263,37.5963179 L106.472493,37.5963179 C108.729448,33.411317 110.961541,29.2689147 113.24336,25.0378359 C115.516043,29.2520821 117.748136,33.3933561 120.015263,37.5963179" id="Fill-185-Copy"></path>
            <polygon id="Fill-186-Copy" points="111.181351 86.8552568 115.9755 86.8552568 115.9755 74.8771869 111.181351 74.8771869"></polygon>
        </g>
        <g id="tourist-svgrepo-com" transform="translate(232.000000, 2.000000)" fill="#E4E4E4" fill-rule="nonzero">
            <path d="M55.0445322,91.0822324 C54.9954401,90.5412045 54.8732616,90.0095331 54.681582,89.501253 L47.5800584,70.6858096 L48.5754135,64.1161454 L46.520994,64.0404675 C41.8768309,63.8692979 38.7357671,60.5375456 38.0090393,58.3420619 L31.5578475,38.8540487 L42.5947332,56.8307062 L42.595009,56.8312566 C43.4444669,58.2140975 44.9641141,59.161034 46.6991595,59.2248786 C55.32888,59.5424505 61.5180636,59.7848948 65.7532182,59.9563396 C67.1239344,60.0119284 68.4576937,59.5069507 69.4475329,58.5591886 C70.437372,57.6114265 71,56.3015115 71,54.9327053 C71,52.2149068 68.8443626,49.9844738 66.1225118,49.8854046 L49.7657578,49.2912645 L39.7708371,33.0119927 L51.5719591,44.3383547 L52.9531557,35.2206856 C53.5723223,31.1335305 50.7536664,27.3193662 46.6577898,26.7015596 L33.4316193,24.7066911 C32.8008692,24.6114746 32.1767383,24.5982654 31.5697068,24.6579821 L33.9553598,15.3424497 C35.4013689,18.7963875 38.5667029,21.435481 42.5470201,22.0359505 C48.6104399,22.9504143 54.2692639,18.7873061 55.1857408,12.7369297 C56.1024934,6.68682841 51.929945,1.04070934 45.8665252,0.12597035 C40.2441065,-0.722172116 34.9727787,2.79698618 33.50443,8.13681629 C32.6963417,7.03219466 31.5128924,6.19065681 30.0815006,5.82575191 L14.3417068,1.81317394 C11.069639,0.979066276 7.73937772,2.94916748 6.90343388,6.21404815 L5.17114643,12.9782733 C4.3349268,16.2431539 6.30964072,19.5661002 9.58170858,20.4002078 L12.3645107,21.1096534 C10.1826725,21.6451775 8.37922916,23.363753 7.8538339,25.6995847 L0.149691643,59.95689 C-0.589722884,63.2448868 1.48207194,66.5083915 4.77730684,67.2461819 L15.35885,69.6153118 C16.8084444,69.9397634 18.2527987,69.7212608 19.4795484,69.0949233 C19.5198149,69.6959431 19.650819,70.3010908 19.8827651,70.8916534 L27.3298636,89.8430418 L12.551226,109.068246 C10.5221799,111.70789 11.0216501,115.489032 13.6673806,117.513896 C16.3150418,119.540412 20.1042309,119.03736 22.1316223,116.400193 L38.9845369,94.4767286 C40.2719621,92.8019087 40.5869235,90.5769795 39.814689,88.6118317 L33.4633361,72.4495166 C33.3486041,72.1575377 33.3987993,71.8264814 33.5948917,71.5812851 C33.7909841,71.3360888 34.1031875,71.2139035 34.4142877,71.2609614 C34.7292491,71.3085696 34.9940152,71.5221188 35.106265,71.8196016 L43.0928244,92.9807836 L45.585487,120.517895 C45.8852795,123.829283 48.8181158,126.274366 52.1409305,125.975232 C55.4615388,125.676098 57.9100737,122.747502 57.6102813,119.434188 L55.0445322,91.0822324 Z" id="XMLID_237_"></path>
        </g>
        <g id="4-copy-2" transform="translate(43.000000, 195.000000)" fill="#E4E4E4">
            <path d="M37.5027602,0.689910523 C59.1669715,21.7423629 81.3224469,44.5080132 81.3224469,73.1475127 C81.3224469,101.788815 51.7376136,108.397791 51.7376136,108.397791 C51.7376136,108.397791 63.5973551,95.4236768 63.5973551,81.2258541 C63.5973551,67.0280239 45.6260637,48.9133964 45.6260637,48.9133964 C45.6260637,48.9133964 48.8266598,70.2069795 38.7325478,78.5309605 C38.7325478,78.5309605 31.8753601,74.7469236 29.4966911,62.9206687 C29.4966911,62.9206687 9.43834061,90.5288075 33.563792,108.397791 C33.563792,108.397791 0.0844170563,103.012532 0.0835088496,71.1904683 C0.0826006429,56.8932928 10.1331187,46.5228552 19.8094557,37.2099613 C29.0516698,28.3116135 40.6262344,17.8066075 38.2521064,3.6033152 C38.1394888,2.92964096 38.0423107,1.21462748 37.5027602,0.689910523" id="Fill-87-Copy"></path>
        </g>
        <g id="10-copy" transform="translate(200.000000, 197.000000)">
            <polyline id="Path-4" stroke="#FFFFFF" stroke-width="5" opacity="0.664787946" points="65.5853659 91.3125 94.1128565 120 122.95122 91.3125"></polyline>
            <path d="M29.2347805,43.2219492 L31.9657799,41.0223036 C34.9015293,38.654727 37.9378859,36.2082276 40.9372738,33.8122013 C41.5681252,33.309323 42.2008212,32.839476 42.8123812,32.3852336 C43.6240029,31.7832387 44.390432,31.2152051 45.0831542,30.6196442 C46.9471172,29.0192339 48.9725591,28.7604498 50.4556901,28.5732474 C50.9777104,26.5837423 51.5661361,24.5667177 52.3547772,22.5661664 C53.4901253,19.693905 55.1189793,17.4299958 57.3371814,15.6442203 L60.0681807,13.4436523 C60.2637078,13.2858374 60.4620017,13.1261777 60.658451,12.9674403 C57.9385192,10.0492106 55.3735334,6.98792501 52.704328,4.02019071 C51.4831294,2.66296748 50.297055,1.23141062 48.6396097,0.365081567 C48.1618597,0.114561037 47.5337752,0.0494518354 46.977553,0.0641340757 C46.0091408,0.0888863343 45.04534,0.24032096 44.0786955,0.340329309 C41.480507,0.609221857 38.8813961,0.856975053 36.2868968,1.15430964 C33.5863332,1.46448157 30.8913035,1.82054512 28.1944291,2.16008154 C26.9769197,2.31328418 25.7954568,2.46287392 24.7817751,3.33466076 C23.4269203,4.49732508 21.9308771,5.49579429 20.5325974,6.61164456 C16.6256689,9.73265838 12.7361872,12.8756571 8.84209399,16.0121988 C7.05375939,17.4520576 5.82887163,19.2727323 4.98773643,21.4044245 C3.87260205,24.2299332 3.17257835,27.1646286 2.43750734,30.0974869 C1.88136203,32.3173263 1.2421331,34.5178866 0.608514804,36.7175322 C0.383474246,37.5021404 0.567011423,38.141748 1.0659743,38.7492468 C1.76415341,39.5962506 2.46517627,40.4432545 3.12646348,41.3177933 C6.35734802,45.5922854 9.55233982,49.8942971 12.8145825,54.1458512 C13.8642337,55.5140899 15.0825886,56.6620874 16.9208041,57.0823761 C18.5579588,57.4558738 20.1950366,57.8238523 21.8340359,58.1854121 C22.4934785,55.5471211 23.1925799,52.8308298 24.2532987,50.1439029 C25.3877245,47.2725256 27.0175008,45.0077324 29.2347805,43.2219492" id="Fill-118-Copy" fill="#E4E4E4"></path>
            <path d="M115.588013,18.946954 C114.203645,17.748545 112.674399,16.687657 111.432065,15.3580303 C108.683542,12.4141258 106.094499,9.32247645 103.400392,6.32722255 C102.17927,4.96907689 100.993119,3.53752002 99.3348281,2.67126784 C98.8560789,2.42074731 98.2289167,2.35556124 97.6736936,2.37024348 C96.7052045,2.39415016 95.7395592,2.54550792 94.7739139,2.64651558 C92.1757253,2.91533126 89.5766145,3.16316133 86.9820382,3.46041904 C84.282397,3.7697454 81.5873672,4.12665452 78.8904929,4.46619094 C77.672138,4.61947045 76.4915205,4.76906019 75.4769934,5.64084704 C74.1220617,6.80351135 72.6260186,7.8019037 71.228738,8.91783083 C67.3208104,12.0387678 63.4323278,15.1817665 59.5373123,18.318385 C57.7489009,19.758167 56.5250122,21.5788417 55.6838002,23.7105954 C55.1470231,25.068741 54.7080096,26.4525768 54.3141886,27.8483505 C55.6847225,27.6758303 57.0728569,27.5033102 58.4526137,27.3454722 C60.2991299,27.1334868 62.166859,26.9444472 63.9727941,26.7627487 C64.7438347,26.6847484 65.513953,26.606748 66.2850704,26.5269104 C66.544236,26.4993832 66.8043239,26.4681815 67.0644117,26.4378945 C67.7902597,26.3516383 68.6121036,26.2534441 69.4753739,26.2314207 C69.5537692,26.2295835 69.634009,26.2286688 69.7142489,26.2286688 C70.9483596,26.2286688 72.0440489,26.4736854 72.9701123,26.9572999 C75.0766395,28.0584987 76.496132,29.6497307 77.749611,31.0537603 L78.0825604,31.4263279 C79.1653375,32.6293876 80.2398908,33.8590598 81.2793199,35.0474373 C82.8362347,36.8286313 84.4465659,38.6703839 86.0671193,40.405694 C86.7081159,41.0930227 87.530882,41.7537466 88.4006085,42.4530056 C88.9023382,42.8558601 89.4206693,43.2724821 89.938155,43.7203058 C91.7578477,45.2959331 93.5822288,47.1193367 94.5903767,49.7713952 C94.9334713,50.6725388 95.128076,51.5342326 95.3005456,52.2940577 C95.360495,52.5583457 95.419522,52.8198818 95.4840828,53.0731543 L95.6943666,53.8908013 L95.5292754,54.7176113 C95.4278227,55.2305903 95.3309815,55.7325538 95.2369071,56.2271762 C95.0293902,57.3118556 94.8154172,58.4341629 94.5562517,59.54454 L94.2057018,61.0513453 C93.9778944,62.0314117 93.7482423,63.0188193 93.5158234,64.0117385 C94.3395118,63.9346529 95.1566673,63.7511172 95.9645998,63.4079141 C100.599298,61.4413548 105.237685,59.4821367 109.876994,57.523841 C110.490322,57.2641421 110.880454,56.8190704 111.128629,56.2088196 C112.126555,53.7659946 113.147538,51.3332627 114.144618,48.8895152 C114.710909,47.5010903 115.401709,46.1392703 115.769706,44.6985351 C116.922655,40.1927938 117.963928,35.6576881 119.018191,31.1271715 C119.372353,29.6065987 119.637975,28.0640026 119.966313,26.4167936 C119.725593,25.4798515 119.55958,24.4575755 119.198039,23.5095947 C118.482336,21.6275006 117.080367,20.2390681 115.588013,18.946954" id="Fill-119-Copy" fill="#E4E4E4"></path>
            <path d="M87.1813647,46.6211986 C85.7969963,45.4218056 84.2668281,44.3619016 83.0254159,43.0322057 C80.276816,40.0883319 77.6878504,36.9967133 74.9928206,34.000537 C73.7716989,32.6423913 72.5864699,31.2108268 70.9281024,30.3445515 C70.4494301,30.0949457 69.8222679,30.0288757 69.2670449,30.0435579 C68.2976335,30.0683332 67.3329104,30.2197525 66.3672651,30.3197762 C63.7689997,30.5886534 61.1698888,30.8364219 58.5753895,31.1346636 C55.8757482,31.4439131 53.1807184,31.8008914 50.4829218,32.1404278 C49.2654124,32.2936766 48.0848718,32.4423362 47.0702678,33.314123 C45.715413,34.4777175 44.2193698,35.4752258 42.821167,36.5920216 C38.9141616,39.7120899 35.0256022,42.8550963 31.1306635,45.9916764 C29.3422521,47.4324116 28.1183635,49.2530632 27.2771514,51.3838867 C26.1611716,54.2102949 25.4619933,57.1449903 24.7269223,60.0769338 C24.1698547,62.2976879 23.5307026,64.4973335 22.8979298,66.6978939 C22.6719669,67.4815796 22.8555041,68.1221173 23.3554661,68.7286937 C24.052723,69.5766123 24.753669,70.4227014 25.4149562,71.2981549 C28.6468399,75.5717246 31.8408325,79.8746665 35.1030752,84.1262128 C36.1527264,85.4935368 37.3720035,86.642449 39.2102191,87.061823 C46.5639265,88.7393189 53.9287016,90.3397292 61.3884733,91.4886491 C63.4840098,91.8107513 65.5454213,91.9364651 67.557951,91.0821202 C72.192649,89.1146462 76.8310362,87.155428 81.4703456,85.1971247 C82.0836734,84.9374258 82.4738052,84.4932765 82.7219032,83.8830334 C83.7199058,81.4402007 84.740889,79.0074688 85.737047,76.5637214 C86.3042599,75.1752965 86.9941383,73.8134764 87.3630572,72.3718264 C88.5160058,67.8660852 89.5563572,63.3318942 90.6115423,58.8013776 C90.9666268,57.2798901 91.2313261,55.7382088 91.559664,54.0900773 C91.3189444,53.1540653 91.1529308,52.1317816 90.7913903,51.1829169 C90.076533,49.3016991 88.6737187,47.9132665 87.1813647,46.6211986" id="Fill-120-Copy" fill="#E4E4E4"></path>
        </g>
        <g id="4-wheat-copy" transform="translate(118.000000, 368.000000)">
            <path d="M180.05018,104.644034 L91.0731686,104.644034 L91.0731686,110.524795 L180.05018,110.524795 L180.05018,104.644034 Z M65.6752997,113.904865 L65.6752997,110.660097 L86.1904432,110.660097 L86.1904432,104.736239 L65.6876424,104.736239 L65.6876424,101.507869 L86.2171857,101.507869 L86.2171857,81.9725558 L90.9672273,81.9725558 L90.9672273,101.408453 L133.500406,101.408453 L133.500406,71.9133036 L138.181534,71.9133036 L138.181534,101.385874 L180.09235,101.385874 L180.09235,81.6763672 L184.894848,81.6763672 L184.894848,101.452495 L206.313149,101.452495 L206.313149,104.668588 L184.97199,104.668588 L184.97199,110.628332 L206.286407,110.628332 L206.286407,113.904865 L65.6752997,113.904865 Z" id="Fill-187-Copy" fill="#E4E4E4"></path>
            <path d="M181.107963,44.9734349 C169.727595,44.8002719 164.318249,36.9414006 164.245221,28.1376447 C174.083699,27.8466071 181.028765,34.8475617 181.107963,44.9734349" id="Fill-188-Copy" fill="#E4E4E4"></path>
            <path d="M154.642943,49.5918426 C154.680853,60.3131837 147.273966,66.392777 137.674199,66.5546935 C137.790426,62.4940763 138.73464,58.7420104 141.378114,55.5505566 C144.797119,51.4253789 149.423734,49.9720801 154.642943,49.5918426" id="Fill-189-Copy" fill="#E4E4E4"></path>
            <path d="M182.440112,33.8558136 C174.77103,26.4325542 175.89627,16.6325743 182.44217,10.100027 C189.59706,17.0169327 189.484948,26.4910192 182.440112,33.8558136" id="Fill-190-Copy" fill="#E4E4E4"></path>
            <path d="M164.245221,43.5882673 C174.174212,43.3494276 180.869253,50.2058936 181.169591,60.2057364 C172.421468,60.8431859 164.384076,54.5402062 164.245221,43.5882673" id="Fill-191-Copy" fill="#E4E4E4"></path>
            <path d="M181.108906,76.5979835 C170.495926,76.8327023 164.257564,69.1358333 164.245221,59.9098583 C174.082671,59.5121929 180.986508,66.6617569 181.108906,76.5979835" id="Fill-192-Copy" fill="#E4E4E4"></path>
            <path d="M70.9340149,59.8949423 C81.0100037,59.8037678 87.549818,66.750464 87.8234138,76.6456535 C79.7829367,78.4433037 69.6173779,68.3615583 70.9340149,59.8949423" id="Fill-193-Copy" fill="#E4E4E4"></path>
            <path d="M137.681769,35.5292363 C137.397888,25.0436442 145.13597,18.7057229 154.506455,18.6852043 C154.73788,27.5248463 149.006596,34.9798708 137.681769,35.5292363" id="Fill-194-Copy" fill="#E4E4E4"></path>
            <path d="M183.964086,76.7517133 C183.730604,65.8941254 191.909936,59.8370253 200.713602,59.8944601 C201.171309,68.778144 194.878434,76.4156036 183.964086,76.7517133" id="Fill-195-Copy" fill="#E4E4E4"></path>
            <path d="M87.6051797,45.7045048 C77.360422,45.861356 70.7537516,38.4391268 70.8185506,29.0081378 C81.0005664,28.5326049 87.666893,36.3063112 87.6051797,45.7045048" id="Fill-196-Copy" fill="#E4E4E4"></path>
            <path d="M107.359966,28.9874171 C107.519392,38.5034852 101.153489,45.4512116 90.5507941,45.8806422 C90.1311433,36.439351 96.7942986,29.3225824 107.359966,28.9874171" id="Fill-197-Copy" fill="#E4E4E4"></path>
            <path d="M90.5320625,76.7155084 C90.5526337,66.2452837 97.9893485,60.0611229 107.363862,59.8940554 C107.790799,69.7995471 100.241971,76.8405085 90.5320625,76.7155084" id="Fill-198-Copy" fill="#E4E4E4"></path>
            <path d="M107.400483,44.4407362 C107.454997,55.3547287 99.4062912,61.3133569 90.5357697,61.2334289 C90.3444584,51.3269069 97.5785478,44.5319108 107.400483,44.4407362" id="Fill-199-Copy" fill="#E4E4E4"></path>
            <path d="M137.674199,51.1443861 C138.010537,39.8594281 145.535707,34.5115494 154.674682,34.1385235 C154.545084,38.3446594 153.632755,42.2320277 150.765999,45.4788559 C147.309966,49.3918938 142.809863,50.8584997 137.674199,51.1443861" id="Fill-200-Copy" fill="#E4E4E4"></path>
            <path d="M134.72113,35.5271934 C124.62757,35.5302841 117.978729,28.6061669 117.960215,18.6852043 C129.652236,18.6504519 134.791072,27.4367799 134.72113,35.5271934" id="Fill-201-Copy" fill="#E4E4E4"></path>
            <path d="M183.964338,44.9995454 C183.731799,34.5067417 191.431824,28.2231646 200.709739,28.1288993 C201.106762,37.5968046 194.128783,44.8252663 183.964338,44.9995454" id="Fill-202-Copy" fill="#E4E4E4"></path>
            <path d="M88.9590914,10.9585447 C96.2722939,17.8888433 95.7878442,27.7359558 89.034176,34.6518312 C81.780544,28.0413305 82.0222546,17.874506 88.9590914,10.9585447" id="Fill-203-Copy" fill="#E4E4E4"></path>
            <path d="M134.73853,66.3971334 C123.952752,66.3673428 118.147412,58.8201134 117.960215,49.5982594 C128.365427,49.3378709 134.794072,57.0368004 134.73853,66.3971334" id="Fill-204-Copy" fill="#E4E4E4"></path>
            <path d="M70.8204859,44.4443314 C81.3480963,44.2506498 87.5525158,51.9085421 87.6893137,61.1406983 C77.7500371,61.5835218 70.6682596,53.8968691 70.8204859,44.4443314" id="Fill-205-Copy" fill="#E4E4E4"></path>
            <path d="M183.960369,60.2663086 C183.849285,49.5993117 191.710793,43.7513465 200.75214,43.5822185 C201.202648,53.8341221 193.19097,60.4702925 183.960369,60.2663086" id="Fill-206-Copy" fill="#E4E4E4"></path>
            <path d="M134.745862,50.9559011 C124.159491,50.8903104 118.102155,43.4599253 117.960215,34.1406295 C129.074102,33.9869548 134.777615,42.2679593 134.745862,50.9559011" id="Fill-207-Copy" fill="#E4E4E4"></path>
            <path d="M136.153311,24.3321905 C128.628141,17.1129149 129.476785,7.39183284 136.102912,0.656331987 C142.4905,6.4991461 143.753567,16.1597027 136.153311,24.3321905" id="Fill-208-Copy" fill="#E4E4E4"></path>
            <path d="M0,64.5 L0,76.6202237" id="Stroke-287-Copy" stroke="#53BD92" stroke-width="2" stroke-linecap="round" stroke-dasharray="0,17"></path>
        </g>
        <g id="marijuana-leaf" transform="translate(23.000000, 361.000000)" stroke="#E4E4E4" stroke-width="2">
            <path d="M60,99 C60,99 67.336087,74.2992105 74.3043478,60.5 C84.5217391,40.2368421 98.826087,32.1315789 107,22 C102.875577,31.8799614 99.4612562,42.036898 96.7826087,52.3947368 C91.1221739,74.8057895 76.3478261,86.8421053 60,99" id="Shape" fill="#E4E4E4" fill-rule="nonzero" stroke-linejoin="round"></path>
            <path d="M60,98 C86,74 120,64 120,64 C114.005915,68.6289007 108.628901,74.0059151 104,80 C92,96 76,98 60,98" id="Shape" fill="#E4E4E4" fill-rule="nonzero" stroke-linejoin="round"></path>
            <path d="M60,99.1234568 C60,99.1234568 86,97.1481481 104,109 C104,109 88.2,107.024691 78,107.024691 C64,107.024691 60,99.1234568 60,99.1234568" id="Shape" fill="#E4E4E4" fill-rule="nonzero" stroke-linejoin="round"></path>
            <path d="M61,99 C61,99 53.663913,74.2992105 46.6956522,60.5 C36.4782609,40.2368421 22.173913,32.1315789 14,22 C18.1244225,31.8799614 21.5387438,42.036898 24.2173913,52.3947368 C29.8778261,74.8057895 44.6521739,86.8421053 61,99" id="Shape" fill="#E4E4E4" fill-rule="nonzero" stroke-linejoin="round"></path>
            <path d="M60.991365,2.60200025e-14 C59.7167952,8.90800922 57.7116253,17.6933963 54.996592,26.2653061 C44.5856695,57.8240816 48.4622894,63.5216327 60.991365,99 C72.4413815,66.6734694 78.1164333,60.0061224 66.986138,26.2653061 C64.2704805,17.6935699 62.2652985,8.90812977 60.991365,0 Z" id="Shape" fill="#E4E4E4" fill-rule="nonzero" stroke-linejoin="round"></path>
            <path d="M60,98 C34,74 0,64 0,64 C5.99408489,68.6289007 11.3710993,74.0059151 16,80 C28,96 44,98 60,98" id="Shape" fill="#E4E4E4" fill-rule="nonzero" stroke-linejoin="round"></path>
            <path d="M61,99.1234568 C61,99.1234568 35,97.1481481 17,109 C17,109 32.8,107.024691 43,107.024691 C57,107.024691 61,99.1234568 61,99.1234568" id="Shape" fill="#E4E4E4" fill-rule="nonzero" stroke-linejoin="round"></path>
            <path d="M60,99 L60,121" id="Shape" stroke-linejoin="bevel"></path>
            <path d="M60,99 L60,49" id="Shape" stroke-linejoin="bevel"></path>
            <path d="M61,98 L39,64" id="Shape" stroke-linejoin="bevel"></path>
            <path d="M60,98 L82,64" id="Shape" stroke-linejoin="bevel"></path>
        </g>
        <text id="GROWING-INDIGENOUS-T" font-family="RobotoCondensed-Regular, Roboto Condensed" font-size="14" font-style="condensed" font-weight="normal" letter-spacing="-0.000816666696" fill="#281D3E">
            <tspan x="196.845241" y="108">GROWING INDIGENOUS </tspan>
            <tspan x="197.224635" y="127">TOURISM WORLD WIDE</tspan>
        </text>
        <text id="IN-THE-WORLD-TO-LEGA" font-family="RobotoCondensed-Regular, Roboto Condensed" font-size="14" font-style="condensed" font-weight="normal" letter-spacing="-0.000816666696" fill="#281D3E">
            <tspan x="36.9182344" y="475">IN THE WORLD TO </tspan>
            <tspan x="28.9688557" y="494">LEGALIZE CANNABIS</tspan>
        </text>
        <text id="4" font-family="RobotoCondensed-Regular, Roboto Condensed" font-size="90" font-style="condensed" font-weight="normal" letter-spacing="-0.00525" fill="#281D3E">
            <tspan x="225.529969" y="440">4</tspan>
        </text>
        <text id="4-copy" font-family="RobotoCondensed-Regular, Roboto Condensed" font-size="90" font-style="condensed" font-weight="normal" letter-spacing="-0.00525" fill="#281D3E">
            <tspan x="56.5299687" y="256">4</tspan>
        </text>
        <text id="TH" font-family="RobotoCondensed-Regular, Roboto Condensed" font-size="14" font-style="condensed" font-weight="normal" letter-spacing="-0.00525" fill="#281D3E">
            <tspan x="267" y="386">TH</tspan>
        </text>
        <text id="TH-Copy" font-family="RobotoCondensed-Regular, Roboto Condensed" font-size="14" font-style="condensed" font-weight="normal" letter-spacing="-0.00525" fill="#281D3E">
            <tspan x="98" y="202">TH</tspan>
        </text>
        <text id="LARGEST-EXPORTER-OF" font-family="RobotoCondensed-Regular, Roboto Condensed" font-size="14" font-style="condensed" font-weight="normal" letter-spacing="-0.000816666696" fill="#281D3E">
            <tspan x="189.822211" y="475">LARGEST EXPORTER OF </tspan>
            <tspan x="170.923294" y="494">AGRICULTURE AND ANGI-FOOD</tspan>
        </text>
        <text id="GLOBAL-PRODUCER-OF-T" font-family="RobotoCondensed-Regular, Roboto Condensed" font-size="14" font-style="condensed" font-weight="normal" letter-spacing="-0.000816666696" fill="#281D3E">
            <tspan x="166.275185" y="295">GLOBAL PRODUCER OF TOO MANY </tspan>
            <tspan x="171.207314" y="314">METALS AND MINERALS TO LIST</tspan>
        </text>
        <text id="2" font-family="RobotoCondensed-Regular, Roboto Condensed" font-size="90" font-style="condensed" font-weight="normal" letter-spacing="-0.00525" fill="#281D3E">
            <tspan x="61.5299687" y="440">2</tspan>
        </text>
        <text id="ND" font-family="RobotoCondensed-Regular, Roboto Condensed" font-size="14" font-style="condensed" font-weight="normal" letter-spacing="-0.00525" fill="#281D3E">
            <tspan x="103" y="386">ND</tspan>
        </text>
        <text id="10" font-family="RobotoCondensed-Regular, Roboto Condensed" font-size="90" font-style="condensed" font-weight="normal" letter-spacing="-0.00525" fill="#281D3E">
            <tspan x="216.515992" y="255">10</tspan>
        </text>
        <text id="TOP" font-family="RobotoCondensed-Regular, Roboto Condensed" font-size="14" font-style="condensed" font-weight="normal" letter-spacing="-0.00525" fill="#281D3E">
            <tspan x="249.290102" y="186">TOP</tspan>
        </text>
        <text id="1" font-family="RobotoCondensed-Regular, Roboto Condensed" font-size="90" font-style="condensed" font-weight="normal" letter-spacing="-0.00525" fill="#281D3E">
            <tspan x="238.529969" y="74">1</tspan>
        </text>
        <text id="1-copy" font-family="RobotoCondensed-Regular, Roboto Condensed" font-size="90" font-style="condensed" font-weight="normal" letter-spacing="-0.00525" fill="#281D3E">
            <tspan x="64.5299687" y="74">1</tspan>
        </text>
        <text id="#" font-family="RobotoCondensed-Regular, Roboto Condensed" font-size="14" font-style="condensed" font-weight="normal" letter-spacing="-0.00525" fill="#281D3E">
            <tspan x="233" y="20">#</tspan>
        </text>
        <text id="#-copy" font-family="RobotoCondensed-Regular, Roboto Condensed" font-size="14" font-style="condensed" font-weight="normal" letter-spacing="-0.00525" fill="#281D3E">
            <tspan x="59" y="20">#</tspan>
        </text>
        <text id="WORLDS-LARGEST-EXPOR" font-family="RobotoCondensed-Regular, Roboto Condensed" font-size="14" font-style="condensed" font-weight="normal" letter-spacing="-0.000816666696" fill="#281D3E">
            <tspan x="3.62706745" y="108">WORLDS LARGEST EXPORTER </tspan>
            <tspan x="23.4492445" y="127">OF FOREST PRODUCTS</tspan>
        </text>
        <text id="LARGEST-EXPORTER-OF" font-family="RobotoCondensed-Regular, Roboto Condensed" font-size="14" font-style="condensed" font-weight="normal" letter-spacing="-0.000816666696" fill="#281D3E">
            <tspan x="15.8222115" y="295">LARGEST EXPORTER OF </tspan>
            <tspan x="42.4620112" y="314">NATURAL GAS</tspan>
        </text>
    </g>
</svg>